<svg xmlns="http://www.w3.org/2000/svg" width="14" height="21" viewBox="0 0 14 21"><g><g><path fill="#a0a0ac" d="M11.995 9.119v4.585c0 2.864-2.23 5.186-4.98 5.186-2.753 0-4.98-2.321-4.98-5.193V5.225c0-1.726 1.33-3.123 2.986-3.136 1.65.013 2.987 1.413 2.987 3.131v8.413c0 .575-.45 1.043-1.002 1.043-.553 0-1.001-.465-1.001-1.04V4.207H4.001v9.429c0 1.729 1.345 3.129 3.005 3.129 1.659 0 3.006-1.403 3.006-3.132V5.22c0-2.864-2.22-5.194-4.967-5.22h-.047C2.246.026.03 2.354.03 5.225v8.472c0 4.025 3.125 7.282 6.985 7.282 3.858 0 6.985-3.257 6.985-7.276V9.12z"/></g></g></svg>