<svg xmlns="http://www.w3.org/2000/svg" width="15" height="21" viewBox="0 0 15 21"><g><g><path fill="#e27726" d="M8.039 15.311v-.014h-2.16v-4.18h2.508c.585 0 2.786.196 2.786 1.756s-1.044 2.438-3.134 2.438zm-2.16-10.03h1.39c.973 0 2.891.166 2.891 1.755A1.964 1.964 0 0 1 8.45 9.11H5.88zm6.395 4.346a3.289 3.289 0 0 0 1.63-3.4c-.279-2.103-2.786-2.897-4.765-3.064V0H7.19v3.135h-1.31V0H3.93v3.135H0v2.02h1.463c.655 0 .975.195.975.724v8.68c0 .724-.362.947-.752.947H.195v2.062h3.79v3.204h1.964v-3.204h1.31v3.204h1.908v-3.204h.418c4.013 0 5.35-1.964 5.35-4.64a3.469 3.469 0 0 0-2.661-3.301z"/></g></g></svg>