<svg xmlns="http://www.w3.org/2000/svg" width="13" height="16" viewBox="0 0 13 16"><g><g><g><path fill="#ff7f7f" d="M1.362 14.625V7.713h9.304v6.912zM3.7 3.721a2.337 2.337 0 0 1 2.333-2.333 2.337 2.337 0 0 1 2.333 2.333v2.64H3.7zm7.612 2.64H9.688V3.689A3.698 3.698 0 0 0 6 0a3.695 3.695 0 0 0-3.688 3.686v2.672H.688a.68.68 0 0 0-.678.677v8.258a.68.68 0 0 0 .678.678H11.31a.68.68 0 0 0 .678-.678V7.035a.679.679 0 0 0-.678-.674z"/></g><g><path fill="#ff7f7f" d="M5.998 13.565a.68.68 0 0 0 .678-.678v-1.76a.677.677 0 1 0-1.356 0v1.76a.68.68 0 0 0 .678.678z"/></g></g></g></svg>