<svg xmlns="http://www.w3.org/2000/svg" width="16" height="16" viewBox="0 0 16 16"><g><g><g><path fill="#a0a0ac" d="M15.997 4.284v2.678a.665.665 0 0 1-.666.666.665.665 0 0 1-.667-.666V4.284c0-1.626-1.204-2.948-2.687-2.948-1.482 0-2.687 1.322-2.687 2.948v2.012h1.319c.369 0 .666.297.666.666v8.372a.665.665 0 0 1-.666.666H.666A.665.665 0 0 1 0 15.334V6.962c0-.37.297-.666.666-.666h7.288V4.284C7.954 1.92 9.76 0 11.977 0c2.217 0 4.023 1.92 4.02 4.284zM9.94 14.668v-7.04H1.332v7.04z"/></g><g><path fill="#a0a0ac" d="M5.636 13.35a.665.665 0 0 0 .666-.666v-1.198a.665.665 0 0 0-.666-.666.665.665 0 0 0-.666.666v1.198a.665.665 0 0 0 .666.667z"/></g></g></g></svg>