<svg xmlns="http://www.w3.org/2000/svg" width="26" height="18" viewBox="0 0 26 18"><g><g><path fill="#18bb50" d="M25.7 6.282L18.7.292a1 1 0 0 0-1.706.706v2.996h-3.999a1 1 0 1 0 0 1.997h4.998a1 1 0 0 0 1-.998V3.409l4.585 3.58-4.585 3.579V8.984a1 1 0 0 0-1-.998H8.997V4.99a1 1 0 0 0-1.706-.706l-6.998 5.99a.998.998 0 0 0 0 1.412l6.998 5.99a1 1 0 0 0 1.706-.706v-2.996h3.998a1 1 0 1 0 0-1.997H7.998a1 1 0 0 0-1 .999v1.583l-4.585-3.58L6.998 7.4v1.584a1 1 0 0 0 1 .999h8.997v2.996a1 1 0 0 0 1.706.706l6.998-5.99a.998.998 0 0 0 0-1.413z"/></g></g></svg>