<svg xmlns="http://www.w3.org/2000/svg" width="18" height="18" viewBox="0 0 18 18"><g><g><path fill="#515168" d="M7.708 16.702v-6.424h4.176a.928.928 0 0 0 .683-.28.929.929 0 0 0 .28-.683V5.139h3.855v11.563zm-.595-8.064a2.337 2.337 0 0 0-.482.764 2.32 2.32 0 0 0-.201.884v2.572H1.285v-6.43h4.18a.93.93 0 0 0 .683-.28.93.93 0 0 0 .282-.684v-4.18h3.858v4.18zm-1.974-6.5v3.001H2.138zm6.424 3.854v3.001H8.562zm6.143-1.857a.93.93 0 0 0-.683-.28h-4.175c-.402 0-.83.133-1.285.4V.965a.929.929 0 0 0-.281-.683.93.93 0 0 0-.683-.281H6.424c-.268 0-.562.067-.883.2a2.336 2.336 0 0 0-.763.483L.683 4.778A2.335 2.335 0 0 0 .2 5.54C.067 5.86 0 6.156 0 6.424v6.745c0 .268.094.495.281.683a.929.929 0 0 0 .682.28h5.46v2.891c0 .268.094.496.282.683a.929.929 0 0 0 .682.28h9.636a.929.929 0 0 0 .683-.28.929.929 0 0 0 .28-.683V4.818a.929.929 0 0 0-.28-.683z"/></g></g></svg>