<svg xmlns="http://www.w3.org/2000/svg" width="22" height="21" viewBox="0 0 22 21"><g><g><g><path fill="#18bb50" d="M20.115 3.965H1.875V3.74c0-1.029.84-1.866 1.874-1.866h14.492c1.033 0 1.874.837 1.874 1.866zM18.25 0H3.75A3.754 3.754 0 0 0 0 3.75v8.125a3.754 3.754 0 0 0 3.75 3.75h.219a.937.937 0 1 0 0-1.875H3.75a1.877 1.877 0 0 1-1.875-1.875V5.849h18.25v2.344a.938.938 0 0 0 1.875 0V3.75A3.754 3.754 0 0 0 18.25 0z"/></g><g><path fill="#18bb50" d="M12.99 11.098a2.79 2.79 0 0 0-1.991-.828 2.79 2.79 0 0 0-1.99.828l-1.95 1.927a.937.937 0 1 0 1.317 1.334l1.638-1.619v7.327a.937.937 0 1 0 1.875 0v-7.42l1.732 1.712a.934.934 0 0 0 1.326-.008.937.937 0 0 0-.008-1.326z"/></g><g><path fill="#18bb50" d="M21.059 10.94a.937.937 0 0 0-.938.938 1.877 1.877 0 0 1-1.875 1.874h-.218a.937.937 0 1 0 0 1.875h.218a3.754 3.754 0 0 0 3.75-3.75.937.937 0 0 0-.937-.937z"/></g></g></g></svg>