<svg xmlns="http://www.w3.org/2000/svg" width="23" height="16" viewBox="0 0 26 18"><g><g><g><path fill="#18bb50" d="M22 2a1 1 0 0 1 1 1v12a1 1 0 0 1-1 1H3a1 1 0 0 1-1-1V3a1 1 0 0 1 1-1zM2.824.005A3 3 0 0 0 0 3v12a3 3 0 0 0 3 3h19a3 3 0 0 0 3-3V3a3 3 0 0 0-3-3H3z"/></g><g><path fill="#18bb50" d="M2 6a1 1 0 0 1 1-1h19a1 1 0 0 1 0 2H3a1 1 0 0 1-1-1z"/></g><g><path fill="#18bb50" d="M4 12a1 1 0 0 1 1-1h3a1 1 0 0 1 0 2H5a1 1 0 0 1-1-1z"/></g><g><path fill="#18bb50" d="M11 12a1 1 0 0 1 1-1h2a1 1 0 0 1 0 2h-2a1 1 0 0 1-1-1z"/></g></g></g></svg>