<svg xmlns="http://www.w3.org/2000/svg" width="30" height="24" viewBox="0 0 30 24"><g><g><path fill="#c1c1dc" d="M27.548 16.876l-5.126 2.138c-.285.12-.585.18-.891.18a2.337 2.337 0 0 1-2.168-1.473l-.402-.99a1.555 1.555 0 0 1 .313-1.652 1.013 1.013 0 0 1-.091-.175l-.317-.781a.998.998 0 0 1-1.144-.472l-.248.103a.988.988 0 0 1-1.18-.33L12.522 15a1.012 1.012 0 0 1-.616.858l-9.747 4.067a.988.988 0 0 1-.766-.002 1.007 1.007 0 0 1-.54-.55l-.777-1.916c-.21-.518.034-1.11.545-1.324l9.747-4.066a.986.986 0 0 1 1.033.17l3.774-1.573a1.026 1.026 0 0 1 .067-.529c.102-.248.297-.445.542-.547l.247-.103a1.027 1.027 0 0 1 .042-.653c.088-.215.247-.39.447-.5l-.317-.782a1.032 1.032 0 0 1-.056-.189 1.51 1.51 0 0 1-1.37-.95l-.402-.99c-.491-1.212.081-2.604 1.276-3.102L20.777.179C21.06.06 21.36 0 21.667 0c.955 0 1.806.578 2.169 1.473l.401.99a1.555 1.555 0 0 1-.312 1.65c.036.056.067.114.092.176l.318.782a.996.996 0 0 1 1.197.59l1.593 3.927c.1.248.1.527-.002.776a1.009 1.009 0 0 1-.442.498l.317.782c.025.062.043.126.056.19a1.51 1.51 0 0 1 1.368.95l.402.99c.491 1.212-.081 2.604-1.276 3.102zM30 21.136v1.729c0 .627-.45 1.135-1.005 1.135h-11.99C16.45 24 16 23.492 16 22.865v-1.73c0-.627.45-1.135 1.005-1.135h11.99c.555 0 1.005.508 1.005 1.135z"/></g></g></svg>