<svg xmlns="http://www.w3.org/2000/svg" width="12" height="20" viewBox="0 0 12 20"><g><g><path fill="#18bb2b" d="M6.64 2.68c.867.08 1.593.263 2.18.55.587.287 1.06.64 1.42 1.06.36.42.617.88.77 1.38.153.5.23 1.003.23 1.51H7.08c0-1.16-.46-1.74-1.38-1.74-.347 0-.647.087-.9.26-.253.173-.38.453-.38.84 0 .36.16.66.48.9.28.21.682.415 1.208.615l.232.085c.6.213 1.203.44 1.81.68.607.24 1.153.533 1.64.88a4.2 4.2 0 0 1 1.18 1.27c.3.5.45 1.11.45 1.83 0 1.333-.42 2.387-1.26 3.16-.84.773-2.013 1.233-3.52 1.38v2.12h-1.9v-2.12c-1.493-.16-2.667-.67-3.52-1.53-.853-.86-1.28-2.037-1.28-3.53H4.1c0 .64.16 1.13.48 1.47.32.34.747.51 1.28.51.427 0 .763-.107 1.01-.32.247-.213.37-.507.37-.88 0-.387-.17-.69-.51-.91-.302-.196-.76-.42-1.373-.674l-.237-.096a75.185 75.185 0 0 1-1.85-.76 7.035 7.035 0 0 1-1.56-.9A4.045 4.045 0 0 1 .64 8.48C.373 8 .24 7.4.24 6.68c0-.627.123-1.177.37-1.65.247-.473.573-.873.98-1.2a4.669 4.669 0 0 1 1.43-.77 8.06 8.06 0 0 1 1.72-.38V.54h1.9z"/><path fill="#515168" d="M6.64 2.68c.867.08 1.593.263 2.18.55.587.287 1.06.64 1.42 1.06.36.42.617.88.77 1.38.153.5.23 1.003.23 1.51H7.08c0-1.16-.46-1.74-1.38-1.74-.347 0-.647.087-.9.26-.253.173-.38.453-.38.84 0 .36.16.66.48.9.28.21.682.415 1.208.615l.232.085c.6.213 1.203.44 1.81.68.607.24 1.153.533 1.64.88a4.2 4.2 0 0 1 1.18 1.27c.3.5.45 1.11.45 1.83 0 1.333-.42 2.387-1.26 3.16-.84.773-2.013 1.233-3.52 1.38v2.12h-1.9v-2.12c-1.493-.16-2.667-.67-3.52-1.53-.853-.86-1.28-2.037-1.28-3.53H4.1c0 .64.16 1.13.48 1.47.32.34.747.51 1.28.51.427 0 .763-.107 1.01-.32.247-.213.37-.507.37-.88 0-.387-.17-.69-.51-.91-.302-.196-.76-.42-1.373-.674l-.237-.096a75.185 75.185 0 0 1-1.85-.76 7.035 7.035 0 0 1-1.56-.9A4.045 4.045 0 0 1 .64 8.48C.373 8 .24 7.4.24 6.68c0-.627.123-1.177.37-1.65.247-.473.573-.873.98-1.2a4.669 4.669 0 0 1 1.43-.77 8.06 8.06 0 0 1 1.72-.38V.54h1.9z"/></g></g></svg>