<svg xmlns="http://www.w3.org/2000/svg" width="22" height="22" viewBox="0 0 22 22"><g><g transform="rotate(-315 11 11)"><path fill="#51d67e" d="M7.71 5.29a1 1 0 0 1 1-1h5a1 1 0 0 1 1 1v11a1 1 0 0 1-1 1h-5a1 1 0 0 1-1-1z"/></g><g transform="rotate(-315 18.5 3.5)"><path fill="#18bb50" d="M15.13 3.37a2 2 0 0 1 2-2h3a2 2 0 0 1 2 2v1a1 1 0 0 1-1 1h-5a1 1 0 0 1-1-1z"/></g><g transform="rotate(-315 3.5 18.5)"><path fill="#18bb50" d="M.304 17.367a1 1 0 0 1 .894-1.447h3.764a1 1 0 0 1 .894 1.447L3.58 21.92h-1z"/></g></g></svg>