<svg xmlns="http://www.w3.org/2000/svg" width="27" height="26" viewBox="0 0 27 26"><g><g><g><path fill="#fff" d="M13.477 0C6.043 0 0 5.82 0 12.977c0 7.158 6.043 12.978 13.477 12.978 7.433 0 13.476-5.82 13.476-12.978C26.953 5.82 20.91 0 13.477 0z"/></g><g><path fill="#51d67e" d="M13.48 4.98c4.422 0 8 3.578 8 8 0 4.422-3.578 8-8 8-4.422 0-8-3.578-8-8 0-4.422 3.578-8 8-8z"/></g><g><path fill="#deffe9" d="M16.005 8.52c.926 0 1.684.73 1.684 1.622 0 .892-.758 1.622-1.684 1.622-.927 0-1.685-.73-1.685-1.622 0-.892.758-1.622 1.685-1.622z"/></g><g><path fill="#0fa944" d="M13.48 9.33c2.085 0 3.79 1.642 3.79 3.65 0 2.007-1.705 3.65-3.79 3.65-2.084 0-3.79-1.622-3.79-3.65 0-2.028 1.706-3.65 3.79-3.65z"/></g><g><path fill="#afe8c3" d="M14.467 9.45a1.507 1.507 0 0 0-.147.69c0 .892.758 1.622 1.685 1.622.337 0 .673-.102.926-.264-.442-.994-1.348-1.744-2.464-2.048z"/></g></g></g></svg>