<svg xmlns="http://www.w3.org/2000/svg" width="23" height="25" viewBox="0 0 23 25"><g><g><g><path fill="#18bb50" d="M16.99 23.203H5c-1.705 0-3.137-1.385-3.137-3.065V4.851c0-1.67 1.423-3.064 3.138-3.064h8.824v2.647c0 2.171 1.788 3.913 4.004 3.913h2.298v11.791c0 1.68-1.423 3.065-3.138 3.065zM15.641 3.155l3.226 3.408H17.82c-1.203 0-2.178-.948-2.178-2.127zM15.377.286A.921.921 0 0 0 14.721 0H5C2.282 0 .04 2.19.04 4.853v15.294C.04 22.81 2.282 25 4.999 25h11.982c2.716 0 4.959-2.19 4.959-4.853V7.474a.952.952 0 0 0-.265-.625z"/></g><g><path fill="#18bb50" d="M14.496 18.05H7.492a.905.905 0 0 0-.912.894c0 .491.41.893.912.893h7.013a.906.906 0 0 0 .912-.893.908.908 0 0 0-.92-.894z"/></g><g><path fill="#18bb50" d="M10.327 15.84c.174.18.41.287.666.287a.926.926 0 0 0 .665-.286L15 12.219a.878.878 0 0 0-.045-1.26.921.921 0 0 0-1.286.045l-1.765 1.959v-3.76a.905.905 0 0 0-.911-.893.905.905 0 0 0-.912.894v3.759l-1.756-1.96a.922.922 0 0 0-1.285-.044.879.879 0 0 0-.045 1.26z"/></g></g></g></svg>