<svg xmlns="http://www.w3.org/2000/svg" width="19" height="22" viewBox="0 0 21 24"><g><g><g><path fill="#18bb50" d="M18 2a1 1 0 0 1 1 1v18a1 1 0 0 1-1 1H3a1 1 0 0 1-1-1V3a1 1 0 0 1 1-1zM2.824.005A3 3 0 0 0 0 3v18a3 3 0 0 0 3 3h15a3 3 0 0 0 3-3V3a3 3 0 0 0-3-3H3z"/></g><g><path fill="#18bb50" d="M6 8a1 1 0 0 1 1-1h7a1 1 0 0 1 0 2H7a1 1 0 0 1-1-1z"/></g><g><path fill="#18bb50" d="M6 12a1 1 0 0 1 1-1h7a1 1 0 0 1 0 2H7a1 1 0 0 1-1-1z"/></g><g><path fill="#18bb50" d="M6 16a1 1 0 0 1 1-1h3a1 1 0 0 1 0 2H7a1 1 0 0 1-1-1z"/></g></g></g></svg>