<svg xmlns="http://www.w3.org/2000/svg" width="24" height="24" viewBox="0 0 24 24"><g><g><g><path fill="#d5d5e5" d="M12 21.818c-5.414 0-9.818-4.404-9.818-9.818S6.586 2.182 12 2.182 21.818 6.586 21.818 12 17.414 21.818 12 21.818zM12 0C5.383 0 0 5.383 0 12s5.383 12 12 12 12-5.383 12-12S18.617 0 12 0z"/></g><g><path fill="#d5d5e5" d="M12.004 5.09c-.802 0-1.454.653-1.454 1.455S11.202 8 12.004 8a1.456 1.456 0 0 0 0-2.909z"/></g><g><path fill="#d5d5e5" d="M12 10.18a1.09 1.09 0 0 0-1.09 1.09v6.546a1.09 1.09 0 0 0 2.182 0v-6.545A1.09 1.09 0 0 0 12 10.18z"/></g></g></g></svg>