<svg xmlns="http://www.w3.org/2000/svg" width="19" height="19" viewBox="0 0 19 19"><g><g><g><path fill="#1b1b1e" d="M17.219 12.868c0 2.17-1.865 3.935-4.157 3.935H5.939c-2.292 0-4.157-1.766-4.157-3.935V6.122c0-2.17 1.865-3.935 4.157-3.935h7.125c2.291 0 4.156 1.766 4.156 3.935zM13.062.5H5.939C2.658.5 0 3.019 0 6.125v6.75C0 15.981 2.659 18.5 5.938 18.5h7.125C16.34 18.5 19 15.981 19 12.875v-6.75C19 3.019 16.341.5 13.062.5z"/></g><g><path fill="#1b1b1e" d="M9.5 12.303c-1.636 0-2.969-1.26-2.969-2.808 0-1.549 1.333-2.807 2.969-2.807s2.969 1.258 2.969 2.807c0 1.548-1.333 2.808-2.969 2.808zM9.5 5C6.877 5 4.75 7.015 4.75 9.5S6.877 14 9.5 14s4.75-2.015 4.75-4.5S12.123 5 9.5 5z"/></g><g><path fill="#1b1b1e" d="M14.603 5.26c.35 0 .633-.27.633-.6 0-.332-.284-.6-.633-.6-.35 0-.633.268-.633.6 0 .33.283.6.633.6z"/></g></g></g></svg>