<?xml version="1.0" encoding="utf-8"?>
<!-- Generator: Adobe Illustrator 21.0.0, SVG Export Plug-In . SVG Version: 6.00 Build 0)  -->
<svg version="1.1" id="Слой_1" xmlns="http://www.w3.org/2000/svg" xmlns:xlink="http://www.w3.org/1999/xlink" x="0px" y="0px"
	 viewBox="0 0 2 23" style="enable-background:new 0 0 2 23;" xml:space="preserve">
<style type="text/css">
	.st0{fill:#EDEDF7;}
</style>
<g>
	<g>
		<path class="st0" d="M1,23c-0.6,0-1-0.4-1-1v-3c0-0.6,0.4-1,1-1s1,0.4,1,1v3C2,22.6,1.6,23,1,23z M1,17c-0.6,0-1-0.4-1-1v-3
			c0-0.6,0.4-1,1-1s1,0.4,1,1v3C2,16.6,1.6,17,1,17z M1,11c-0.6,0-1-0.4-1-1V7c0-0.6,0.4-1,1-1s1,0.4,1,1v3C2,10.6,1.6,11,1,11z
			 M1,5C0.4,5,0,4.6,0,4V1c0-0.6,0.4-1,1-1s1,0.4,1,1v3C2,4.6,1.6,5,1,5z"/>
	</g>
</g>
</svg>
