<svg xmlns="http://www.w3.org/2000/svg" width="20" height="18" viewBox="0 0 20 18"><g><g transform="rotate(-180 10 9)"><g><g><path fill="#a0a0ac" d="M8.963 16.14H2.741a.914.914 0 0 1-.914-.914V2.781c0-.504.41-.914.914-.914h6.222a.913.913 0 1 0 0-1.827H2.741A2.744 2.744 0 0 0 0 2.78v12.446c0 1.511 1.23 2.74 2.74 2.74h6.223a.913.913 0 1 0 0-1.826z"/></g><g><path fill="#a0a0ac" d="M19.729 8.345l-4.555-4.482a.913.913 0 1 0-1.283 1.301l2.97 2.918H8.224a.913.913 0 1 0 0 1.827h8.637l-2.97 2.917a.913.913 0 1 0 1.283 1.301l4.555-4.481a.915.915 0 0 0 0-1.301z"/></g></g></g></g></svg>