<svg xmlns="http://www.w3.org/2000/svg" width="22" height="18" viewBox="0 0 22 18"><g><g><g><path fill="#18bb50" d="M5.061 15.943a3 3 0 0 1-3-3V5.052a3 3 0 0 1 3-3h13.595l-7.513 6.935-3.644-3.5a1.032 1.032 0 0 0-1.454.114 1.017 1.017 0 0 0 .114 1.446l4.314 4.068c.012.011.023.017.029.023.011.011.023.017.034.028.017.012.04.029.063.04.006.006.017.011.023.017a.457.457 0 0 0 .092.046c.005.005.017.005.023.011.023.011.045.017.074.029.011.005.017.005.029.01l.068.018c.012 0 .023.006.029.006a.337.337 0 0 0 .074.011c.012 0 .018 0 .03.006a.626.626 0 0 0 .102.005c.035 0 .069 0 .103-.005.012 0 .017 0 .029-.006.023-.006.051-.006.074-.011.012 0 .023-.006.029-.006l.069-.017c.011-.006.017-.006.028-.011a.4.4 0 0 0 .075-.029c.005-.006.017-.006.023-.011a.684.684 0 0 0 .091-.046c.006-.006.017-.011.023-.017.023-.011.04-.028.063-.04a.152.152 0 0 0 .034-.028.125.125 0 0 0 .03-.023l8.119-7.453v9.28a3 3 0 0 1-3 3zM4 0a4 4 0 0 0-4 4v10a4 4 0 0 0 4 4h14a4 4 0 0 0 4-4V4a4 4 0 0 0-4-4z"/></g></g></g></svg>