<?xml version="1.0" encoding="UTF-8"?>
<svg width="25px" height="24px" viewBox="0 0 25 24" version="1.1" xmlns="http://www.w3.org/2000/svg" xmlns:xlink="http://www.w3.org/1999/xlink">
    <!-- Generator: Sketch 59 (86127) - https://sketch.com -->
    <title>paper-plane</title>
    <desc>Created with Sketch.</desc>
    <g id="Symbols" stroke="none" stroke-width="1" fill="none" fill-rule="evenodd">
        <g id="Send" transform="translate(-10.000000, -13.000000)">
            <g id="paper-plane">
                <g transform="translate(10.048592, 13.048688)" id="Path">
                    <path d="M14.6065312,17.4726125 C14.5390864,17.2395068 14.3668425,17.0521898 14.1416804,16.9637345 L10.1396052,15.4027589 C9.89991645,15.3091003 9.63013694,15.3392792 9.41846379,15.4860109 C9.20575303,15.631702 9.07916418,15.8720922 9.07916418,16.1301735 L9.07916418,23.1545638 C9.07916418,23.4917345 9.29498779,23.7904012 9.61457274,23.8965475 C9.69446898,23.9225638 9.77644044,23.9350516 9.8573743,23.9350516 C10.1001759,23.9350516 10.3346765,23.82058 10.4840928,23.6166125 L14.4861681,18.1531979 C14.6303963,17.9575556 14.6739761,17.7067589 14.6065312,17.4726125 L14.6065312,17.4726125 Z" fill="#0CB446"></path>
                    <path d="M24.5759216,0.144742619 C24.3372705,-0.0248833971 24.0239113,-0.0477777061 23.7645079,0.0885474972 L0.418204387,12.3161898 C0.142199199,12.4608402 -0.0207061189,12.7563849 0.00212137784,13.0675394 C0.0259864881,13.3797345 0.232471572,13.646141 0.52611619,13.7470841 L21.0189826,20.7714743 C21.1009541,20.7985312 21.1860384,20.8131003 21.2711227,20.8131003 C21.4122381,20.8131003 21.5523159,20.7745963 21.6757919,20.6996694 C21.8729385,20.578954 22.0067906,20.3760272 22.0410319,20.1481247 L24.894469,0.896092213 C24.9370111,0.604710099 24.8145727,0.315409286 24.5759216,0.144742619 Z" fill="#3FCC6F"></path>
                </g>
            </g>
        </g>
    </g>
</svg>