<svg xmlns="http://www.w3.org/2000/svg" width="24" height="17" viewBox="0 0 24 17"><g><g><g><path fill="#18bb50" d="M7.22 15.1h-.567c.269-1.072.605-2.566.605-3.323 0-.602-.044-1.085-.258-1.488-.192-.36-.592-.787-1.413-.792h-.041c-2.024-.04-3.671-1.744-3.671-3.799 0-2.094 1.68-3.799 3.745-3.799 2.065 0 3.745 1.705 3.745 3.8 0 4.716-1.537 8.207-2.145 9.402zM5.625 0C2.523 0 0 2.556 0 5.698c0 1.503.572 2.92 1.611 3.992a5.558 5.558 0 0 0 3.768 1.701c.007.09.012.215.012.386 0 .698-.525 2.833-.855 4.014L4.197 17h4.106l.275-.449c.109-.178 2.672-4.435 2.672-10.853C11.25 2.556 8.727 0 5.625 0z"/></g><g><path fill="#18bb50" d="M19.978 15.1h-.569c.27-1.072.607-2.566.607-3.323 0-.602-.044-1.085-.26-1.488-.191-.36-.592-.787-1.414-.792H18.3c-2.027-.04-3.676-1.744-3.676-3.799 0-2.094 1.682-3.799 3.75-3.799s3.75 1.705 3.75 3.8c0 4.716-1.54 8.207-2.147 9.402zM18.375 0c-3.102 0-5.625 2.556-5.625 5.698 0 1.503.572 2.92 1.611 3.992a5.558 5.558 0 0 0 3.768 1.701c.007.09.012.215.012.386 0 .698-.525 2.833-.855 4.014L16.947 17h4.106l.275-.449C21.437 16.373 24 12.116 24 5.698 24 2.556 21.477 0 18.375 0z"/></g></g></g></svg>