<svg xmlns="http://www.w3.org/2000/svg" width="24" height="24" viewBox="0 0 24 24"><g><g><g><path fill="#18bb50" d="M15.05 8.697c-1.88 0-3.41-1.53-3.41-3.41 0-1.882 1.53-3.412 3.41-3.412 1.881 0 3.411 1.53 3.411 3.411s-1.53 3.41-3.41 3.41zM16 19a1 1 0 0 0 1 1h6a1 1 0 0 0 0-2h-6a1 1 0 0 0-1 1zm-4 4a1 1 0 0 0 1 1h10a1 1 0 0 0 0-2H13a1 1 0 0 0-1 1zm-3.04-7.987a3.417 3.417 0 0 1-3.416-3.411c0-1.88 1.533-3.41 3.416-3.41a3.417 3.417 0 0 1 3.416 3.41c0 1.88-1.532 3.41-3.416 3.41zm9.46-5.657a5.278 5.278 0 0 0 1.917-4.07A5.292 5.292 0 0 0 15.05 0a5.292 5.292 0 0 0-5.168 6.397 5.292 5.292 0 0 0-6.213 5.205c0 1.635.746 3.099 1.916 4.07C2.313 17.005 0 20.221 0 23.967h1.875a7.088 7.088 0 0 1 7.08-7.08 5.292 5.292 0 0 0 5.169-6.397c.3.053.61.081.926.081 2.3 0 4.348 1.104 5.642 2.809l1.27-1.415a9 9 0 0 0-3.542-2.61z"/></g></g></g></svg>