<svg xmlns="http://www.w3.org/2000/svg" width="19" height="21" viewBox="0 0 19 21"><g><g><g><path fill="#18bb50" d="M18.673 3.267L14.957.205A.906.906 0 0 0 13.7.312a.86.86 0 0 0 .11 1.23l1.841 1.531H6.827C4.03 3.076 1.763 5.293 1.76 8.03v1.567c0 .481.4.872.892.872a.883.883 0 0 0 .893-.872V8.014c.003-1.772 1.47-3.207 3.282-3.21h8.83l-1.842 1.53a.86.86 0 0 0-.11 1.231.907.907 0 0 0 1.258.107l3.715-3.062a.86.86 0 0 0 0-1.338z"/></g><g><path fill="#18bb50" d="M16.318 10.47a.883.883 0 0 0-.892.873v1.582c-.003 1.772-1.47 3.208-3.282 3.21h-8.83l1.842-1.53a.863.863 0 0 0 .35-1.187.903.903 0 0 0-1.472-.13L.32 16.35a.86.86 0 0 0 0 1.338l3.715 3.062c.378.31.94.262 1.258-.107a.86.86 0 0 0-.11-1.23L3.34 17.88h8.804c2.797-.003 5.064-2.22 5.067-4.956v-1.582c0-.483-.4-.873-.893-.873z"/></g></g></g></svg>