<svg xmlns="http://www.w3.org/2000/svg" width="20" height="19" viewBox="0 0 20 19"><g><g><path fill="#515168" d="M14.296 12.9l.785 4.345c.02.114-.106.201-.215.147l-4.1-2.051a1.878 1.878 0 0 0-.724-.19h-.113a1.868 1.868 0 0 0-.724.19l-4.102 2.05c-.107.055-.233-.032-.213-.146l.783-4.345c.1-.56-.093-1.128-.52-1.525L1.713 8.144a.139.139 0 0 1 .078-.242l4.68-.473c.622-.086 1.131-.438 1.395-.946l2.06-4.884c0 .008.038-.015.1-.017-.018.002.022.025.047.074l2.007 4.77c.289.565.799.917 1.389 1l4.744.48c.089.013.137.154.05.235l-3.448 3.237a1.67 1.67 0 0 0-.518 1.521zm5.12-3.628c1.07-.997.477-2.732-1.007-2.937l-4.74-.48c-.016-.003-.057-.031-.078-.072L11.584 1.01A1.819 1.819 0 0 0 10.02 0c-.73.03-1.317.375-1.617.955L6.344 5.838c.005-.015-.037.014-.085.02l-4.677.473C.066 6.541-.527 8.277.547 9.274l3.439 3.23a.14.14 0 0 1 .045.13l-.782 4.343c-.254 1.408 1.299 2.481 2.627 1.816l4.099-2.05c.008-.002 4.11 2.05 4.11 2.05 1.328.665 2.88-.408 2.627-1.815l-.783-4.346a.136.136 0 0 1 .042-.124z"/></g></g></svg>