<svg xmlns="http://www.w3.org/2000/svg" width="11" height="13" viewBox="0 0 11 13"><g><g><g><path fill="#ff9f3c" d="M10.638.04a.578.578 0 0 0-.603.112L8.607 1.494C6.315-.067 3.085.115 1.02 2.054l-.584.549a1.035 1.035 0 0 0 0 1.528c.224.21.519.316.813.316.294 0 .589-.106.813-.316l.585-.55c1.164-1.093 2.937-1.267 4.3-.53L5.665 4.257a.497.497 0 0 0-.12.566c.086.194.287.32.51.32h4.37c.306 0 .554-.232.554-.518V.519c0-.21-.134-.4-.341-.48z"/></g><g><path fill="#ff9f3c" d="M8.926 8.852L8.34 9.4a3.661 3.661 0 0 1-2.52.98 3.719 3.719 0 0 1-1.781-.45l1.284-1.206a.495.495 0 0 0 .12-.565.555.555 0 0 0-.511-.32H.563c-.306 0-.553.232-.553.519v4.104c0 .21.135.399.341.48a.58.58 0 0 0 .603-.113l1.427-1.34a6.083 6.083 0 0 0 3.44 1.052c1.566 0 3.04-.573 4.147-1.614l.584-.548a1.035 1.035 0 0 0 0-1.528 1.204 1.204 0 0 0-1.626 0z"/></g></g></g></svg>