<?xml version="1.0" encoding="UTF-8"?>
<svg width="32px" height="30px" viewBox="0 0 32 30" version="1.1" xmlns="http://www.w3.org/2000/svg" xmlns:xlink="http://www.w3.org/1999/xlink">
    <!-- Generator: Sketch 59 (86127) - https://sketch.com -->
    <title>button (outline)</title>
    <desc>Created with Sketch.</desc>
    <defs>
        <path d="M10,0 C15.5228475,-1.01453063e-15 20,4.4771525 20,10 L20,20 L20,20 L10,20 C4.4771525,20 6.76353751e-16,15.5228475 0,10 C-6.76353751e-16,4.4771525 4.4771525,1.01453063e-15 10,0 Z" id="path-1"></path>
    </defs>
    <g id="Symbols" stroke="none" stroke-width="1" fill="none" fill-rule="evenodd">
        <g id="chat-button" transform="translate(-10.000000, -10.000000)">
            <g id="button-(outline)">
                <g transform="translate(10.000000, 10.000000)">
                    <g id="Rectangle-Copy-19">
                        <mask id="mask-2" fill="white">
                            <use xlink:href="#path-1"></use>
                        </mask>
                        <use id="Mask" fill="#51D67E" xlink:href="#path-1"></use>
                    </g>
                    <path d="M22.5,11 C27.7467051,11 32,15.2532949 32,20.5 L32,30 L32,30 L22.5,30 C17.2532949,30 13,25.7467051 13,20.5 C13,15.2532949 17.2532949,11 22.5,11 Z" id="Rectangle-Copy-24" fill="#18BB50" transform="translate(22.500000, 20.500000) scale(-1, 1) translate(-22.500000, -20.500000) "></path>
                    <rect id="Rectangle" fill="#FFFFFF" x="7" y="7" width="6" height="2" rx="1"></rect>
                    <rect id="Rectangle-Copy-20" fill="#FFFFFF" x="19" y="18" width="6" height="2" rx="1"></rect>
                    <rect id="Rectangle-Copy-18" fill="#FFFFFF" x="7" y="11" width="4" height="2" rx="1"></rect>
                    <rect id="Rectangle-Copy-21" fill="#FFFFFF" x="19" y="22" width="4" height="2" rx="1"></rect>
                </g>
            </g>
        </g>
    </g>
</svg>