<?xml version="1.0" encoding="UTF-8"?>
<svg width="27px" height="27px" viewBox="0 0 27 27" version="1.1" xmlns="http://www.w3.org/2000/svg" xmlns:xlink="http://www.w3.org/1999/xlink">
    <!-- Generator: Sketch 59 (86127) - https://sketch.com -->
    <title>Tether_Logo</title>
    <desc>Created with Sketch.</desc>
    <g id="Symbols" stroke="none" stroke-width="1" fill="none" fill-rule="evenodd">
        <g id="USDT-(inactive)" transform="translate(-5.000000, -5.000000)" fill-rule="nonzero">
            <g id="USDT">
                <g id="Tether_Logo" transform="translate(5.000000, 5.000000)">
                    <circle id="Oval" fill="#26A17B" cx="13.5" cy="13.5" r="13.5"></circle>
                    <g id="Group" transform="translate(5.000000, 7.000000)" fill="#FFFFFF">
                        <path d="M10.220974,8.60182857 L10.220974,8.59954286 C10.126039,8.6064 9.63590909,8.63611429 8.54525974,8.63611429 C7.67318182,8.63611429 7.06162338,8.61097143 6.84525974,8.59954286 L6.84525974,8.60182857 C3.49162338,8.44868571 0.990194805,7.84525714 0.990194805,7.12068571 C0.990194805,6.3984 3.49383117,5.79268571 6.84525974,5.63954286 L6.84525974,8.00068571 C7.06383117,8.01668571 7.69305195,8.05554286 8.56071429,8.05554286 C9.60279221,8.05554286 10.1238312,8.00982857 10.220974,8.00068571 L10.220974,5.64182857 C13.567987,5.79725714 16.0627922,6.40068571 16.0627922,7.12297143 C16.0627922,7.84525714 13.5657792,8.44868571 10.220974,8.60411429 M10.220974,5.39725714 L10.220974,3.28525714 L14.8904545,3.28525714 L14.8904545,0.0646857143 L2.17798701,0.0646857143 L2.17798701,3.28525714 L6.84746753,3.28525714 L6.84746753,5.39725714 C3.05227273,5.57782857 0.199805195,6.35497143 0.199805195,7.28754286 C0.199805195,8.22011429 3.05448052,8.99725714 6.84746753,9.18011429 L6.84746753,15.9504 L10.2231818,15.9504 L10.2231818,9.18011429 C14.0117532,8.99954286 16.8598052,8.2224 16.8598052,7.28982857 C16.8598052,6.35954286 14.0117532,5.58011429 10.2231818,5.39954286" id="Shape"></path>
                    </g>
                </g>
            </g>
        </g>
    </g>
</svg>