<?xml version="1.0" encoding="UTF-8" standalone="no"?>
<svg
   xmlns:dc="http://purl.org/dc/elements/1.1/"
   xmlns:cc="http://creativecommons.org/ns#"
   xmlns:rdf="http://www.w3.org/1999/02/22-rdf-syntax-ns#"
   xmlns:svg="http://www.w3.org/2000/svg"
   xmlns="http://www.w3.org/2000/svg"
   xmlns:sodipodi="http://sodipodi.sourceforge.net/DTD/sodipodi-0.dtd"
   xmlns:inkscape="http://www.inkscape.org/namespaces/inkscape"
   id="Layer_1"
   data-name="Layer 1"
   viewBox="0 0 100 100"
   version="1.1"
   sodipodi:docname="tinkoff.svg"
   width="100"
   height="100"
   inkscape:version="0.92.4 (5da689c313, 2019-01-14)">
  <metadata
     id="metadata95">
    <rdf:RDF>
      <cc:Work
         rdf:about="">
        <dc:format>image/svg+xml</dc:format>
        <dc:type
           rdf:resource="http://purl.org/dc/dcmitype/StillImage" />
        <dc:title>14</dc:title>
      </cc:Work>
    </rdf:RDF>
  </metadata>
  <sodipodi:namedview
     pagecolor="#ffffff"
     bordercolor="#666666"
     borderopacity="1"
     objecttolerance="10"
     gridtolerance="10"
     guidetolerance="10"
     inkscape:pageopacity="0"
     inkscape:pageshadow="2"
     inkscape:window-width="1920"
     inkscape:window-height="1016"
     id="namedview93"
     showgrid="false"
     inkscape:zoom="2.0838852"
     inkscape:cx="75.029999"
     inkscape:cy="-57.983978"
     inkscape:window-x="0"
     inkscape:window-y="27"
     inkscape:window-maximized="1"
     inkscape:current-layer="Layer_1" />
  <defs
     id="defs4">
    <style
       id="style2">.cls-1{fill:#222220;}.cls-2{fill:#fff;}.cls-3{fill:#fce527;}</style>
  </defs>
  <title
     id="title6">14</title>
  <g
     id="g937"
     style="opacity:1"
     transform="matrix(1.2612846,0,0,1.2612846,-44.577426,21.230098)">
    <path
       style="fill:#ffffff"
       inkscape:connector-curvature="0"
       id="path22"
       d="m 114.39,20.53 1,-3.36 -3.47,0.11 a 8.18,8.18 0 0 1 -4.45,-1.53 c 0.16,0 0.31,0 0.47,0 a 5.59,5.59 0 0 0 5,-3.12 l 1.49,-3.31 a 26.89,26.89 0 0 1 -3.59,-0.21 5.56,5.56 0 0 1 -2.92,-1.77 5.53,5.53 0 0 0 -4,-1.75 5.77,5.77 0 0 0 -1.75,0.28 6.44,6.44 0 0 0 0.2,-0.82 7.43,7.43 0 0 0 -1.52,-5.46 l -2.6,-3.23 -1.62,3.8 a 3.39,3.39 0 0 1 -1.14,1.34 7.05,7.05 0 0 0 -1.92,-3.57 8.62,8.62 0 0 0 -6.23,-2.6 7.78,7.78 0 0 0 -1.22,0.09 L 83,-3.97 a 10.85,10.85 0 0 1 1.28,-3 l 1.72,-2.75 -4.39,0.47 -1.39,-3 -2.7,1.39 -2.52,-2.39 -2.47,2.46 -2.71,-1.39 -1.39,2.93 -4.37,-0.5 1.74,2.74 a 10.72,10.72 0 0 1 1.27,3 l -3,-0.59 h -0.1 a 8,8 0 0 0 -1.26,-0.09 8.61,8.61 0 0 0 -6.23,2.6 7.06,7.06 0 0 0 -1.93,3.57 3.35,3.35 0 0 1 -1.13,-1.31 l -1.62,-3.81 -2.65,3.25 a 7.48,7.48 0 0 0 -1.49,5.44 6.72,6.72 0 0 0 0.2,0.82 5.7,5.7 0 0 0 -1.75,-0.28 5.54,5.54 0 0 0 -4,1.75 5.64,5.64 0 0 1 -2.89,1.77 20.38,20.38 0 0 1 -3.62,0.21 l 1.49,3.31 a 5.6,5.6 0 0 0 5,3.12 c 0.16,0 0.31,0 0.47,0 a 8.18,8.18 0 0 1 -4.45,1.56 l -3.53,-0.11 1.07,3.36 a 6.94,6.94 0 0 0 5.79,4.91 5.55,5.55 0 0 1 -3,4.09 l -2.63,1.08 1.44,2.5 a 6.37,6.37 0 0 0 5.42,2.93 8.28,8.28 0 0 0 1.7,-0.18 18.89,18.89 0 0 0 0.48,1.86 6.2,6.2 0 0 1 0.1,4.09 l -1.3,2.72 2.9,0.76 a 8.17,8.17 0 0 0 2,0.25 6.12,6.12 0 0 0 1.45,-0.19 6.49,6.49 0 0 0 1,-0.31 8.84,8.84 0 0 0 1.36,1.84 c 1.86,1.91 4.5,2.88 7.83,2.88 v 0 h 2.38 l -4.92,2 3.74,1.81 a 49.4,49.4 0 0 0 4.61,2 l -0.47,1.28 1.29,0.59 a 20.21,20.21 0 0 0 6.71,1.4 c 0,0 1,0 1.54,0 0.54,0 1.53,0 1.53,0 a 20.18,20.18 0 0 0 6.67,-1.39 l 1.29,-0.59 -0.47,-1.28 a 49.94,49.94 0 0 0 4.66,-2.07 l 3.67,-1.78 -4.91,-2 h 2.39 c 3.34,0 6,-1 7.84,-2.88 a 8.76,8.76 0 0 0 1.36,-1.84 6.75,6.75 0 0 0 1,0.31 6.19,6.19 0 0 0 1.42,0.16 8.29,8.29 0 0 0 2,-0.25 l 2.92,-0.77 -1.27,-2.67 a 6.16,6.16 0 0 1 0.08,-4.15 c 0.2,-0.61 0.38,-1.23 0.52,-1.84 a 8.37,8.37 0 0 0 1.71,0.18 6.33,6.33 0 0 0 5.43,-3 l 1.42,-2.47 -2.63,-1.08 a 5.53,5.53 0 0 1 -3,-4.09 7,7 0 0 0 5.79,-4.91 M 67.3,-2.82 Z"
       class="cls-2" />
    <path
       style="fill:#ffffff"
       inkscape:connector-curvature="0"
       id="path24"
       d="m 75,-2.97 c -2.79,0 -4.88,0.92 -5.33,2 l 5.33,2.1 5.34,-2.11 c -0.45,-1.08 -2.54,-2 -5.34,-2"
       class="cls-2" />
    <path
       style="fill:#ffffff"
       inkscape:connector-curvature="0"
       id="path26"
       d="M 75.07,52.75 H 75 a 21.83,21.83 0 0 1 -5.14,-0.66 l -1.38,3.66 a 23.61,23.61 0 0 0 13.08,0 L 80.21,52.1 a 21.89,21.89 0 0 1 -5.14,0.66"
       class="cls-2" />
    <path
       style="fill:#ffffff"
       inkscape:connector-curvature="0"
       id="path28"
       d="m 85.28,49.13 a 29.65,29.65 0 0 1 -4.55,1.82 l 1.09,3 a 27.29,27.29 0 0 0 5.06,-1.88 l -2.27,-0.75 z"
       class="cls-2" />
    <path
       style="fill:#ffffff"
       inkscape:connector-curvature="0"
       id="path30"
       d="m 64.76,49.13 0.67,2.19 -2.27,0.75 a 27.42,27.42 0 0 0 5.05,1.88 l 1.1,-3 a 29.71,29.71 0 0 1 -4.55,-1.82"
       class="cls-2" />
    <path
       style="fill:#ffffff"
       inkscape:connector-curvature="0"
       id="path32"
       d="m 75,-6.46 a 12.07,12.07 0 0 1 5.75,1.39 14.2,14.2 0 0 1 0.62,-1.69 l -0.6,0.07 -0.63,0.07 -0.27,-0.57 -0.8,-1.69 -1.46,0.76 -0.57,0.29 L 76.61,-8.25 75,-9.86 73.43,-8.25 73,-7.84 72.43,-8.13 70.96,-8.89 70.17,-7.2 69.9,-6.63 69.27,-6.7 68.67,-6.77 a 14.63,14.63 0 0 1 0.62,1.69 12.09,12.09 0 0 1 5.71,-1.38"
       class="cls-2" />
    <path
       style="fill:#ffffff"
       inkscape:connector-curvature="0"
       id="path34"
       d="m 107.12,13.12 a 2.5,2.5 0 0 0 0.83,0.14 3.13,3.13 0 0 0 2.73,-1.65 7.7,7.7 0 0 1 -4.53,-2.51 3,3 0 0 0 -2.21,-1 3.52,3.52 0 0 0 -1.84,0.56 c 2.83,1.51 3.41,3.93 5,4.47"
       class="cls-2" />
    <path
       style="fill:#ffffff"
       inkscape:connector-curvature="0"
       id="path36"
       d="m 42.1,13.26 a 2.44,2.44 0 0 0 0.82,-0.14 c 1.62,-0.54 2.2,-3 5,-4.47 a 3.52,3.52 0 0 0 -1.84,-0.56 3,3 0 0 0 -2.22,1 7.7,7.7 0 0 1 -4.52,2.51 3.13,3.13 0 0 0 2.73,1.65"
       class="cls-2" />
    <path
       style="fill:#ffffff"
       inkscape:connector-curvature="0"
       id="path38"
       d="M 107.88,22.95 H 108 c 3,0 4,-3.18 4,-3.18 h -0.06 a 10.75,10.75 0 0 1 -8.08,-4.09 c -2.05,-2.61 -3.74,-4.9 -7.06,-5.8 L 96.47,9.82 96.4,9.49 c -0.09,-0.51 0.26,-1 1,-1.5 4.59,-3 1.47,-6.83 1.47,-6.83 0,0 -1.31,3.06 -4.24,3.06 h -0.22 a 6.19,6.19 0 0 1 -1,-0.1 l -0.54,-0.1 a 4.36,4.36 0 0 0 -1.18,-4.36 6.1,6.1 0 0 0 -4.43,-1.84 4.85,4.85 0 0 0 -0.88,0.07 c 1,1.32 1.75,3.52 0.58,4.88 -1,1.17 -3.48,1.22 -3.48,3 0,0.74 0.69,1.59 1.92,2.36 3.71,2.34 7.39,5.44 8.93,9.59 1.91,5.18 -0.24,8.62 -3.32,10.6 a 4.34,4.34 0 0 0 2.36,1 c 0.29,0 0.56,0 0.82,0 a 7,7 0 0 0 4.48,-1.39 7.8,7.8 0 0 1 -1.67,3.7 7.64,7.64 0 0 1 -6.12,2.65 3.28,3.28 0 0 0 1.12,2.47 6.19,6.19 0 0 0 2.66,1 c 0,0 -3.48,0.71 -3.87,5.85 a 7.87,7.87 0 0 1 -0.92,3.75 h 0.06 c 8.08,0 7.87,-6.93 7.87,-6.93 a 3.92,3.92 0 0 0 2.82,2.59 3.36,3.36 0 0 0 0.84,0.1 5.83,5.83 0 0 0 1.36,-0.17 8.49,8.49 0 0 1 0,-6 14.14,14.14 0 0 0 0.81,-5 4.54,4.54 0 0 0 3.79,1.66 v 0 a 3.79,3.79 0 0 0 3.23,-1.7 c -5.39,-2.24 -4.85,-9.45 -4.85,-9.45 a 3.88,3.88 0 0 0 2.06,0.57 m -1.62,7.54 c -2.19,-1.08 -3.58,-3.95 -3.91,-5 C 102,31.2 99.21,35.14 96,38.94 a 12.16,12.16 0 0 0 -2.27,3.88 9,9 0 0 1 1.78,-3.93 c 3,-3.64 5.91,-8.17 6.12,-13.4 A 15.92,15.92 0 0 0 99.37,16.43 8.15,8.15 0 0 1 97.29,25 C 97.29,25 102.8,18.35 95,11.54 91.9,8.95 88.5,7.35 86.75,6.21 93.06,8.27 96.15,6 96.15,6 A 7.67,7.67 0 0 1 90,7.47 c 0.44,0.21 0.9,0.44 1.39,0.7 5.32,2.89 10.11,7.65 10.92,14.24 v -0.05 c 1.24,6.47 4,8.13 4,8.13"
       class="cls-2" />
    <path
       style="fill:#ffffff"
       inkscape:connector-curvature="0"
       id="path40"
       d="m 55.37,37.69 a 6.19,6.19 0 0 0 2.63,-0.94 3.28,3.28 0 0 0 1.17,-2.46 7.66,7.66 0 0 1 -6.13,-2.65 7.85,7.85 0 0 1 -1.78,-3.69 6.94,6.94 0 0 0 4.48,1.39 c 0.27,0 0.54,0 0.83,0 a 4.35,4.35 0 0 0 2.37,-1 c -3.08,-2 -5.24,-5.41 -3.33,-10.6 1.53,-4.15 5.22,-7.26 8.93,-9.59 1.23,-0.77 1.92,-1.63 1.92,-2.36 0,-1.74 -2.47,-1.79 -3.48,-3 -1.17,-1.36 -0.44,-3.55 0.57,-4.88 a 4.82,4.82 0 0 0 -0.88,-0.07 6.1,6.1 0 0 0 -4.43,1.84 4.35,4.35 0 0 0 -1.18,4.36 l -0.54,0.11 a 6.43,6.43 0 0 1 -1,0.1 h -0.21 c -2.94,0 -4.24,-3.06 -4.24,-3.06 0,0 -3.07,3.8 1.52,6.81 0.79,0.51 1.14,1 1,1.5 l -0.07,0.33 -0.33,0.06 c -3.32,0.9 -5,3.19 -7.06,5.8 A 10.74,10.74 0 0 1 38.1,19.75 H 38 c 0,0 1,3.18 4,3.18 h 0.14 a 3.88,3.88 0 0 0 2.06,-0.57 c 0,0 0.53,7.21 -4.86,9.45 a 3.8,3.8 0 0 0 3.23,1.7 v 0 a 4.54,4.54 0 0 0 3.79,-1.66 14.17,14.17 0 0 0 0.81,5 8.51,8.51 0 0 1 0,6 5.81,5.81 0 0 0 1.35,0.17 3.32,3.32 0 0 0 0.84,-0.1 3.92,3.92 0 0 0 2.82,-2.59 c 0,0 -0.21,6.93 7.87,6.93 h 0.06 A 7.92,7.92 0 0 1 59.2,43.51 c -0.38,-5.14 -3.87,-5.85 -3.87,-5.85 m -1.3,1.25 c -3.24,-3.8 -6,-7.74 -6.39,-13.43 -0.34,1 -1.72,3.9 -3.91,5 0,0 2.75,-1.66 4,-8.13 v 0.05 c 0.82,-6.59 5.6,-11.35 10.93,-14.24 0.49,-0.27 0.95,-0.49 1.39,-0.7 A 7.67,7.67 0 0 1 53.81,5.99 c 0,0 3.08,2.27 9.4,0.21 C 61.49,7.35 58.1,8.95 55,11.54 47.24,18.35 52.79,25 52.79,25 a 8.15,8.15 0 0 1 -2.08,-8.57 15.87,15.87 0 0 0 -2.26,9.06 c 0.21,5.24 3.09,9.76 6.11,13.4 a 9,9 0 0 1 1.79,3.93 12.28,12.28 0 0 0 -2.28,-3.88"
       class="cls-2" />
    <path
       style="fill:#ffffff"
       inkscape:connector-curvature="0"
       id="path42"
       d="m 69,12.35 c 0.13,0.14 0.26,0.3 0.39,0.45 l 0.09,0.11 0.35,0.48 0.08,0.11 c 0.13,0.2 0.26,0.42 0.39,0.63 a 5.89,5.89 0 0 0 4.7,3.23 5.89,5.89 0 0 0 4.69,-3.22 c 0.13,-0.22 0.26,-0.44 0.4,-0.64 l 0.06,-0.09 c 0.12,-0.17 0.24,-0.34 0.36,-0.5 l 0.08,-0.1 c 0.13,-0.16 0.26,-0.32 0.4,-0.46 l 0.06,-0.06 a 4.83,4.83 0 0 1 2.23,-1.33 l -0.4,-0.21 v 0 l -1.64,-1 -1.68,-1 -4.56,2.5 v 0 l -4.5,-2.45 -1.68,1 -1.64,1 v 0 l -0.42,0.24 A 4.83,4.83 0 0 1 69,12.28 l 0.07,0.07 m 4.15,-0.2 H 77 v 1.31 A 1.61,1.61 0 0 0 75.68,13.02 V 14.9 A 2.85,2.85 0 0 0 76,16.24 h -1.84 a 2.8,2.8 0 0 0 0.36,-1.33 v -1.88 a 1.61,1.61 0 0 0 -1.32,0.44 z"
       class="cls-2" />
    <path
       style="fill:#ffffff"
       inkscape:connector-curvature="0"
       id="path44"
       d="M 74.63,9.62 V 1.97 L 69.76,0.32 71,7.75 Z m -1,-5.77 V 5.08 L 73.39,4.97 a 3,3 0 0 1 -1,-0.57 2.22,2.22 0 0 1 -1,-1.49 z"
       class="cls-2" />
    <path
       style="fill:#ffffff"
       inkscape:connector-curvature="0"
       id="path46"
       d="m 79,7.75 1.28,-7.41 -4.87,1.65 v 7.65 z m -2.54,-3.9 2.21,-0.93 a 2.22,2.22 0 0 1 -1,1.49 3,3 0 0 1 -1,0.57 l -0.23,0.11 z"
       class="cls-2" />
    <path
       style="fill:#ffffff"
       inkscape:connector-curvature="0"
       id="path48"
       d="m 67.74,27.36 a 4.29,4.29 0 0 0 1.34,0.21 v -0.14 a 2.71,2.71 0 0 0 0.07,-0.27 7.68,7.68 0 0 0 0.12,-1.21 1.7,1.7 0 0 1 -0.64,-0.68 0.85,0.85 0 0 0 -0.82,-0.56 2.65,2.65 0 0 0 -1.24,0.43 2.17,2.17 0 0 0 1.12,2.21"
       class="cls-2" />
    <path
       style="fill:#ffffff"
       inkscape:connector-curvature="0"
       id="path50"
       d="m 78.51,23.3 c -0.9,1 -2.68,2.7 -2.76,2.78 l -0.11,0.11 -5.59,-0.09 a 5.76,5.76 0 0 1 -0.18,1.37 v 0.18 l 6.65,1.2 c 0.69,-0.48 2.6,-1.88 3.34,-2.42 a 3.24,3.24 0 0 1 -0.47,-2.37 3.34,3.34 0 0 1 -0.84,-0.75"
       class="cls-2" />
    <path
       style="fill:#ffffff"
       inkscape:connector-curvature="0"
       id="path52"
       d="M 79.27,16.57 A 5.71,5.71 0 0 1 75,18.47 v 0 a 5.9,5.9 0 0 1 -0.61,0 4.48,4.48 0 0 1 -0.6,-0.09 2.27,2.27 0 0 0 0.11,1.37 2.31,2.31 0 0 0 1.4,1.16 L 75.53,21 v 0.25 a 2.33,2.33 0 0 0 1.83,2.15 c 0.29,-0.3 0.55,-0.57 0.75,-0.79 a 1.84,1.84 0 0 1 0.35,-2.15 3,3 0 0 0 1.46,3 l 0.28,0.13 -0.08,0.3 a 2.36,2.36 0 0 0 1.47,2.93 l 0.37,0.14 -0.16,0.36 a 2.31,2.31 0 0 0 1.07,3 H 87 v -3.3 a 2.63,2.63 0 0 1 -2.26,-2.21 2.4,2.4 0 0 1 -1.58,-0.9 2,2 0 0 1 -0.1,-2.16 2.85,2.85 0 0 0 0.69,1.82 2.14,2.14 0 0 0 1.36,0.65 h 0.3 v 0.31 A 2,2 0 0 0 87,26.37 v -6.74 a 8.83,8.83 0 0 1 0.67,-3.06 z"
       class="cls-2" />
    <polygon
       transform="translate(0,-13.25)"
       style="fill:#ffffff"
       id="polygon54"
       points="69.06,31.89 68.1,32.91 67.98,37.2 68.47,37.27 69.66,33.16 "
       class="cls-2" />
    <path
       style="fill:#ffffff"
       inkscape:connector-curvature="0"
       id="path56"
       d="m 81.24,39.33 h 0.12 c 0.74,0.21 0.93,2.88 2.23,3.12 a 1.69,1.69 0 0 0 0.35,0 1,1 0 0 0 0.84,-0.45 c 0,0 -0.65,-1 -1.14,-1.72 -0.65,-0.91 -1.15,-2 -2.37,-2 h -0.09 a 1.22,1.22 0 0 0 -0.64,0.21 2.51,2.51 0 0 0 -1.36,-0.41 9.45,9.45 0 0 0 -1.64,0.35 v 0 l -2.7,-0.27 a 1.43,1.43 0 0 1 -0.88,-0.63 v -0.07 c 0,-0.07 0,-0.15 0,-0.22 a 3.19,3.19 0 0 0 -2.41,-3.17 c 0,0 0.07,-0.42 -0.09,-0.58 l -0.6,0.72 -2,-1 1.4,1.63 -1.26,1.4 a 0.37,0.37 0 0 0 -0.07,0.44 l 0.51,0.45 0.65,-0.39 a 0.3,0.3 0 0 1 0.16,0 c 0.18,0 0.45,0 0.69,0 0.24,0 0.49,-0.06 0.52,-0.3 -0.08,0.82 -0.84,2.24 -0.34,3.36 L 71.49,40.65 69.1,40.31 68,42.2 a 1.52,1.52 0 0 0 0,1.68 l 0.42,0.52 a 3.94,3.94 0 0 0 0.72,-1 L 68.95,43.19 A 0.4,0.4 0 0 1 68.9,42.67 l 0.7,-1.16 2.82,0.66 0.15,-0.25 a 0.82,0.82 0 0 1 0.77,-0.41 2.51,2.51 0 0 1 0.38,0 12.16,12.16 0 0 0 2.25,0.24 3.22,3.22 0 0 0 2.38,-0.73 c 1,1.52 3.09,1.76 2.93,2.53 l -0.55,2.59 c 0.36,0 0.71,0 1,-0.08 l 0.52,-2.7 c 0.06,-0.29 0.11,-0.69 0.11,-0.69 a 5,5 0 0 1 -1,-1.15 c -0.37,-0.7 -0.17,-1.07 -0.51,-2 a 0.4,0.4 0 0 1 0.34,-0.21 m -10.56,-3.8 a 0.24,0.24 0 0 1 -0.23,-0.26 0.24,0.24 0 0 1 0.26,-0.23 0.245,0.245 0 1 1 0,0.49"
       class="cls-2" />
    <path
       style="fill:#ffffff"
       inkscape:connector-curvature="0"
       id="path58"
       d="m 66.83,41.75 c 0,0 0.94,-0.39 1,-0.66 l -0.12,-0.31 a 0.42,0.42 0 0 1 0.09,-0.54 l 1,-0.7 1.69,0.32 A 1.43,1.43 0 0 1 70.21,38.97 L 68.6,38.63 67.08,39.55 A 1.47,1.47 0 0 0 66.6,41.3 Z"
       class="cls-2" />
    <path
       style="fill:#ffffff"
       inkscape:connector-curvature="0"
       id="path60"
       d="m 78.76,46.18 h 1 c 0,0 0.87,-2.54 0.92,-2.62 a 21.24,21.24 0 0 1 -1.89,-1 c 0.26,0.39 0.88,0.82 0.76,1.16 z"
       class="cls-2" />
    <path
       style="fill:#fce527"
       inkscape:connector-curvature="0"
       id="path62"
       d="M 87,31.13 H 63 v 9 c 0,3.69 2.67,6 6.61,6 3.29,0 4.16,0.13 5.39,1.34 a 4,4 0 0 1 3,-1.27 v -0.14 l 0.79,-2.31 -1.28,-1.46 a 4.63,4.63 0 0 1 -1.59,0.19 13,13 0 0 1 -2.38,-0.25 1.11,1.11 0 0 0 -0.25,0 c -0.11,0 -0.11,0 -0.14,0.06 l -0.15,0.25 -0.27,0.45 -0.52,-0.12 -2.3,-0.54 -0.32,0.52 v 0.06 l 0.28,0.31 -0.12,0.4 a 4.15,4.15 0 0 1 -0.89,1.31 l -0.58,0.62 -0.52,-0.66 -0.39,-0.49 a 2,2 0 0 1 -0.28,-1.92 v 0 l -0.65,0.27 -0.29,-0.63 -0.2,-0.45 a 2.19,2.19 0 0 1 0.73,-2.65 l 1.85,-1 1.76,0.35 c 0,-0.17 0.11,-0.77 0.16,-0.93 h -0.1 l -1,0.38 -1,-0.68 a 0.52,0.52 0 0 1 0,-0.74 l 0.95,-1.44 -2.41,-3 3.7,1.52 0.25,-0.3 0.5,-0.6 0.57,0.54 a 1.08,1.08 0 0 1 0.3,0.53 c 1,0.4 2.84,1.57 3,3.47 l -0.57,0.23 v 0 a 0.7,0.7 0 0 0 0.27,0.22 l 2.64,0.26 0.24,-0.07 a 4.27,4.27 0 0 1 1.4,-0.27 3.23,3.23 0 0 1 1.38,0.32 2.08,2.08 0 0 1 0.59,-0.12 h 0.13 a 3.26,3.26 0 0 1 2.68,1.9 l 0.29,0.42 c 0.49,0.7 1.14,1.71 1.16,1.76 l 0.29,0.45 -0.36,0.41 a 1.76,1.76 0 0 1 -1.39,0.69 2.56,2.56 0 0 1 -0.48,0 A 2.08,2.08 0 0 1 83,43.05 c 0,0.14 0,0.31 -0.08,0.45 l -0.46,2.41 A 5.64,5.64 0 0 0 87,40.15 Z"
       class="cls-3" />
    <path
       style="fill:#fce527"
       inkscape:connector-curvature="0"
       id="path64"
       d="m 63,30.4 h 18.69 a 3,3 0 0 1 -0.68,-3 3.11,3.11 0 0 1 -0.7,-0.46 c -0.73,0.54 -3,2.16 -3.54,2.57 l -0.12,0.08 -7.32,-1.32 h -0.15 a 6.1,6.1 0 0 1 -0.71,0 0.71,0.71 0 0 1 -0.69,0.56 H 67.66 A 0.73,0.73 0 0 1 67.06,28 v -0.16 a 2.93,2.93 0 0 1 -1.14,-3 L 66,24.75 66.11,24.67 c 0,0 0.14,-0.1 0.33,-0.2 l -0.53,-0.08 a 0.37,0.37 0 0 1 -0.3,-0.42 0.36,0.36 0 0 1 0.42,-0.3 l 1.27,0.2 0.12,-4.46 1.89,-2 1.18,2.48 -1.29,4.25 1.12,0.18 a 0.37,0.37 0 0 1 0.3,0.42 0.36,0.36 0 0 1 -0.36,0.3 H 70.2 l -0.91,-0.15 v 0.07 a 1,1 0 0 0 0.44,0.41 l 5.58,0.09 1.43,-1.41 a 3,3 0 0 1 -2,-2.49 2.93,2.93 0 0 1 -1.59,-1.45 3,3 0 0 1 -0.13,-2 6.52,6.52 0 0 1 -2.33,-1.56 H 62.36 A 9,9 0 0 1 63,19.63 Z"
       class="cls-3" />
    <path
       style="fill:#222220"
       inkscape:connector-curvature="0"
       id="path66"
       d="m 70.71,35.04 a 0.24,0.24 0 0 0 -0.26,0.23 0.24,0.24 0 0 0 0.23,0.26 0.245,0.245 0 1 0 0,-0.49"
       class="cls-1" />
    <path
       style="fill:#222220"
       inkscape:connector-curvature="0"
       id="path68"
       d="M 87,51.41 85.62,50.88 86,49.45 86.42,47.89 a 32.64,32.64 0 0 1 -5.9,2.33 c -1,0.28 -1.72,0.41 -1.72,0.41 v 1.06 a 24.84,24.84 0 0 1 -3.71,0.32 H 75 a 24.78,24.78 0 0 1 -3.71,-0.32 v -1.06 c 0,0 -0.74,-0.13 -1.72,-0.41 a 32.57,32.57 0 0 1 -5.9,-2.33 l 0.41,1.56 0.39,1.43 -1.39,0.53 -1.54,0.57 A 40.29,40.29 0 0 0 68,54.69 l -0.53,1.44 a 19.88,19.88 0 0 0 7.53,1.3 h 0.06 a 19.87,19.87 0 0 0 7.56,-1.3 l -0.53,-1.44 a 39.94,39.94 0 0 0 6.44,-2.7 z m -23.83,0.67 2.27,-0.75 -0.67,-2.19 a 29.68,29.68 0 0 0 4.55,1.82 l -1.1,3 A 27.51,27.51 0 0 1 63.17,52.08 M 75,56.68 A 25.22,25.22 0 0 1 68.48,55.75 L 69.83,52.1 A 21.87,21.87 0 0 0 75,52.75 h 0.11 a 21.93,21.93 0 0 0 5.14,-0.66 l 1.31,3.66 a 25.2,25.2 0 0 1 -6.54,0.92 m 6.8,-2.71 -1.1,-3 a 29.66,29.66 0 0 0 4.55,-1.82 l -0.67,2.19 2.27,0.75 a 27.39,27.39 0 0 1 -5.06,1.88"
       class="cls-1" />
    <path
       style="fill:#222220"
       inkscape:connector-curvature="0"
       id="path70"
       d="m 75,-5.57 a 10.37,10.37 0 0 1 6.33,1.92 12.53,12.53 0 0 1 1.67,-4.18 l -2.27,0.26 -1.22,-2.52 -2.28,1.17 -2.23,-2.18 -2.2,2.18 -2.27,-1.17 -1.18,2.52 -2.27,-0.26 a 12.5,12.5 0 0 1 1.63,4.18 10.39,10.39 0 0 1 6.29,-1.92 m -5.75,-1.12 0.63,0.07 0.27,-0.57 0.79,-1.69 1.47,0.76 0.57,0.29 0.45,-0.42 1.57,-1.61 1.61,1.61 0.45,0.45 0.57,-0.29 1.46,-0.76 0.8,1.69 0.27,0.57 0.63,-0.07 0.6,-0.07 a 14.2,14.2 0 0 0 -0.62,1.69 12.6,12.6 0 0 0 -11.49,0 14.63,14.63 0 0 0 -0.62,-1.69 z"
       class="cls-1" />
    <path
       style="fill:#222220"
       inkscape:connector-curvature="0"
       id="path72"
       d="m 108,23.93 c 3.64,0 4.86,-3.7 4.91,-3.86 l 0.41,-1.3 h -1.36 v 0 a 9.76,9.76 0 0 1 -7.34,-3.72 l -0.27,-0.34 c -1.86,-2.36 -3.62,-4.61 -6.78,-5.64 a 3.19,3.19 0 0 1 0.4,-0.3 5.93,5.93 0 0 0 2.89,-4 5.91,5.91 0 0 0 -1.2,-4.27 l -1,-1.25 -0.66,1.5 c 0,0.09 -1.11,2.47 -3.35,2.47 h -0.17 -0.44 a 5.4,5.4 0 0 0 -1.6,-4.24 7.1,7.1 0 0 0 -5.13,-2.13 6.79,6.79 0 0 0 -1.07,0.08 l -1.53,0.3 0.94,1.24 c 0.74,1 1.41,2.73 0.62,3.65 a 4.3,4.3 0 0 1 -1.28,0.77 c -1,0.47 -2.44,1.14 -2.44,2.82 0,1.09 0.85,2.23 2.38,3.19 4.53,2.85 7.32,5.82 8.53,9.1 1.87,5 -0.57,7.93 -2.94,9.44 l -1.06,0.68 0.93,0.85 a 5.34,5.34 0 0 0 2.94,1.25 c 0.32,0 0.62,0 0.91,0 a 9.33,9.33 0 0 0 2.74,-0.4 7,7 0 0 1 -0.77,1.09 6.69,6.69 0 0 1 -5.41,2.32 h -0.89 l -0.07,0.89 a 4.21,4.21 0 0 0 1.49,3.24 3.46,3.46 0 0 0 0.83,0.54 7.78,7.78 0 0 0 -2.35,5.47 7.54,7.54 0 0 1 -0.72,3.38 l -1,1.5 h 1.78 q 4.4,0 6.74,-2.41 a 7.63,7.63 0 0 0 1.76,-3 4.77,4.77 0 0 0 2,1 4.67,4.67 0 0 0 1.07,0.12 7,7 0 0 0 1.6,-0.19 l 1.13,-0.3 -0.5,-1.06 a 7.54,7.54 0 0 1 0,-5.24 17.25,17.25 0 0 0 0.77,-3.4 6.24,6.24 0 0 0 2.91,0.68 4.81,4.81 0 0 0 4.1,-2.18 l 0.55,-1 -1,-0.42 c -3.35,-1.39 -4.09,-5.12 -4.23,-7.14 a 6.24,6.24 0 0 0 1,0.12 z m 2.65,7.9 a 3.79,3.79 0 0 1 -3.23,1.7 v 0 a 4.55,4.55 0 0 1 -3.79,-1.66 14.15,14.15 0 0 1 -0.82,5 8.49,8.49 0 0 0 0,6 5.82,5.82 0 0 1 -1.36,0.17 3.37,3.37 0 0 1 -0.84,-0.1 3.92,3.92 0 0 1 -2.82,-2.59 c 0,0 0.21,6.93 -7.87,6.93 h -0.06 a 7.88,7.88 0 0 0 0.92,-3.75 c 0.38,-5.14 3.86,-5.85 3.86,-5.85 A 6.18,6.18 0 0 1 92,36.75 3.28,3.28 0 0 1 90.83,34.29 7.63,7.63 0 0 0 97,31.63 a 7.8,7.8 0 0 0 1.79,-3.69 6.94,6.94 0 0 1 -4.48,1.39 c -0.26,0 -0.54,0 -0.82,0 a 4.34,4.34 0 0 1 -2.36,-1 c 3.08,-2 5.23,-5.41 3.32,-10.6 C 92.92,13.58 89.23,10.47 85.52,8.14 84.29,7.37 83.6,6.51 83.6,5.78 c 0,-1.74 2.47,-1.79 3.48,-3 1.17,-1.36 0.44,-3.55 -0.58,-4.88 a 4.85,4.85 0 0 1 0.88,-0.07 6.1,6.1 0 0 1 4.43,1.84 4.36,4.36 0 0 1 1.18,4.36 l 0.54,0.11 a 6.3,6.3 0 0 0 1,0.1 h 0.22 c 2.93,0 4.24,-3.06 4.24,-3.06 0,0 3.11,3.83 -1.47,6.83 -0.79,0.51 -1.14,1 -1,1.5 l 0.07,0.33 0.33,0.06 c 3.32,0.9 5,3.19 7.06,5.8 a 10.75,10.75 0 0 0 7.96,4.05 H 112 c 0,0 -1,3.18 -4,3.18 h -0.14 a 3.88,3.88 0 0 1 -2.06,-0.57 c 0,0 -0.53,7.21 4.85,9.45"
       class="cls-1" />
    <path
       style="fill:#222220"
       inkscape:connector-curvature="0"
       id="path74"
       d="m 101.63,9.51 a 9,9 0 0 1 2.84,2.55 5.35,5.35 0 0 0 2.34,2 3.48,3.48 0 0 0 1.13,0.18 4.08,4.08 0 0 0 3.62,-2.22 l 0.58,-1.29 -1.41,-0.08 a 6.73,6.73 0 0 1 -3.89,-2.22 4,4 0 0 0 -2.91,-1.29 4.57,4.57 0 0 0 -2.4,0.73 l -1.29,0.91 z m 2.3,-1.42 a 3,3 0 0 1 2.21,1 7.7,7.7 0 0 0 4.53,2.51 3.14,3.14 0 0 1 -2.73,1.65 2.5,2.5 0 0 1 -0.83,-0.14 c -1.61,-0.54 -2.19,-3 -5,-4.47 a 3.51,3.51 0 0 1 1.84,-0.56"
       class="cls-1" />
    <path
       style="fill:#222220"
       inkscape:connector-curvature="0"
       id="path76"
       d="m 102.27,22.36 v 0 C 101.45,15.77 96.67,11.01 91.35,8.12 90.86,7.86 90.4,7.63 89.96,7.42 a 7.68,7.68 0 0 0 6.25,-1.47 c 0,0 -3.08,2.27 -9.4,0.21 1.75,1.13 5.14,2.73 8.25,5.33 7.75,6.81 2.21,13.46 2.21,13.46 a 8.15,8.15 0 0 0 2.08,-8.57 15.93,15.93 0 0 1 2.26,9.06 c -0.21,5.24 -3.09,9.76 -6.12,13.4 A 9,9 0 0 0 93.71,42.77 12.16,12.16 0 0 1 96,38.94 c 3.24,-3.8 6,-7.74 6.38,-13.43 0.34,1 1.72,3.9 3.91,5 0,0 -2.76,-1.66 -4,-8.13"
       class="cls-1" />
    <path
       style="fill:#222220"
       inkscape:connector-curvature="0"
       id="path78"
       d="m 61,46.75 a 7.77,7.77 0 0 1 -0.75,-3.27 7.78,7.78 0 0 0 -2.35,-5.47 3.41,3.41 0 0 0 0.83,-0.54 4.19,4.19 0 0 0 1.49,-3.24 l -0.06,-0.89 h -0.9 a 6.69,6.69 0 0 1 -5.4,-2.32 7.29,7.29 0 0 1 -0.86,-1.13 9.29,9.29 0 0 0 2.73,0.4 c 0.29,0 0.59,0 0.91,0 a 5.36,5.36 0 0 0 2.94,-1.26 l 0.93,-0.85 -1.06,-0.68 c -2.37,-1.52 -4.8,-4.4 -2.94,-9.44 1.21,-3.28 4,-6.25 8.53,-9.1 1.53,-1 2.37,-2.11 2.37,-3.19 0,-1.68 -1.4,-2.34 -2.43,-2.82 A 4.27,4.27 0 0 1 63.7,2.18 c -0.8,-0.92 -0.13,-2.69 0.61,-3.65 l 0.95,-1.24 -1.54,-0.3 A 6.72,6.72 0 0 0 62.66,-3.09 7.09,7.09 0 0 0 57.53,-0.96 5.41,5.41 0 0 0 56,3.23 H 55.56 55.4 c -2.25,0 -3.31,-2.38 -3.35,-2.47 l -0.63,-1.49 -1,1.25 a 5.94,5.94 0 0 0 -1.19,4.27 5.92,5.92 0 0 0 2.89,4 3,3 0 0 1 0.4,0.3 c -3.16,1 -4.92,3.28 -6.78,5.64 l -0.27,0.34 a 9.76,9.76 0 0 1 -7.35,3.72 l -1.42,-0.04 0.42,1.3 c 0,0.16 1.26,3.86 4.9,3.86 h 0.18 a 6.38,6.38 0 0 0 1,-0.12 c -0.15,2 -0.89,5.75 -4.24,7.14 l -1,0.42 0.55,1 a 4.81,4.81 0 0 0 4.11,2.19 6.25,6.25 0 0 0 2.9,-0.68 17.15,17.15 0 0 0 0.77,3.4 7.54,7.54 0 0 1 0,5.24 l -0.5,1.06 1.14,0.3 a 7,7 0 0 0 1.6,0.19 4.63,4.63 0 0 0 1.07,-0.12 4.75,4.75 0 0 0 2,-1 7.63,7.63 0 0 0 1.75,3 q 2.34,2.41 6.74,2.41 h 1.78 z m -0.86,0.55 c -8.08,0 -7.87,-6.93 -7.87,-6.93 a 3.92,3.92 0 0 1 -2.82,2.59 3.32,3.32 0 0 1 -0.84,0.1 5.78,5.78 0 0 1 -1.35,-0.17 8.51,8.51 0 0 0 0,-6 14.17,14.17 0 0 1 -0.81,-5 4.54,4.54 0 0 1 -3.79,1.66 v 0 a 3.8,3.8 0 0 1 -3.23,-1.7 c 5.38,-2.24 4.86,-9.45 4.86,-9.45 a 3.88,3.88 0 0 1 -2.06,0.57 H 42 c -3,0 -4,-3.18 -4,-3.18 h 0.06 a 10.74,10.74 0 0 0 8.07,-4.09 c 2.05,-2.61 3.74,-4.9 7.06,-5.8 l 0.33,-0.06 0.07,-0.33 c 0.09,-0.51 -0.26,-1 -1,-1.5 -4.58,-3 -1.47,-6.83 -1.47,-6.83 0,0 1.3,3.06 4.24,3.06 h 0.21 a 6.44,6.44 0 0 0 1,-0.1 l 0.54,-0.11 a 4.35,4.35 0 0 1 1.18,-4.36 6.1,6.1 0 0 1 4.43,-1.84 4.81,4.81 0 0 1 0.88,0.07 c -1,1.32 -1.74,3.52 -0.57,4.88 1,1.17 3.48,1.22 3.48,3 0,0.74 -0.69,1.59 -1.92,2.36 -3.71,2.34 -7.39,5.44 -8.93,9.59 -1.91,5.18 0.25,8.62 3.33,10.6 a 4.35,4.35 0 0 1 -2.37,1 c -0.29,0 -0.56,0 -0.83,0 a 6.94,6.94 0 0 1 -4.48,-1.39 7.85,7.85 0 0 0 1.78,3.69 7.66,7.66 0 0 0 6.13,2.65 3.28,3.28 0 0 1 -1.22,2.47 6.19,6.19 0 0 1 -2.67,1 c 0,0 3.48,0.71 3.87,5.85 a 7.92,7.92 0 0 0 0.91,3.75 z"
       class="cls-1" />
    <path
       style="fill:#222220"
       inkscape:connector-curvature="0"
       id="path80"
       d="m 42.1,14.22 a 3.48,3.48 0 0 0 1.13,-0.18 5.34,5.34 0 0 0 2.34,-2 9,9 0 0 1 2.84,-2.55 l 1.4,-0.75 -1.3,-0.91 A 4.56,4.56 0 0 0 46.11,7.1 4,4 0 0 0 43.2,8.39 6.73,6.73 0 0 1 39.31,10.61 l -1.41,0.14 0.58,1.29 a 4.08,4.08 0 0 0 3.62,2.21 m 1.79,-5.13 a 3,3 0 0 1 2.22,-1 3.52,3.52 0 0 1 1.89,0.53 c -2.83,1.51 -3.41,3.93 -5,4.47 a 2.44,2.44 0 0 1 -0.82,0.14 3.13,3.13 0 0 1 -2.73,-1.65 7.7,7.7 0 0 0 4.52,-2.51"
       class="cls-1" />
    <path
       style="fill:#222220"
       inkscape:connector-curvature="0"
       id="path82"
       d="M 48.45,25.49 A 15.87,15.87 0 0 1 50.71,16.43 8.15,8.15 0 0 0 52.79,25 C 52.79,25 47.24,18.35 55,11.54 58.1,8.95 61.49,7.35 63.24,6.21 56.93,8.27 53.84,6 53.84,6 a 7.67,7.67 0 0 0 6.24,1.47 c -0.44,0.21 -0.9,0.44 -1.39,0.7 -5.33,2.89 -10.11,7.65 -10.93,14.24 v -0.05 c -1.24,6.47 -4,8.13 -4,8.13 2.19,-1.08 3.57,-3.95 3.91,-5 0.37,5.69 3.14,9.63 6.39,13.43 a 12.27,12.27 0 0 1 2.28,3.88 9,9 0 0 0 -1.79,-3.93 c -3,-3.64 -5.9,-8.17 -6.11,-13.4"
       class="cls-1" />
    <path
       style="fill:#222220"
       inkscape:connector-curvature="0"
       id="path84"
       d="m 73.2,12.16 v 1.31 a 1.61,1.61 0 0 1 1.32,-0.44 v 1.88 a 2.8,2.8 0 0 1 -0.36,1.33 H 76 a 2.85,2.85 0 0 1 -0.36,-1.33 v -1.88 a 1.61,1.61 0 0 1 1.32,0.44 v -1.31 z"
       class="cls-1" />
    <path
       style="fill:#222220"
       inkscape:connector-curvature="0"
       id="path86"
       d="m 72.39,4.41 a 3,3 0 0 0 1,0.57 l 0.24,0.11 V 3.85 L 71.42,2.92 a 2.22,2.22 0 0 0 1,1.49"
       class="cls-1" />
    <path
       style="fill:#222220"
       inkscape:connector-curvature="0"
       id="path88"
       d="m 77.65,4.41 a 2.21,2.21 0 0 0 1,-1.49 l -2.21,0.93 v 1.23 l 0.23,-0.11 a 2.94,2.94 0 0 0 1,-0.57"
       class="cls-1" />
    <path
       style="fill:#222220"
       inkscape:connector-curvature="0"
       id="path90"
       d="m 81.64,-0.6 c 0,-1.87 -3.14,-3.55 -6.61,-3.55 v 0 c -3.47,0 -6.61,1.68 -6.61,3.55 l 0.07,0.46 1.39,8 -1.39,0.81 -3.63,2.08 v 0 c 0,0 -0.81,0.42 -1.19,0.67 -1.37,1 -1.66,2.34 -0.87,2.91 a 2.71,2.71 0 0 1 2.77,-2.32 3.6,3.6 0 0 1 2.87,1.56 7.4,7.4 0 0 1 0.54,0.76 c 0.21,0.34 0.42,0.64 0.62,0.93 h -9.24 a 10,10 0 0 1 1.33,4.4 v 20.49 c 0,5 3.82,7.34 8,7.34 3.19,0 3.62,-0.15 5.39,1.61 1.75,-1.76 2.18,-1.61 5.38,-1.61 4.13,0 7.95,-2.37 7.95,-7.34 V 19.63 a 10,10 0 0 1 1.33,-4.4 h -9.33 c 0.21,-0.29 0.42,-0.59 0.62,-0.93 a 8.62,8.62 0 0 1 0.54,-0.76 3.61,3.61 0 0 1 2.87,-1.56 2.72,2.72 0 0 1 2.77,2.32 c 0.8,-0.57 0.51,-2 -0.87,-2.91 C 86,11.13 85.17,10.75 85.17,10.75 v 0 l -3.6,-2.1 -1.39,-0.81 1.39,-8 z M 69.76,0.32 74.63,1.97 V 9.62 L 71,7.75 Z m 1,16.25 a 6.51,6.51 0 0 0 2.33,1.56 3,3 0 0 0 0.13,2 2.92,2.92 0 0 0 1.59,1.45 3,3 0 0 0 2,2.49 l -1.46,1.38 -5.58,-0.09 a 1,1 0 0 1 -0.44,-0.41 v -0.07 l 0.91,0.15 h 0.06 a 0.36,0.36 0 0 0 0.36,-0.3 0.37,0.37 0 0 0 -0.3,-0.42 l -1.12,-0.18 1.24,-4.29 -1.18,-2.48 -1.89,2 -0.12,4.46 -1.29,-0.2 a 0.36,0.36 0 0 0 -0.42,0.3 0.37,0.37 0 0 0 0.3,0.42 l 0.53,0.08 c -0.19,0.11 -0.32,0.19 -0.33,0.21 L 66,24.75 v 0.13 a 2.93,2.93 0 0 0 1.14,3 v 0.16 a 0.73,0.73 0 0 0 0.6,0.83 h 0.12 a 0.71,0.71 0 0 0 0.69,-0.56 6.07,6.07 0 0 0 0.71,0 h 0.15 l 7.32,1.32 0.12,-0.08 c 0.58,-0.41 2.81,-2 3.54,-2.57 a 3.12,3.12 0 0 0 0.7,0.46 3,3 0 0 0 0.68,3 H 63 V 19.63 a 8.94,8.94 0 0 0 -0.67,-3.06 z m 9,9.85 c -0.74,0.55 -2.65,1.94 -3.34,2.42 l -6.65,-1.2 v -0.18 a 5.79,5.79 0 0 0 0.18,-1.37 l 5.59,0.09 0.11,-0.11 c 0.08,-0.08 1.86,-1.8 2.76,-2.78 a 3.37,3.37 0 0 0 0.84,0.75 3.24,3.24 0 0 0 0.47,2.37 M 68.68,25.27 a 1.7,1.7 0 0 0 0.64,0.68 7.77,7.77 0 0 1 -0.12,1.21 c 0,0.09 0,0.18 -0.07,0.27 v 0.14 a 4.29,4.29 0 0 1 -1.34,-0.21 2.17,2.17 0 0 1 -1.12,-2.21 2.65,2.65 0 0 1 1.19,-0.4 0.84,0.84 0 0 1 0.81,0.56 M 68,23.94 l 0.11,-4.29 1,-1 0.6,1.26 -1.19,4.11 z m 11.76,22.22 h -1 l 0.79,-2.41 c 0.12,-0.34 -0.5,-0.78 -0.76,-1.17 a 20.87,20.87 0 0 0 1.89,1 c 0,0.08 -0.92,2.62 -0.92,2.62 m 2.49,-2.8 -0.52,2.7 c -0.33,0 -0.68,0.07 -1,0.08 l 0.55,-2.59 c 0.16,-0.77 -1.91,-1 -2.93,-2.53 a 3.21,3.21 0 0 1 -2.38,0.73 12.18,12.18 0 0 1 -2.25,-0.24 2.41,2.41 0 0 0 -0.38,0 0.82,0.82 0 0 0 -0.77,0.41 l -0.15,0.25 -2.82,-0.66 -0.7,1.16 a 0.41,0.41 0 0 0 0.05,0.52 l 0.19,0.21 a 3.94,3.94 0 0 1 -0.72,1 L 68,43.88 a 1.52,1.52 0 0 1 0,-1.68 l 1.12,-1.89 2.39,0.34 -0.37,-0.85 c -0.5,-1.12 0.26,-2.54 0.34,-3.36 0,0.25 -0.26,0.3 -0.52,0.3 -0.26,0 -0.51,0 -0.69,0 a 0.29,0.29 0 0 0 -0.16,0 L 69.46,37.13 69,36.68 a 0.37,0.37 0 0 1 0.07,-0.44 l 1.18,-1.33 -1.4,-1.63 2,1 0.6,-0.72 c 0.16,0.16 0.09,0.58 0.09,0.58 a 3.19,3.19 0 0 1 2.41,3.17 c 0,0.07 0,0.14 0,0.22 v 0.07 a 1.43,1.43 0 0 0 0.88,0.63 l 2.7,0.27 v 0 a 9.47,9.47 0 0 1 1.64,-0.35 2.5,2.5 0 0 1 1.36,0.41 1.21,1.21 0 0 1 0.64,-0.21 h 0.09 c 1.21,0 1.72,1.1 2.37,2 0.49,0.69 1.14,1.72 1.14,1.72 a 1,1 0 0 1 -0.84,0.45 1.75,1.75 0 0 1 -0.35,0 c -1.3,-0.24 -1.49,-2.91 -2.23,-3.12 h -0.12 a 0.4,0.4 0 0 0 -0.34,0.21 c 0.34,0.91 0.14,1.28 0.51,2 a 5,5 0 0 0 1,1.15 c 0,0 -0.05,0.39 -0.11,0.69 m -14.57,-2.64 0.12,0.31 c -0.08,0.27 -1,0.66 -1,0.66 l -0.2,-0.44 a 1.47,1.47 0 0 1 0.48,-1.75 l 1.52,-0.92 1.61,0.34 a 1.43,1.43 0 0 0 0.28,0.89 l -1.69,-0.32 -1,0.7 a 0.42,0.42 0 0 0 -0.09,0.54 M 82.53,45.92 83,43.5 c 0,-0.14 0.05,-0.31 0.07,-0.45 a 2.07,2.07 0 0 0 0.42,0.13 2.58,2.58 0 0 0 0.48,0 1.76,1.76 0 0 0 1.39,-0.69 l 0.36,-0.41 -0.29,-0.45 c 0,0 -0.67,-1.06 -1.16,-1.76 l -0.28,-0.42 a 3.26,3.26 0 0 0 -2.68,-1.9 h -0.13 a 2.05,2.05 0 0 0 -0.59,0.12 3.22,3.22 0 0 0 -1.38,-0.32 4.28,4.28 0 0 0 -1.4,0.27 l -0.24,0.07 -2.64,-0.26 A 0.71,0.71 0 0 1 74.66,37.2 v 0 l 0.57,-0.23 c -0.16,-1.9 -2,-3.07 -3,-3.47 a 1.08,1.08 0 0 0 -0.3,-0.54 l -0.57,-0.54 -0.5,0.6 -0.25,0.3 -3.7,-1.52 2.4,3 -0.95,1.44 a 0.52,0.52 0 0 0 0,0.74 l 1,0.68 1,-0.38 h 0.1 c 0,0.15 -0.11,0.76 -0.16,0.93 l -1.76,-0.35 -1.85,1 A 2.19,2.19 0 0 0 66,41.64 l 0.21,0.45 0.29,0.63 0.65,-0.27 v 0 a 2,2 0 0 0 0.28,1.92 l 0.39,0.49 0.52,0.66 0.58,-0.62 a 4.11,4.11 0 0 0 0.89,-1.31 l 0.12,-0.4 -0.28,-0.31 v -0.06 l 0.32,-0.52 2.3,0.54 0.52,0.12 0.28,-0.46 0.15,-0.25 c 0,-0.05 0,-0.06 0.14,-0.06 h 0.25 a 13,13 0 0 0 2.38,0.25 4.63,4.63 0 0 0 1.59,-0.19 l 1.21,1.5 -0.79,2.33 v 0.14 a 4,4 0 0 0 -3,1.27 c -1.23,-1.22 -2.09,-1.34 -5.39,-1.34 -3.94,0 -6.61,-2.31 -6.61,-6 v -9 h 24 v 9 a 5.64,5.64 0 0 1 -4.52,5.76 M 87.67,16.57 A 8.81,8.81 0 0 0 87,19.63 v 6.73 a 2,2 0 0 1 -1.58,-1.82 v -0.31 h -0.3 a 2.14,2.14 0 0 1 -1.36,-0.65 2.85,2.85 0 0 1 -0.7,-1.83 2,2 0 0 0 0.11,2.25 2.4,2.4 0 0 0 1.58,0.9 2.63,2.63 0 0 0 2.25,2.21 v 3.3 h -4.13 a 2.31,2.31 0 0 1 -1.07,-3 l 0.16,-0.36 -0.37,-0.14 a 2.36,2.36 0 0 1 -1.47,-2.93 l 0.08,-0.3 -0.28,-0.13 a 3,3 0 0 1 -1.46,-3 1.84,1.84 0 0 0 -0.35,2.15 c -0.2,0.22 -0.46,0.5 -0.75,0.79 A 2.33,2.33 0 0 1 75.53,21.33 V 21.05 L 75.3,20.96 a 2.32,2.32 0 0 1 -1.4,-1.21 2.27,2.27 0 0 1 -0.1,-1.46 4.28,4.28 0 0 0 0.6,0.09 5.92,5.92 0 0 0 0.61,0 v 0 a 5.71,5.71 0 0 0 4.24,-1.9 z m -6.45,-6.82 1.64,1 v 0 l 0.41,0.24 a 4.84,4.84 0 0 0 -2.23,1.33 L 81,12.35 c -0.14,0.15 -0.27,0.3 -0.4,0.46 l -0.08,0.1 q -0.19,0.24 -0.36,0.5 L 80.1,13.5 c -0.14,0.2 -0.27,0.42 -0.4,0.64 A 5.89,5.89 0 0 1 75,17.36 5.89,5.89 0 0 1 70.32,14.14 C 70.19,13.92 70.06,13.71 69.93,13.51 L 69.85,13.4 69.5,12.92 69.41,12.81 C 69.28,12.65 69.15,12.5 69.02,12.36 L 69,12.28 a 4.83,4.83 0 0 0 -2.23,-1.32 l 0.42,-0.24 v 0 l 1.64,-1 1.68,-1 4.49,2.53 v 0 L 79.5,8.8 Z M 79,7.75 75.41,9.64 V 1.97 l 4.87,-1.65 z m -4,-6.6 -5.33,-2.11 c 0.45,-1.07 2.55,-2 5.33,-2 2.78,0 4.88,0.92 5.34,2 z"
       class="cls-1" />
  </g>
</svg>
