<svg xmlns="http://www.w3.org/2000/svg" width="16" height="9" viewBox="0 0 16 9"><g><g><g><path fill="#1b1b1e" d="M13.277 5.155c-.259-.315-.185-.455 0-.736.003-.003 2.138-2.845 2.358-3.809h.002c.109-.352 0-.61-.529-.61h-1.75c-.445 0-.65.222-.76.47 0 0-.89 2.053-2.15 3.384-.407.385-.595.508-.817.508-.11 0-.28-.123-.28-.474V.609C9.351.19 9.227 0 8.858 0h-2.75c-.28 0-.446.196-.446.38 0 .399.63.49.695 1.614v2.439c0 .534-.1.632-.324.632-.594 0-2.038-2.062-2.893-4.422-.173-.457-.341-.642-.79-.642H.6C.1 0 0 .222 0 .47c0 .438.595 2.615 2.765 5.492C4.212 7.926 6.25 8.99 8.103 8.99c1.114 0 1.25-.236 1.25-.643 0-1.876-.101-2.053.457-2.053.259 0 .704.123 1.744 1.07 1.189 1.123 1.384 1.626 2.05 1.626h1.749c.498 0 .751-.236.606-.703-.333-.98-2.581-2.997-2.682-3.132z"/></g></g></g></svg>