<svg xmlns="http://www.w3.org/2000/svg" width="14" height="14" viewBox="0 0 14 14"><g><g><g><path fill="#ffa233" d="M6.872 3.43A3.447 3.447 0 0 0 3.43 6.873a3.447 3.447 0 0 0 3.442 3.443 3.447 3.447 0 0 0 3.443-3.443A3.447 3.447 0 0 0 6.872 3.43z"/></g><g><g><path fill="#ffa233" d="M6.872 2.418a.672.672 0 0 1-.672-.672V.672a.672.672 0 1 1 1.343 0v1.074c0 .371-.3.672-.671.672z"/></g><g><path fill="#ffa233" d="M6.872 11.33c-.371 0-.672.3-.672.672v1.074a.672.672 0 1 0 1.343 0v-1.074a.672.672 0 0 0-.671-.672z"/></g><g><path fill="#ffa233" d="M10.027 3.726a.672.672 0 0 1 0-.95l.76-.76a.672.672 0 0 1 .95.95l-.76.76a.672.672 0 0 1-.95 0z"/></g><g><path fill="#ffa233" d="M3.726 10.027a.671.671 0 0 0-.95 0l-.76.76a.672.672 0 0 0 .95.95l.76-.76a.67.67 0 0 0 0-.95z"/></g><g><path fill="#ffa233" d="M11.33 6.872c0-.371.3-.672.672-.672h1.074a.672.672 0 1 1 0 1.343h-1.074a.671.671 0 0 1-.672-.671z"/></g><g><path fill="#ffa233" d="M2.418 6.872c0-.371-.301-.672-.672-.672H.672a.672.672 0 1 0 0 1.343h1.074c.371 0 .672-.3.672-.671z"/></g><g><path fill="#ffa233" d="M10.017 10.027a.672.672 0 0 1 .95 0l.76.76a.671.671 0 1 1-.95.949l-.76-.76a.671.671 0 0 1 0-.95z"/></g><g><path fill="#ffa233" d="M3.727 3.726a.672.672 0 0 0 0-.95l-.76-.76a.672.672 0 0 0-.95.95l.76.76a.671.671 0 0 0 .95 0z"/></g></g></g></g></svg>