<?xml version="1.0" encoding="utf-8"?>
<!-- Generator: Adobe Illustrator 21.0.0, SVG Export Plug-In . SVG Version: 6.00 Build 0)  -->
<svg version="1.1" id="Слой_1" xmlns="http://www.w3.org/2000/svg" xmlns:xlink="http://www.w3.org/1999/xlink" x="0px" y="0px"
	 viewBox="0 0 200 263" style="enable-background:new 0 0 200 263;" xml:space="preserve">
<style type="text/css">
	.st0{fill:#FFCF01;}
	.st1{fill:#D3AC06;}
	.st2{fill:#231F20;}
</style>
<path class="st0" d="M0,130.4c0-14.8,1.2-24.1,31.8-47C57.1,64.6,138.3,0,138.3,0v107.8H200V263H19.3C8.7,263,0,254.3,0,243.7
	L0,130.4L0,130.4z"/>
<path class="st1" d="M138.3,107.8v62.5L24.9,247.5l143.4-46.6v-93.1L138.3,107.8z"/>
<path class="st2" d="M86.5,104.6c6.6-7.9,16.3-10.7,21.6-6.2c5.3,4.5,4.3,14.5-2.4,22.4c-6.6,7.9-16.3,10.7-21.6,6.2
	C78.8,122.5,79.8,112.5,86.5,104.6L86.5,104.6z"/>
</svg>
