<?xml version="1.0" standalone="no"?>
<!DOCTYPE svg PUBLIC "-//W3C//DTD SVG 1.1//EN" "http://www.w3.org/Graphics/SVG/1.1/DTD/svg11.dtd" >
<svg xmlns="http://www.w3.org/2000/svg">
<metadata>Generated by IcoMoon</metadata>
<defs>
<font id="icomoon" horiz-adv-x="1024">
<font-face units-per-em="1024" ascent="960" descent="-64" />
<missing-glyph horiz-adv-x="1024" />
<glyph unicode="&#x20;" horiz-adv-x="512" d="" />
<glyph unicode="&#xe900;" glyph-name="uniE900" horiz-adv-x="614" d="M339.968 822.784c44.39-4.096 81.562-13.466 111.616-28.16s54.272-32.768 72.704-54.272c18.432-21.504 31.59-45.056 39.424-70.656s11.776-51.354 11.776-77.312h-212.992c0 59.392-23.552 89.088-70.656 89.088-17.766 0-33.126-4.454-46.080-13.312s-19.456-23.194-19.456-43.008c0-18.432 8.192-33.792 24.576-46.080 14.336-10.752 34.918-21.248 61.85-31.488l11.878-4.352c30.72-10.906 61.594-22.528 92.672-34.816s59.034-27.29 83.968-45.056c24.452-17.388 44.648-39.054 59.879-64.074l0.537-0.95c15.36-25.6 23.040-56.832 23.040-93.696 0-68.25-21.504-122.214-64.512-161.792s-103.066-63.13-180.224-70.656v-108.544h-97.28v108.544c-76.442 8.192-136.55 34.304-180.224 78.336s-65.536 104.294-65.536 180.736h212.992c0-32.768 8.192-57.856 24.576-75.264s38.246-26.112 65.536-26.112c21.862 0 39.066 5.478 51.712 16.384s18.944 25.958 18.944 45.056c0 19.814-8.704 35.328-26.112 46.592-15.462 10.035-38.912 21.504-70.298 34.509l-12.134 4.915c-57.288 21.929-88.534 35.039-119.567 48.546l24.847-9.634c-30.493 12.866-56.796 28.318-80.723 46.708l0.851-0.628c-22.27 17.219-40.608 38.333-54.247 62.456l-0.537 1.032c-13.67 24.576-20.48 55.296-20.48 92.16 0 32.102 6.298 60.262 18.944 84.48s29.338 44.698 50.176 61.44c20.851 16.6 45.159 30.003 71.531 38.929l1.685 0.495c25.517 8.991 55.342 15.84 86.195 19.286l1.869 0.17v109.568h97.28z" />
<glyph unicode="&#xe901;" glyph-name="uniE901" horiz-adv-x="614" d="M339.968 822.784c44.39-4.096 81.562-13.466 111.616-28.16s54.272-32.768 72.704-54.272c18.432-21.504 31.59-45.056 39.424-70.656s11.776-51.354 11.776-77.312h-212.992c0 59.392-23.552 89.088-70.656 89.088-17.766 0-33.126-4.454-46.080-13.312s-19.456-23.194-19.456-43.008c0-18.432 8.192-33.792 24.576-46.080 14.336-10.752 34.918-21.248 61.85-31.488l11.878-4.352c30.72-10.906 61.594-22.528 92.672-34.816s59.034-27.29 83.968-45.056c24.452-17.388 44.648-39.054 59.879-64.074l0.537-0.95c15.36-25.6 23.040-56.832 23.040-93.696 0-68.25-21.504-122.214-64.512-161.792s-103.066-63.13-180.224-70.656v-108.544h-97.28v108.544c-76.442 8.192-136.55 34.304-180.224 78.336s-65.536 104.294-65.536 180.736h212.992c0-32.768 8.192-57.856 24.576-75.264s38.246-26.112 65.536-26.112c21.862 0 39.066 5.478 51.712 16.384s18.944 25.958 18.944 45.056c0 19.814-8.704 35.328-26.112 46.592-15.462 10.035-38.912 21.504-70.298 34.509l-12.134 4.915c-57.288 21.929-88.534 35.039-119.567 48.546l24.847-9.634c-30.493 12.866-56.796 28.318-80.723 46.708l0.851-0.628c-22.27 17.219-40.608 38.333-54.247 62.456l-0.537 1.032c-13.67 24.576-20.48 55.296-20.48 92.16 0 32.102 6.298 60.262 18.944 84.48s29.338 44.698 50.176 61.44c20.851 16.6 45.159 30.003 71.531 38.929l1.685 0.495c25.517 8.991 55.342 15.84 86.195 19.286l1.869 0.17v109.568h97.28z" />
<glyph unicode="&#xe902;" glyph-name="facebook" horiz-adv-x="585" d="M552.887 959.781l-137.655 0.219c-154.551 0-254.537-98.011-254.537-249.71v-115.127h-138.24c-0.132 0.003-0.287 0.005-0.443 0.005-11.562 0-20.964-9.251-21.207-20.755v-166.789c0.284-11.494 9.669-20.704 21.205-20.704 0.156 0 0.312 0.002 0.468 0.005h138.363v-421.010c0.324-11.462 9.693-20.63 21.203-20.63 0.131 0 0.263 0.001 0.393 0.004h180.57c0.133-0.003 0.29-0.005 0.447-0.005 11.511 0 20.88 9.169 21.203 20.601l0.001 0.030v421.010h161.719c0.132-0.003 0.288-0.005 0.445-0.005 11.536 0 20.922 9.21 21.205 20.678l0.001 0.026 0.073 166.766c-0.013 5.753-2.422 10.941-6.282 14.621l-0.008 0.008c-3.972 3.803-9.371 6.144-15.316 6.144-0.015 0-0.031 0-0.046 0h-161.863v97.573c0 46.885 11.703 70.729 75.557 70.729h92.818c0.111-0.002 0.241-0.003 0.372-0.003 11.536 0 20.921 9.209 21.205 20.676l0.001 0.026v154.917c-0.284 11.494-9.669 20.703-21.205 20.703-0.131 0-0.261-0.001-0.391-0.004h0.020z" />
<glyph unicode="&#xe903;" glyph-name="instagram" d="M928.013 266.483c0-116.952-100.514-212.076-224.040-212.076h-383.892c-123.527 0-224.040 95.178-224.040 212.076v363.574c0 116.952 100.514 212.076 224.040 212.076h384c123.473 0 223.987-95.178 223.987-212.076zM703.973 933.053h-383.892c-176.829 0-320.081-135.761-320.081-303.158v-363.789c0-167.397 143.306-303.158 320.027-303.158h384c176.613 0 319.973 135.761 319.973 303.158v363.789c0 167.397-143.306 303.158-320.027 303.158zM512 296.933c-88.172 0-160.013 67.907-160.013 151.336 0 83.483 71.842 151.283 160.013 151.283s160.013-67.8 160.013-151.283c0-83.429-71.842-151.336-160.013-151.336zM512 690.526c-141.366 0-256-108.598-256-242.526s114.634-242.526 256-242.526 256 108.598 256 242.526-114.634 242.526-256 242.526zM787.025 676.514c18.863 0 34.115 14.552 34.115 32.337 0 17.893-15.306 32.337-34.115 32.337-18.863 0-34.115-14.444-34.115-32.337 0-17.785 15.252-32.337 34.115-32.337z" />
<glyph unicode="&#xe904;" glyph-name="mail" horiz-adv-x="1252" d="M287.915 53.020c-94.257 0-170.667 76.41-170.667 170.667v0 448.91c0 94.257 76.41 170.667 170.667 170.667v0h773.404l-427.406-394.524-207.303 199.111c-10.187 8.735-23.528 14.051-38.111 14.051-17.813 0-33.773-7.933-44.54-20.459l-0.065-0.078c-8.808-10.098-14.179-23.393-14.179-37.943 0-17.751 7.994-33.634 20.578-44.247l0.087-0.071 245.419-231.424c0.683-0.626 1.308-0.967 1.65-1.308 0.626-0.626 1.308-0.967 1.934-1.593 0.967-0.683 2.276-1.65 3.584-2.276 0.341-0.341 0.967-0.626 1.308-0.967 1.505-0.994 3.231-1.875 5.054-2.558l0.179-0.059c0.284-0.284 0.967-0.284 1.308-0.626 1.308-0.626 2.56-0.967 4.21-1.65 0.626-0.284 0.967-0.284 1.65-0.569l3.868-1.024c0.683 0 1.308-0.341 1.65-0.341 1.246-0.344 2.689-0.569 4.175-0.625l0.035-0.001c0.683 0 1.024 0 1.707-0.341 1.393-0.193 3.003-0.303 4.639-0.303 0.409 0 0.817 0.007 1.223 0.021l-0.059-0.002c1.991 0 3.925 0 5.86 0.284 0.683 0 0.967 0 1.65 0.341 1.308 0.341 2.901 0.341 4.21 0.626 0.683 0 1.308 0.341 1.65 0.341l3.925 0.967c0.626 0.341 0.967 0.341 1.593 0.626 1.638 0.456 3.055 1.018 4.394 1.709l-0.127-0.060c0.284 0.341 0.967 0.341 1.308 0.626 2.023 0.845 3.725 1.722 5.348 2.714l-0.171-0.097c0.341 0.341 0.967 0.626 1.308 0.967 1.308 0.626 2.276 1.593 3.584 2.276 0.74 0.452 1.377 0.979 1.928 1.586l0.006 0.007c0.655 0.364 1.217 0.799 1.704 1.306l0.002 0.002 461.881 423.993v-527.929c0-94.257-76.41-170.667-170.667-170.667v0zM227.556 960c-125.675 0-227.556-101.88-227.556-227.556v0-568.889c0-125.675 101.88-227.556 227.556-227.556v0h796.444c125.675 0 227.556 101.88 227.556 227.556v0 568.889c0 125.675-101.88 227.556-227.556 227.556v0z" />
<glyph unicode="&#xe905;" glyph-name="moon" horiz-adv-x="951" d="M501.175-61.733c191.781-2.048 366.958 110.373 447.707 287.232-45.002-20.483-97.597-32.422-152.981-32.422-2.944 0-5.88 0.034-8.808 0.101l0.435-0.008c-217.381 0.219-393.509 179.419-393.728 400.457 1.771 153.128 85.998 286.188 210.286 357.033l2.048 1.075c-28.337 3.867-61.086 6.074-94.351 6.074-3.73 0-7.454-0.028-11.171-0.083l0.562 0.007c-276.773 0-501.175-228.206-501.175-509.733s224.402-509.733 501.175-509.733z" />
<glyph unicode="&#xe906;" glyph-name="phone" horiz-adv-x="725" d="M170.667 960h384c94.257 0 170.667-76.41 170.667-170.667v0-682.667c0-94.257-76.41-170.667-170.667-170.667v0h-384c-94.257 0-170.667 76.41-170.667 170.667v0 682.667c0 94.257 76.41 170.667 170.667 170.667v0zM170.667 874.667c-47.128 0-85.333-38.205-85.333-85.333v0-682.667c0-47.128 38.205-85.333 85.333-85.333v0h384c47.128 0 85.333 38.205 85.333 85.333v0 682.667c0 47.128-38.205 85.333-85.333 85.333v0zM298.667 170.667c0 35.346 28.654 64 64 64s64-28.654 64-64v0c0-35.346-28.654-64-64-64s-64 28.654-64 64v0z" />
<glyph unicode="&#xe907;" glyph-name="pluse" d="M438.857 886.857c0 40.396 32.747 73.143 73.143 73.143s73.143-32.747 73.143-73.143v0-365.714h365.714c40.396 0 73.143-32.747 73.143-73.143s-32.747-73.143-73.143-73.143v0h-365.714v-365.714c0-40.396-32.747-73.143-73.143-73.143s-73.143 32.747-73.143 73.143v0 365.714h-365.714c-40.396 0-73.143 32.747-73.143 73.143s32.747 73.143 73.143 73.143v0h365.714z" />
<glyph unicode="&#xe908;" glyph-name="refresh" horiz-adv-x="926" d="M910.531 800.695l-181.199 149.309c-7.55 6.208-17.314 9.971-27.957 9.971-13.281 0-25.193-5.861-33.292-15.137l-0.045-0.052c-6.325-7.302-10.179-16.895-10.179-27.388 0-13.123 6.028-24.839 15.467-32.528l0.076-0.060 89.771-74.654h-430.275c-136.387-0.146-246.93-108.251-247.077-241.713v-76.41c0-23.454 19.505-42.52 43.496-42.52 0.146-0.002 0.318-0.003 0.491-0.003 23.592 0 42.752 18.974 43.053 42.495v77.218c0.146 86.406 71.68 156.379 160.037 156.526h430.568l-89.819-74.606c-9.529-7.75-15.568-19.474-15.568-32.609 0-10.507 3.864-20.111 10.248-27.469l-0.044 0.052c8.152-9.331 20.073-15.193 33.363-15.193 10.651 0 20.423 3.765 28.057 10.037l-0.077-0.061 181.15 149.309c9.539 7.75 15.584 19.48 15.584 32.622s-6.045 24.872-15.507 32.561l-0.077 0.061zM795.697 449.463c-0.131 0.001-0.286 0.002-0.442 0.002-23.609 0-42.78-19.002-43.054-42.546v-77.167c-0.146-86.406-71.68-156.428-160.037-156.526h-430.568l89.819 74.606c13.469 7.198 22.478 21.165 22.478 37.237 0 7.586-2.007 14.704-5.52 20.85l0.109-0.206c-7.759 13.238-21.916 21.986-38.116 21.986-13.473 0-25.532-6.051-33.609-15.583l-0.053-0.064-181.102-149.309c-9.539-7.75-15.584-19.48-15.584-32.622s6.045-24.872 15.507-32.561l0.077-0.061 181.15-149.309c18.432-15.116 45.836-12.776 61.342 5.218 6.325 7.302 10.179 16.895 10.179 27.388 0 13.123-6.028 24.839-15.467 32.528l-0.076 0.060-89.868 74.752h429.3c136.387 0.146 246.93 108.251 247.077 241.664v77.141c0 23.552-19.505 42.569-43.544 42.569z" />
<glyph unicode="&#xe909;" glyph-name="telegram" horiz-adv-x="1260" d="M495.931 284.869l-20.795-285.066c29.775 0 42.614 12.524 58.132 27.412l139.5 129.969 289.241-206.297c53.012-28.751 90.427-13.627 104.763 47.498l189.834 866.304c16.857 76.406-28.357 106.26-80.030 87.513l-1115.845-415.98c-76.091-28.751-74.988-70.105-12.918-88.852l285.302-86.41 662.528 403.692c31.193 20.165 59.55 8.98 36.234-11.028z" />
<glyph unicode="&#xe90a;" glyph-name="to-arrow" horiz-adv-x="614" d="M593.715 498.586l-462.234 439.296c-13.775 13.085-32.444 21.134-52.992 21.134s-39.217-8.048-53.025-21.165l0.033 0.031c-13.564-12.867-22.004-31.023-22.004-51.149s8.439-38.281 21.972-51.119l0.031-0.029 409.293-388.096-409.293-388.096c-13.505-12.876-21.903-31.006-21.903-51.098s8.398-38.221 21.875-51.071l0.028-0.027c13.781-13.114 32.47-21.182 53.043-21.182s39.262 8.068 53.075 21.213l-0.032-0.030 462.234 439.091c13.385 12.972 21.692 31.116 21.692 51.2s-8.307 38.228-21.673 51.182l-0.019 0.018z" />
<glyph unicode="&#xe90b;" glyph-name="triangle" horiz-adv-x="1229" d="M702.259 82.432c-18.21-30.038-50.727-49.802-87.859-49.802s-69.649 19.764-87.603 49.347l-0.256 0.455-433.562 722.534c-9.147 15.026-14.562 33.198-14.562 52.634 0 56.554 45.846 102.4 102.4 102.4 0.080 0 0.159 0 0.239 0h866.702c0.006 0 0.014 0 0.021 0 56.554 0 102.4-45.846 102.4-102.4 0-19.436-5.415-37.608-14.819-53.088l0.256 0.454z" />
<glyph unicode="&#xe90c;" glyph-name="verified_users" d="M449.257 251.206l-223.418 209.548 74.473 69.632 148.945-139.45 260.655 232.727 74.473-69.911zM953.437 704.559l-129.396 57.53-57.716 129.489-140.753-14.708-114.595 83.13-114.688-83.13-140.847 14.708-57.53-129.396-129.489-57.716 14.708-140.753-83.13-114.781 83.13-114.502-14.708-140.847 129.396-57.53 57.716-129.489 140.753 14.708 114.688-83.13 114.595 83.13 140.847-14.708 57.53 129.396 129.489 57.716-14.708 140.753 83.13 114.595-83.13 114.688z" />
<glyph unicode="&#xe90d;" glyph-name="vk" horiz-adv-x="1820" d="M1510.628 373.476c-29.468 35.84-21.049 51.769 0 83.74 0.341 0.341 243.257 323.698 268.288 433.38h0.228c12.402 40.050 0 69.404-60.188 69.404h-199.111c-50.631 0-73.956-25.259-86.471-53.476 0 0-101.262-233.586-244.622-385.024-46.308-43.804-67.698-57.799-92.956-57.799-12.516 0-31.858 13.995-31.858 53.931v373.077c0 47.673-14.108 69.291-56.092 69.291h-312.889c-31.858 0-50.745-22.3-50.745-43.236 0-45.397 71.68-55.751 79.076-183.637v-277.504c0-60.757-11.378-71.908-36.864-71.908-67.584 0-231.879 234.61-329.159 503.125-19.684 51.996-38.798 73.045-89.884 73.045h-199.111c-56.889 0.114-68.267-25.145-68.267-53.362 0-49.835 67.698-297.529 314.596-624.868 164.636-223.46 396.516-344.519 607.346-344.519 126.748 0 142.222 26.852 142.222 73.159 0 213.447-11.492 233.586 51.996 233.586 29.468 0 80.1-13.995 198.428-121.742 135.282-127.772 157.468-185.003 233.244-185.003h198.997c56.661 0 85.447 26.852 68.949 79.986-37.888 111.502-293.66 340.992-305.152 356.352z" />
<glyph unicode="&#xe90e;" glyph-name="weather" d="M502.638 709.12c-138.984-0.208-251.591-112.841-251.758-251.815v-0.016c0.166-138.99 112.774-251.623 251.738-251.831h0.020c139.015 0.166 251.664 112.815 251.831 251.815v0.016c-0.166 139.015-112.815 251.664-251.815 251.831h-0.016zM502.638 783.141c-27.146 0-49.152 22.006-49.152 49.152v0 78.555c-0.023 0.565-0.037 1.229-0.037 1.896 0 27.146 22.006 49.152 49.152 49.152s49.152-22.006 49.152-49.152c0-0.667-0.013-1.33-0.040-1.99l0.003 0.095v-78.555c0-27.136-21.943-49.152-49.079-49.152zM502.638 131.291c-27.136 0-49.152-21.943-49.152-49.152v-78.555c-0.023-0.565-0.037-1.229-0.037-1.896 0-27.146 22.006-49.152 49.152-49.152s49.152 22.006 49.152 49.152c0 0.667-0.013 1.33-0.040 1.99l0.003-0.095v78.555c0 0 0 0 0 0 0 27.12-21.964 49.11-49.075 49.152h-0.004zM733.403 687.47c-8.887 8.893-14.383 21.176-14.383 34.743s5.496 25.849 14.384 34.743l55.588 55.588c8.789 8.337 20.695 13.464 33.798 13.464 27.146 0 49.152-22.006 49.152-49.152 0-13.103-5.127-25.008-13.484-33.819l0.021 0.022-55.589-55.589c-8.893-8.887-21.176-14.383-34.743-14.383s-25.849 5.496-34.743 14.384v0zM272.53 226.597c-8.885 8.905-21.171 14.414-34.743 14.414s-25.857-5.509-34.742-14.413l-55.59-55.59c-8.337-8.789-13.464-20.695-13.464-33.798 0-27.146 22.006-49.152 49.152-49.152 13.103 0 25.008 5.127 33.819 13.484l-0.022-0.021 55.589 55.589c8.922 8.877 14.444 21.165 14.444 34.743s-5.522 25.866-14.442 34.741l-0.002 0.002zM828.709 457.362c0 27.136 21.943 49.152 49.152 49.152h78.555c0.565 0.023 1.229 0.037 1.896 0.037 27.146 0 49.152-22.006 49.152-49.152s-22.006-49.152-49.152-49.152c-0.667 0-1.33 0.013-1.99 0.040l0.095-0.003h-78.555c-0.022 0-0.047 0-0.073 0-27.106 0-49.079 21.973-49.079 49.079 0 0 0 0 0 0v0zM176.859 457.362c0 27.136-22.016 49.152-49.152 49.152h-78.555c-0.565 0.023-1.229 0.037-1.896 0.037-27.146 0-49.152-22.006-49.152-49.152s22.006-49.152 49.152-49.152c0.667 0 1.33 0.013 1.99 0.040l-0.095-0.003h78.555c27.136 0 49.152 21.943 49.152 49.079zM732.672 226.597c8.893 8.887 21.176 14.383 34.743 14.383s25.849-5.496 34.743-14.384l55.588-55.588c8.876-8.885 14.365-21.155 14.365-34.706 0-27.122-21.986-49.108-49.108-49.108-13.57 0-25.854 5.504-34.742 14.401v0l-55.589 55.589c-8.905 8.885-14.414 21.171-14.414 34.743s5.509 25.857 14.413 34.742l0.001 0.001zM272.603 687.47c8.887 8.893 14.383 21.176 14.383 34.743s-5.496 25.849-14.384 34.743l-55.588 55.588c-8.789 8.337-20.695 13.464-33.798 13.464-27.146 0-49.152-22.006-49.152-49.152 0-13.103 5.127-25.008 13.484-33.819l-0.021 0.022 55.589-55.589c8.885-8.905 21.171-14.414 34.743-14.414s25.857 5.509 34.742 14.413l0.001 0.001z" />
<glyph unicode="&#xe90f;" glyph-name="bitcoin" horiz-adv-x="731" d="M391.997 213.406v0.683h-105.326v203.825h122.295c28.526 0 135.851-9.557 135.851-85.626s-50.907-118.882-152.82-118.882zM286.671 702.488h67.779c47.445 0 140.971-8.094 140.971-85.577 0.126-1.837 0.197-3.981 0.197-6.143 0-48.594-36.193-88.735-83.093-94.937l-0.487-0.053h-125.318zM598.504 490.569c49.077 28.051 81.617 80.079 81.617 139.706 0 9.212-0.777 18.243-2.268 27.030l0.133-0.946c-13.605 102.546-135.851 141.263-232.35 149.406v154.234h-95.037v-152.869h-63.878v152.869h-95.086v-152.869h-191.634v-98.499h71.339c31.939 0 47.543-9.509 47.543-35.304v-423.253c0-35.304-17.652-46.178-36.669-46.178h-72.704v-100.547h184.808v-156.233h95.768v156.233h63.878v-156.233h93.038v156.233h20.382c195.682 0 260.876 95.768 260.876 226.255-1.688 77.987-55.903 142.85-128.595 160.722l-1.16 0.241z" />
<glyph unicode="&#xe910;" glyph-name="credit-card" horiz-adv-x="1073" d="M980.846 766.659h-889.417v10.971c0 50.176 40.96 90.99 91.38 90.99h706.658c50.371 0 91.38-40.814 91.38-90.99zM889.905 960h-707.048c-100.945-0.111-182.746-81.913-182.857-182.847v-396.201c0.111-100.945 81.913-182.746 182.847-182.857h10.689c25.247 0 45.714 20.467 45.714 45.714s-20.467 45.714-45.714 45.714h-10.679c-50.472 0.055-91.373 40.956-91.429 91.423v293.844h889.905v-114.298c0.829-24.61 20.979-44.245 45.714-44.245s44.885 19.635 45.712 44.17l0.002 0.076v216.649c-0.111 100.945-81.913 182.746-182.847 182.857h-0.011zM633.417 418.84c-24.671 24.935-58.894 40.375-96.724 40.375-0.127 0-0.253 0-0.38-0.001h0.020c-0.093 0-0.202 0-0.312 0-37.83 0-72.054-15.441-96.713-40.363l-0.012-0.012-95.086-93.964c-8.395-8.291-13.594-19.8-13.594-32.524 0-25.242 20.462-45.704 45.704-45.704 12.518 0 23.86 5.032 32.114 13.184l-0.005-0.005 79.872 78.946v-357.278c0-25.247 20.467-45.714 45.714-45.714s45.714 20.467 45.714 45.714v361.813l84.456-83.48c8.235-8.201 19.593-13.271 32.136-13.271 12.736 0 24.25 5.227 32.516 13.654l0.007 0.007c8.165 8.251 13.21 19.603 13.21 32.134 0 12.725-5.202 24.235-13.595 32.519l-0.005 0.005zM1026.877 426.545c-0.014 0-0.032 0-0.049 0-25.234 0-45.69-20.456-45.69-45.69 0-0.017 0-0.034 0-0.051v0.003c-0.083-50.451-40.973-91.324-91.423-91.38h-10.635c-25.247 0-45.714-20.467-45.714-45.714s20.467-45.714 45.714-45.714h10.63c100.945 0.111 182.746 81.913 182.857 182.847v0.011c0 25.234-20.456 45.69-45.69 45.69v0z" />
<glyph unicode="&#xe911;" glyph-name="close" d="M602.172 448.301l402.432 402.432c11.603 11.588 18.78 27.604 18.78 45.297 0 35.356-28.661 64.017-64.017 64.017-17.663 0-33.655-7.153-45.237-18.721l-402.431-402.491-402.432 402.372c-11.585 11.608-27.603 18.789-45.297 18.789-35.344 0-63.996-28.652-63.996-63.996 0-17.649 7.145-33.63 18.7-45.208l402.491-402.371-402.492-402.613c-11.572-11.579-18.729-27.572-18.729-45.237 0-35.344 28.652-63.996 63.996-63.996 17.679 0 33.684 7.169 45.267 18.759l402.432 402.432 402.432-402.372c11.563-11.607 27.561-18.79 45.237-18.79s33.674 7.182 45.235 18.788l0.002 0.002c11.578 11.577 18.74 27.57 18.74 45.237s-7.161 33.66-18.739 45.237v0z" />
<glyph unicode="&#xe912;" glyph-name="block_icon" d="M834.37-64h-644.741c-53.096 0-98.607 22.756-136.533 53.096-30.341 37.926-53.096 83.437-53.096 136.533 0 30.341 7.585 60.681 22.756 83.437l326.163 644.741c22.756 45.511 60.681 75.852 106.193 98.607 45.511 15.17 98.607 7.585 144.119-15.17 37.926-15.17 68.267-45.511 83.437-83.437l326.163-644.741c22.756-45.511 22.756-98.607 7.585-144.119s-53.096-83.437-98.607-106.193c-22.756-15.17-53.096-22.756-83.437-22.756zM515.793 884.148c-15.17 0-30.341 0-37.926-7.585-30.341-7.585-53.096-30.341-68.267-53.096l-326.163-644.741c0-22.756-7.585-37.926-7.585-53.096 0-30.341 15.17-60.681 30.341-83.437s53.096-30.341 83.437-30.341h644.741c15.17 0 37.926 7.585 53.096 15.17 30.341 15.17 45.511 37.926 60.681 68.267 7.585 30.341 7.585 60.681-7.585 83.437l-326.163 644.741c-7.585 22.756-30.341 37.926-53.096 45.511-15.17 7.585-30.341 15.17-45.511 15.17zM477.867 618.667h75.852v-265.481h-75.852v265.481zM477.867 239.407h75.852v-75.852h-75.852v75.852z" />
<glyph unicode="&#xe913;" glyph-name="quote" horiz-adv-x="1446" d="M434.899 50.447h-34.153c16.203 64.572 36.442 154.564 36.442 200.162 0 36.262-2.65 65.355-15.541 89.63-11.565 21.685-35.659 47.405-85.112 47.706h-2.47c-121.916 2.409-221.124 105.050-221.124 228.834 0 126.133 101.195 228.834 225.581 228.834s225.581-102.701 225.581-228.894c0-284.070-92.582-494.351-129.205-566.332zM338.824 960c-186.85 0-338.824-153.961-338.824-343.221 0-90.534 34.455-175.887 97.039-240.459 57.757-60.014 137.515-98.497 226.254-102.435l0.712-0.025c0.422-5.421 0.723-12.951 0.723-23.251 0-42.044-31.624-170.647-51.501-241.784l-20.42-72.824h247.326l16.565 27.046c6.566 10.722 160.949 267.144 160.949 653.734 0 189.259-151.974 343.221-338.824 343.221zM1203.381 50.447h-34.274c16.264 64.572 36.563 154.564 36.563 200.162 0 36.262-2.65 65.355-15.661 89.63-11.505 21.685-35.659 47.405-85.173 47.706h-2.53c-122.097 2.409-221.425 105.050-221.425 228.834 0 126.133 101.316 228.834 225.882 228.834s225.882-102.701 225.882-228.894c0-284.070-92.762-494.351-129.325-566.332zM1106.824 960c-186.85 0-338.824-153.961-338.824-343.221 0-90.534 34.455-175.887 97.039-240.459 57.757-60.014 137.515-98.497 226.254-102.435l0.712-0.025c0.422-5.421 0.723-12.951 0.723-23.251 0-42.044-31.624-170.647-51.501-241.784l-20.42-72.824h247.326l16.565 27.046c6.566 10.722 160.949 267.144 160.949 653.734 0 189.259-151.974 343.221-338.824 343.221z" />
<glyph unicode="&#xe914;" glyph-name="star" horiz-adv-x="1078" d="M770.479 264.758l42.307-234.173c1.078-6.144-5.713-10.833-11.587-7.923l-220.968 110.538c-11.369 5.723-24.673 9.413-38.748 10.227l-0.272 0.013h-6.090c-14.346-0.811-27.652-4.503-39.599-10.504l0.579 0.264-221.076-110.484c-5.767-2.964-12.557 1.725-11.48 7.869l42.2 234.173c5.389 30.181-5.012 60.793-28.025 82.189l-185.398 174.134c-1.541 1.378-2.506 3.372-2.506 5.592 0 3.862 2.923 7.042 6.677 7.448l0.033 0.003 252.227 25.492c33.523 4.635 60.955 23.606 75.183 50.984l111.023 263.222c0-0.431 2.048 0.808 5.389 0.916-0.97-0.108 1.186-1.347 2.533-3.988l108.167-257.078c15.576-30.451 43.062-49.421 74.86-53.895l255.677-25.869c4.797-0.701 7.384-8.3 2.695-12.665l-185.829-174.457c-18.017-16.514-29.271-40.155-29.271-66.425 0-5.495 0.492-10.874 1.435-16.097l-0.082 0.548zM1046.42 460.288c57.667 53.733 25.708 147.24-54.272 158.289l-255.461 25.869c-0.862 0.162-3.072 1.671-4.204 3.88l-108.167 257.24c-15.872 31.514-47.413 53.058-84.113 54.428l-0.178 0.005c-39.343-1.617-70.979-20.211-87.148-51.469l-110.969-263.168c0.269 0.808-1.994-0.755-4.581-1.078l-252.066-25.492c-81.704-11.318-113.664-104.879-55.781-158.612l185.344-174.080c1.566-1.389 2.548-3.406 2.548-5.653 0-0.478-0.045-0.947-0.13-1.4l0.007 0.047-42.146-234.065c-13.689-75.884 70.009-133.713 141.581-97.873l220.915 110.484c0.431 0.108 221.507-110.484 221.507-110.484 71.572-35.84 155.217 21.989 141.581 97.819l-42.2 234.227c-0.072 0.385-0.113 0.828-0.113 1.28 0 2.136 0.913 4.058 2.371 5.398l0.005 0.005z" />
<glyph unicode="&#xe915;" glyph-name="course" d="M0 297.412c0 33.267 26.968 60.235 60.235 60.235s60.235-26.968 60.235-60.235v0-301.176c0-33.267-26.968-60.235-60.235-60.235s-60.235 26.968-60.235 60.235v0zM301.176 839.529c0 33.267 26.968 60.235 60.235 60.235s60.235-26.968 60.235-60.235v0-843.294c0-33.267-26.968-60.235-60.235-60.235s-60.235 26.968-60.235 60.235v0zM602.353 538.353c0 33.267 26.968 60.235 60.235 60.235s60.235-26.968 60.235-60.235v0-542.118c0-33.267-26.968-60.235-60.235-60.235s-60.235 26.968-60.235 60.235v0zM903.529 899.765c0 33.267 26.968 60.235 60.235 60.235s60.235-26.968 60.235-60.235v0-903.529c0-33.267-26.968-60.235-60.235-60.235s-60.235 26.968-60.235 60.235v0z" />
<glyph unicode="&#xe916;" glyph-name="price-up" d="M93.091-59.345c51.413 0 93.091 41.678 93.091 93.091v0 608.442l678.912-678.912c16.951-17.534 40.684-28.42 66.959-28.42 51.413 0 93.091 41.678 93.091 93.091 0 26.275-10.886 50.008-28.393 66.934l-0.026 0.025-678.912 678.912h608.442c51.413 0 93.091 41.678 93.091 93.091s-41.678 93.091-93.091 93.091v0h-740.073c-102.679 0-186.182-83.503-186.182-186.182v-740.073c0-51.413 41.678-93.091 93.091-93.091v0z" />
<glyph unicode="&#xe917;" glyph-name="price-down" d="M930.909 955.345c-51.413 0-93.091-41.678-93.091-93.091v0-608.442l-678.912 678.912c-16.951 17.534-40.684 28.42-66.959 28.42-51.413 0-93.091-41.678-93.091-93.091 0-26.275 10.886-50.008 28.393-66.934l0.026-0.025 678.912-678.912h-608.442c-51.413 0-93.091-41.678-93.091-93.091s41.678-93.091 93.091-93.091v0h740.073c102.679 0 186.182 83.503 186.182 186.182v740.073c0 51.413-41.678 93.091-93.091 93.091v0z" />
<glyph unicode="&#xe918;" glyph-name="logout" horiz-adv-x="1138" d="M627.883 854.187h353.963c28.717 0 51.996-23.28 51.996-51.996v0-707.982c0-28.672-23.324-51.996-51.996-51.996h-353.963c-28.701 0-51.968-23.267-51.968-51.968s23.267-51.968 51.968-51.968v0h353.963c86.060 0.097 155.803 69.82 155.932 155.863v708.051c0 85.959-69.973 155.876-155.876 155.876h-354.020c-28.685 0-51.94-23.254-51.94-51.94s23.254-51.94 51.94-51.94v0zM15.417 410.738l259.129-254.976c9.379-9.253 22.269-14.968 36.494-14.968 28.704 0 51.974 23.27 51.974 51.974 0 14.479-5.921 27.576-15.474 37.001l-0.006 0.006-168.96 166.002h491.349c28.701 0 51.968 23.267 51.968 51.968s-23.267 51.968-51.968 51.968v0h-491.349l168.96 165.945c9.559 9.43 15.48 22.527 15.48 37.006 0 28.704-23.27 51.974-51.974 51.974-14.225 0-27.115-5.715-36.5-14.973l-259.123-254.913c-9.539-9.439-15.446-22.533-15.446-37.006s5.907-27.567 15.442-37.002l0.004-0.004z" />
<glyph unicode="&#xe919;" glyph-name="uniE919" d="M1024 448c0-282.77-229.23-512-512-512s-512 229.23-512 512c0 282.77 229.23 512 512 512s512-229.23 512-512z" />
<glyph unicode="&#xe91a;" glyph-name="uniE91A" d="M577.27 368.286v0.087c-3.6-0.26-22.189-1.387-63.553-1.387-33.074 0-56.268 0.954-64.474 1.387v-0.087c-127.19 5.808-222.059 28.694-222.059 56.174 0 27.393 94.953 50.366 222.059 56.174v-89.549c8.29-0.607 32.153-2.081 65.060-2.081 39.522 0 59.283 1.734 62.967 2.081v89.462c126.939-5.895 221.556-28.78 221.556-56.174s-94.702-50.279-221.556-56.174zM577.27 489.823v80.1h177.094v122.143h-482.132v-122.143h177.094v-80.1c-143.936-6.848-252.119-36.322-252.119-71.691s108.266-64.842 252.119-71.778v-256.769h128.027v256.769c143.685 6.848 251.7 36.322 251.7 71.691 0 35.282-108.015 64.842-251.7 71.691z" />
<glyph unicode="&#xe91b;" glyph-name="uniE91B" horiz-adv-x="655" d="M326.935 179.328l-284.682 138.75 284.423-382.078 42.73 57.406v206.687z" />
<glyph unicode="&#xe91c;" glyph-name="uniE91C" horiz-adv-x="655" d="M326.677 960l-326.677-585.148h653.361z" />
<glyph unicode="&#xe91d;" glyph-name="uniE91D" horiz-adv-x="655" d="M653.361 373.984l-326.684 586.016v-586.016z" />
<glyph unicode="&#xe91e;" glyph-name="uniE91E" horiz-adv-x="655" d="M326.677 533.758l-1.283 0.609-325.072-160 325.362-160 1.283 0.609 42.441 20.734v277.156z" />
<glyph unicode="&#xe91f;" glyph-name="uniE91F" horiz-adv-x="655" d="M326.935 179.328l-0.258-243.328 284.627 382.336z" />
<glyph unicode="&#xe920;" glyph-name="uniE920" horiz-adv-x="655" d="M652.75 374.367l-327.357 160 0.29-320 1.283 0.609 326.074 159.391z" />
<glyph unicode="&#xe921;" glyph-name="uniE921" horiz-adv-x="1092" d="M341.333 960c188.513 0 341.333-152.82 341.333-341.333v-341.333h-341.333c-188.513 0-341.333 152.82-341.333 341.333s152.82 341.333 341.333 341.333z" />
<glyph unicode="&#xe922;" glyph-name="uniE922" horiz-adv-x="1092" d="M768 584.533c-179.088 0-324.267-145.179-324.267-324.267v-324.267h324.267c179.088 0 324.267 145.179 324.267 324.267s-145.179 324.267-324.267 324.267z" />
<glyph unicode="&#xe923;" glyph-name="uniE923" horiz-adv-x="1092" d="M273.067 721.067h136.533c18.851 0 34.133-15.282 34.133-34.133s-15.282-34.133-34.133-34.133h-136.533c-18.851 0-34.133 15.282-34.133 34.133s15.282 34.133 34.133 34.133z" />
<glyph unicode="&#xe924;" glyph-name="uniE924" horiz-adv-x="1092" d="M682.667 345.6h136.533c18.851 0 34.133-15.282 34.133-34.133s-15.282-34.133-34.133-34.133h-136.533c-18.851 0-34.133 15.282-34.133 34.133s15.282 34.133 34.133 34.133z" />
<glyph unicode="&#xe925;" glyph-name="uniE925" horiz-adv-x="1092" d="M273.067 584.533h68.267c18.851 0 34.133-15.282 34.133-34.133s-15.282-34.133-34.133-34.133h-68.267c-18.851 0-34.133 15.282-34.133 34.133s15.282 34.133 34.133 34.133z" />
<glyph unicode="&#xe926;" glyph-name="uniE926" horiz-adv-x="1092" d="M682.667 209.067h68.267c18.851 0 34.133-15.282 34.133-34.133s-15.282-34.133-34.133-34.133h-68.267c-18.851 0-34.133 15.282-34.133 34.133s15.282 34.133 34.133 34.133z" />
<glyph unicode="&#xe927;" glyph-name="uniE927" horiz-adv-x="1067" d="M625.285 212.425c-2.878 9.946-10.227 17.938-19.834 21.712l-170.755 66.602c-10.227 3.996-21.737 2.708-30.769-3.552-9.076-6.216-14.477-16.473-14.477-27.484v-299.707c0-14.386 9.208-27.129 22.844-31.658 3.409-1.11 6.906-1.643 10.36-1.643 10.36 0 20.365 4.884 26.74 13.587l170.755 233.106c6.154 8.347 8.013 19.048 5.135 29.038v0z" />
<glyph unicode="&#xe928;" glyph-name="uniE928" horiz-adv-x="1067" d="M1050.646 951.747c-10.182 7.237-23.552 8.214-34.62 2.398l-996.109-521.713c-11.776-6.172-18.727-18.782-17.753-32.058 1.018-13.32 9.828-24.687 22.357-28.994l874.362-299.707c3.497-1.154 7.128-1.776 10.758-1.776 6.021 0 11.998 1.643 17.266 4.84 8.412 5.151 14.123 13.809 15.584 23.533l121.747 821.42c1.815 12.432-3.409 24.776-13.591 32.058z" />
<glyph unicode="&#xe929;" glyph-name="history_icon" horiz-adv-x="884" d="M762.182 874.667c23.564 0 42.667-19.103 42.667-42.667v0-768c0-23.564-19.103-42.667-42.667-42.667v0h-640c-23.564 0-42.667 19.103-42.667 42.667v0 768c0 23.564 19.103 42.667 42.667 42.667v0zM114.672 959.787c-67.386-4.081-120.491-59.729-120.491-127.78 0-0.003 0-0.005 0-0.008v0-768c0-70.692 57.308-128 128-128v0h640c70.692 0 128 57.308 128 128v0 768c0 70.692-57.308 128-128 128v0h-640zM250.182 618.667c0 23.564 19.103 42.667 42.667 42.667v0h298.667c23.564 0 42.667-19.103 42.667-42.667s-19.103-42.667-42.667-42.667v0h-298.667c-23.564 0-42.667 19.103-42.667 42.667v0zM250.182 448c0 23.564 19.103 42.667 42.667 42.667v0h298.667c23.564 0 42.667-19.103 42.667-42.667s-19.103-42.667-42.667-42.667v0h-298.667c-23.564 0-42.667 19.103-42.667 42.667v0zM250.182 277.333c0 23.564 19.103 42.667 42.667 42.667v0h128c23.564 0 42.667-19.103 42.667-42.667s-19.103-42.667-42.667-42.667v0h-128c-23.564 0-42.667 19.103-42.667 42.667v0z" />
<glyph unicode="&#xe92a;" glyph-name="disput" horiz-adv-x="1122" d="M1016.978 37.278h-337.822v97.378h337.822zM1067.691 232.472h-439.198c-27.989 0-50.664-21.943-50.664-48.908v-195.682c0-27.014 22.674-48.908 50.712-48.908h439.101c27.989 0 50.712 21.943 50.712 48.908v195.682c0 27.014-22.723 48.908-50.712 48.908zM555.691 446.976l-262.729 253.611 14.921 14.385 104.497 100.937 262.778-253.708zM607.476 358.571l199.046 192.122c9.168 8.716 14.87 21.003 14.87 34.621s-5.702 25.905-14.85 34.602l-0.020 0.019c-9.304 8.859-21.924 14.31-35.817 14.31-7.917 0-15.42-1.77-22.136-4.936l0.317 0.134-266.923 257.658c3.117 6.162 4.943 13.434 4.943 21.132 0 13.568-5.672 25.811-14.774 34.488l-0.019 0.018c-9.307 8.872-21.936 14.331-35.84 14.331s-26.533-5.459-35.861-14.351l0.021 0.020-238.885-230.595c-9.152-8.714-14.844-20.991-14.844-34.597s5.692-25.882 14.825-34.578l0.020-0.019c9.239-8.919 21.833-14.415 35.711-14.415 7.964 0 15.504 1.809 22.234 5.040l-0.309-0.134 97.67-94.257-298.618-288.183c-9.152-8.714-14.844-20.991-14.844-34.597s5.692-25.882 14.825-34.578l0.020-0.019c9.899-9.557 22.918-14.336 35.84-14.336 12.971 0 25.941 4.779 35.84 14.336l298.569 288.28 97.621-94.257c-3.108-6.154-4.927-13.414-4.927-21.1 0-13.584 5.685-25.84 14.806-34.519l0.020-0.019c9.899-9.557 22.821-14.336 35.791-14.336s25.941 4.779 35.84 14.336l23.893 23.016z" />
<glyph unicode="&#xe92b;" glyph-name="credit_card_icon" horiz-adv-x="1472" d="M1245.538 844.308c31.268 0 56.615-25.348 56.615-56.615v0-679.385c0-31.268-25.348-56.615-56.615-56.615v0h-1075.692c-31.268 0-56.615 25.348-56.615 56.615v0 679.385c0 31.268 25.348 56.615 56.615 56.615v0zM159.882 957.255c-89.416-5.416-159.882-79.256-159.882-169.554 0-0.003 0-0.007 0-0.010v0.001-679.385c0-93.803 76.043-169.846 169.846-169.846v0h1075.692c93.803 0 169.846 76.043 169.846 169.846v0 679.385c0 93.803-76.043 169.846-169.846 169.846v0h-1075.692zM113.231 617.846c0 31.268 25.348 56.615 56.615 56.615v0h1075.692c31.268 0 56.615-25.348 56.615-56.615s-25.348-56.615-56.615-56.615v0h-1075.692c-31.268 0-56.615 25.348-56.615 56.615v0zM226.462 278.154c0 31.268 25.348 56.615 56.615 56.615v0h169.846c31.268 0 56.615-25.348 56.615-56.615s-25.348-56.615-56.615-56.615v0h-169.846c-31.268 0-56.615 25.348-56.615 56.615v0zM622.769 278.154c0 31.268 25.348 56.615 56.615 56.615v0h113.231c31.268 0 56.615-25.348 56.615-56.615s-25.348-56.615-56.615-56.615v0h-113.231c-31.268 0-56.615 25.348-56.615 56.615v0z" />
<glyph unicode="&#xe92c;" glyph-name="chat_icon" d="M512 33.524c228.909 0 414.476 185.567 414.476 414.476s-185.567 414.476-414.476 414.476c-228.909 0-414.476-185.567-414.476-414.476v0-414.476zM1024 448c0-282.77-229.23-512-512-512h-512v512c0 282.77 229.23 512 512 512s512-229.23 512-512zM341.333 521.143c0 26.93 21.831 48.762 48.762 48.762v0h195.048c26.93 0 48.762-21.831 48.762-48.762s-21.831-48.762-48.762-48.762v0h-195.048c-26.93 0-48.762 21.831-48.762 48.762v0zM341.333 326.095c0 26.93 21.831 48.762 48.762 48.762v0h97.524c26.93 0 48.762-21.831 48.762-48.762s-21.831-48.762-48.762-48.762v0h-97.524c-26.93 0-48.762 21.831-48.762 48.762v0z" />
<glyph unicode="&#xe92d;" glyph-name="cancel_icon" d="M512.241 63.398c-0.020 0-0.045 0-0.069 0-83.441 0-160.627 26.777-223.435 72.207l1.116-0.768 535.371 535.311c44.661-61.716 71.437-138.926 71.439-222.389v0c-0.24-212.181-172.181-384.122-384.339-384.361h-0.023zM128 448c0.24 211.981 172.019 383.76 383.977 384h0.023c0.008 0 0.018 0 0.028 0 83.366 0 160.483-26.755 223.234-72.146l-1.114 0.767-534.769-534.769c-44.624 61.636-71.379 138.753-71.379 222.119 0 0.010 0 0.020 0 0.029v-0.001zM512 960c-282.323 0-512-229.677-512-512s229.677-512 512-512c282.323 0 512 229.677 512 512s-229.677 512-512 512z" />
<glyph unicode="&#xe92e;" glyph-name="attach" horiz-adv-x="683" d="M584.899 515.34v-223.573c0-139.654-108.739-252.879-242.834-252.879-134.242 0-242.834 113.176-242.834 253.221v413.111c0 84.163 64.853 152.283 145.603 152.917 80.457-0.634 145.652-68.901 145.652-152.674v-410.234c0-28.038-21.943-50.859-48.859-50.859-26.965 0-48.811 22.674-48.811 50.712v459.776h-97.719v-459.776c0-84.309 65.585-152.576 146.53-152.576 80.896 0 146.578 68.413 146.578 152.722v410.234c0 139.654-108.251 253.269-242.2 254.537h-2.292c-134.193-1.268-242.249-114.786-242.249-254.781v-413.111c0-196.267 152.381-355.084 340.602-355.084 188.123 0 340.602 158.818 340.602 354.792v223.476z" />
<glyph unicode="&#xe92f;" glyph-name="qiwi" d="M481.28 960c-254.080 0-460.8-206.72-460.8-460.8s206.72-460.8 460.8-460.8c53.12 0 90.88 6.080 124.080 11.44 29.040 4.64 56.48 9.040 90.96 9.040 167.2 0 270.32-114.72 271.28-115.92 4.080-4.56 9.76-6.96 15.44-6.96 3.84 0 7.68 1.040 11.040 3.28 8.48 5.44 11.76 16.32 7.6 25.52-2.24 5.12-57.84 125.12-280.96 176.72l-6.080 1.68c-55.12 13.68-99.6 35.92-132.24 66.080-42.16 38.96-50.16 78.24-50.24 78.48-1.92 10.48-11.6 17.68-22 16.8-10.56-0.96-18.64-9.76-18.64-20.4 0-2.080 0.16-42.8 7.28-81.28-6.16-0.4-11.92-0.64-17.52-0.64-163.76 0-296.96 133.2-296.96 296.96s133.2 296.96 296.96 296.96c163.76 0 296.96-133.2 296.96-296.96 0-12.24-0.8-24.56-2.32-36.88-38.64 6.16-77.040 6.16-79.6 6.16-11.92 0-20.48-10.24-20.48-20.88 0.24-11.12 9.28-20.080 20.4-20.080 0.48 0 43.040-0.4 81.2-24.96 63.2-40.56 78.32-101.92 78.48-102.48 1.92-8.4 8.88-14.72 17.52-15.76 8.56-0.88 16.88 3.44 20.8 11.2 31.76 64.24 47.84 132.8 47.84 203.68 0 254.080-206.72 460.8-460.8 460.8zM791.28 304.56c-5.040 0.32-8.96-1.84-11.12-5.6-4.32-7.6-1.12-22.64 7.6-35.76 8.88-13.28 16.4-20 22.4-20 5.52 0 10.96 6.88 8.4 23.44-1.52 9.92-7.28 31.52-22 36.8-1.84 0.72-3.68 1.040-5.36 1.12zM724.32 243.2c-9.2 0-16.88-2.4-21.52-6.96-12.16-11.84-6.72-32.64 11.84-45.52 8.080-5.6 19.68-8.96 31.12-8.96 11.6 0 21.28 3.44 27.28 9.76 10.72 11.44 4.56 27.68-15.76 41.36-10.080 6.72-21.76 10.32-32.96 10.32z" />
<glyph unicode="&#xe930;" glyph-name="uniE930" horiz-adv-x="779" d="M0 452.283c0 57.624 4.672 93.834 123.814 182.996 98.506 73.198 414.662 324.721 414.662 324.721v-419.723h240.231v-604.277h-703.562c-41.271 0-75.145 33.874-75.145 75.145v441.138z" />
<glyph unicode="&#xe931;" glyph-name="uniE931" horiz-adv-x="779" d="M538.476 540.277v-243.346l-441.527-300.581 558.333 181.439v362.488h-116.806z" />
<glyph unicode="&#xe932;" glyph-name="uniE932" horiz-adv-x="779" d="M336.791 552.736c25.697 30.759 63.465 41.661 84.1 24.14s16.742-56.456-9.344-87.215c-25.697-30.759-63.465-41.661-84.1-24.14s-16.742 56.456 9.344 87.215v0z" />
<glyph unicode="&#xe933;" glyph-name="block-icon" d="M1023.808 685.824v-171.392c0-0.019 0-0.042 0-0.064 0-23.505-19.055-42.56-42.56-42.56-0.023 0-0.045 0-0.068 0h0.003c-0.038 0-0.083 0-0.128 0-23.505 0-42.56 19.055-42.56 42.56 0 0.023 0 0.045 0 0.068v-0.003 171.392c0 104.064-77.056 188.672-171.968 188.672-94.848 0-171.968-84.608-171.968-188.672v-128.768h84.416c23.616 0 42.624-19.008 42.624-42.624v-535.808c0-0.019 0-0.042 0-0.064 0-23.505-19.055-42.56-42.56-42.56-0.023 0-0.045 0-0.068 0h-636.349c-0.019 0-0.042 0-0.064 0-23.505 0-42.56 19.055-42.56 42.56 0 0.023 0 0.045 0 0.068v-0.003 535.808c0 23.68 19.008 42.624 42.624 42.624h466.432v128.768c0 151.296 115.584 274.176 257.472 274.176s257.472-122.88 257.28-274.176zM636.16 21.248v450.56h-550.912v-450.56zM360.704 105.6c0.019 0 0.042 0 0.064 0 23.505 0 42.56 19.055 42.56 42.56 0 0.023 0 0.045 0 0.068v-0.003 76.672c0 0.019 0 0.042 0 0.064 0 23.505-19.055 42.56-42.56 42.56-0.023 0-0.045 0-0.068 0h0.003c-0.019 0-0.042 0-0.064 0-23.505 0-42.56-19.055-42.56-42.56 0-0.023 0-0.045 0-0.068v0.003-76.672c0-0.038 0-0.083 0-0.128 0-23.505 19.055-42.56 42.56-42.56 0.023 0 0.045 0 0.068 0h-0.003z" />
<glyph unicode="&#xe934;" glyph-name="block_icon_active" horiz-adv-x="832" d="M87.168 24v442.368h595.456v-442.368zM236.8 721.856c0.145 82.404 66.908 149.167 149.298 149.312h0.014c82.404-0.145 149.167-66.908 149.312-149.298v-168.974h-298.624zM723.968 552.896h-103.936v171.008c-0.327 130.238-105.799 235.733-235.997 236.096h-0.035c-130.21-0.254-235.705-105.705-236.032-235.873v-171.039h-103.936c-23.913-0.072-43.283-19.42-43.392-43.318v-528.522c0.073-23.936 19.457-43.319 43.385-43.392h679.815c23.936 0.073 43.319 19.457 43.392 43.385v528.519c-0.181 23.84-19.531 43.1-43.389 43.136h-0.003zM383.872 91.84c23.936 0.073 43.319 19.457 43.392 43.385v112.647c0 23.965-19.427 43.392-43.392 43.392s-43.392-19.427-43.392-43.392v0-112.64c0.073-23.936 19.457-43.319 43.385-43.392h0.007z" />
<glyph unicode="&#xe935;" glyph-name="uniE935" d="M591.649 744.213c18.177 18.177 47.648 18.177 65.825 0v0l164.563-164.563c18.177-18.177 18.177-47.648 0-65.825v0l-362.039-362.039c-18.177-18.177-47.648-18.177-65.825 0v0l-164.563 164.563c-18.177 18.177-18.177 47.648 0 65.825v0z" />
<glyph unicode="&#xe936;" glyph-name="uniE936" d="M754.454 912.285c36.354 36.354 95.296 36.354 131.65 0v0l98.738-98.738c36.354-36.354 36.354-95.296 0-131.65v0l-32.913-32.913c-18.177-18.177-47.648-18.177-65.825 0v0l-164.563 164.563c-18.177 18.177-18.177 47.648 0 65.825v0z" />
<glyph unicode="&#xe937;" glyph-name="uniE937" d="M95.010 241.388c2.098 6.475 5.878 12.821 11.241 18.183 18.171 18.171 47.628 18.177 65.807 0.019l123.884-123.884c18.16-18.18 18.153-47.637-0.018-65.808-5.363-5.363-11.708-9.143-18.456-11.342l0.273 0.101-224.76-74.942-32.913 32.913z" />
<glyph unicode="&#xe938;" glyph-name="uniE938" horiz-adv-x="1063" d="M530.786 960c-292.785 0-530.786-229.218-530.786-511.094 0-281.915 238.001-511.134 530.786-511.134 292.746 0 530.747 229.218 530.747 511.134 0 281.876-238.001 511.094-530.747 511.094z" />
<glyph unicode="&#xe939;" glyph-name="uniE939" horiz-adv-x="1063" d="M530.905 763.865c174.159 0 315.077-140.918 315.077-315.077s-140.918-315.077-315.077-315.077c-174.159 0-315.077 140.918-315.077 315.077s140.918 315.077 315.077 315.077z" />
<glyph unicode="&#xe93a;" glyph-name="uniE93A" horiz-adv-x="1063" d="M630.351 624.443c36.47 0 66.324-28.751 66.324-63.882s-29.854-63.882-66.324-63.882c-36.51 0-66.363 28.751-66.363 63.882s29.854 63.882 66.363 63.882z" />
<glyph unicode="&#xe93b;" glyph-name="uniE93B" horiz-adv-x="1063" d="M530.905 592.542c82.117 0 149.268-64.67 149.268-143.754 0-79.045-67.151-143.754-149.268-143.754-82.078 0-149.268 63.882-149.268 143.754s67.19 143.754 149.268 143.754z" />
<glyph unicode="&#xe93c;" glyph-name="uniE93C" horiz-adv-x="1063" d="M569.777 587.815c-3.666-7.491-5.81-16.301-5.81-25.611 0-0.55 0.007-1.098 0.022-1.645l-0.002 0.080c0-35.131 29.854-63.882 66.363-63.882 13.273 0 26.506 4.017 36.47 10.398-17.408 39.148-53.090 68.687-97.044 80.66z" />
<glyph unicode="&#xe93d;" glyph-name="uniE93D" horiz-adv-x="725" d="M0 661.333h725.333v-554.667c0-94.257-76.41-170.667-170.667-170.667v0h-384c-94.257 0-170.667 76.41-170.667 170.667v0z" />
<glyph unicode="&#xe93e;" glyph-name="uniE93E" horiz-adv-x="725" d="M213.333 448c0 23.564 19.103 42.667 42.667 42.667s42.667-19.103 42.667-42.667v0-213.333c0-23.564-19.103-42.667-42.667-42.667s-42.667 19.103-42.667 42.667v0z" />
<glyph unicode="&#xe93f;" glyph-name="uniE93F" horiz-adv-x="725" d="M426.667 448c0 23.564 19.103 42.667 42.667 42.667s42.667-19.103 42.667-42.667v0-213.333c0-23.564-19.103-42.667-42.667-42.667s-42.667 19.103-42.667 42.667v0z" />
<glyph unicode="&#xe940;" glyph-name="uniE940" horiz-adv-x="725" d="M725.333 746.667h-725.333v128c0 47.128 38.205 85.333 85.333 85.333v0h554.667c47.128 0 85.333-38.205 85.333-85.333v0z" />
<glyph unicode="&#xe941;" glyph-name="convert" horiz-adv-x="1479" d="M1462.044 602.624l-398.222 340.764c-10.289 10.257-24.485 16.6-40.164 16.6-31.375 0-56.817-25.398-56.889-56.756v-170.446h-227.499c-0.931 0.054-2.019 0.085-3.115 0.085-31.419 0-56.889-25.47-56.889-56.889s25.47-56.889 56.889-56.889c1.096 0 2.184 0.031 3.265 0.092l-0.15-0.007h284.331c0 0 0 0 0 0 31.379 0 56.824 25.405 56.889 56.769v90.118l260.836-203.662-260.836-203.605v90.112c-0.065 31.37-25.51 56.775-56.889 56.775 0 0 0 0 0 0h-511.772v170.439c-0.072 31.365-25.514 56.763-56.889 56.763-15.678 0-29.875-6.342-40.165-16.601l0.001 0.001-398.108-340.764c-10.285-10.276-16.647-24.477-16.647-40.164s6.362-29.887 16.646-40.163v0l398.108-340.764c10.289-10.257 24.485-16.6 40.164-16.6 31.375 0 56.817 25.398 56.889 56.756v170.446h227.442c0.931-0.054 2.019-0.085 3.115-0.085 31.419 0 56.889 25.47 56.889 56.889s-25.47 56.889-56.889 56.889c-1.096 0-2.184-0.031-3.265-0.092l0.15 0.007h-284.274c-31.399 0-56.856-25.438-56.889-56.829v-90.058l-260.836 203.662 260.836 203.605v-90.112c0.032-31.394 25.49-56.832 56.889-56.832h511.829v-170.439c0.072-31.365 25.514-56.763 56.889-56.763 15.678 0 29.875 6.342 40.165 16.601l-0.001-0.001 398.108 340.764c10.302 10.279 16.675 24.491 16.675 40.192s-6.373 29.913-16.674 40.191l-0.001 0.001z" />
<glyph unicode="&#xe942;" glyph-name="copy" d="M438.5 9.842v365.454h237.568c0.314-0.007 0.683-0.011 1.054-0.011 14.814 0 28.203 6.102 37.79 15.929l0.010 0.011c9.838 9.607 15.939 23.003 15.939 37.824 0 0.362-0.004 0.724-0.011 1.085l0.001-0.054v237.568h219.307v-657.806zM404.651 468.594c-11.53-12.176-20.816-26.615-27.107-42.562l-0.313-0.901c-6.767-14.764-10.927-31.978-11.431-50.107l-0.004-0.183v-146.318h-292.693v365.796h237.796c0.3-0.006 0.653-0.010 1.007-0.010 14.828 0 28.232 6.1 37.838 15.928l0.010 0.010c9.905 9.626 16.051 23.074 16.051 37.958 0 0.336-0.003 0.67-0.009 1.004l0.001-0.050v237.796h219.477v-237.796zM292.352 838.372v-170.724h-170.724zM657.806 619.122v-170.724h-170.724zM1007.275 724.764c-9.616 9.838-23.019 15.938-37.848 15.938-0.354 0-0.707-0.003-1.060-0.010l0.053 0.001h-237.511c-22.869 0-47.218-7.566-73.102-22.756v187.164c0.006 0.29 0.009 0.633 0.009 0.976 0 14.849-6.124 28.267-15.983 37.868l-0.012 0.011c-9.621 9.871-23.047 15.994-37.902 15.994-0.335 0-0.669-0.003-1.003-0.009l0.050 0.001h-237.511c-15.246 0-31.972-3.812-50.233-11.378-16.829-6.627-31.248-15.93-43.464-27.532l0.058 0.054-232.96-232.903c-11.543-12.142-20.845-26.542-27.163-42.451l-0.315-0.898c-7.566-18.204-11.378-35.044-11.378-50.29v-383.716c0-15.246 5.348-28.16 15.986-38.855 9.607-9.837 23.003-15.938 37.823-15.938 0.343 0 0.685 0.003 1.026 0.010l-0.051-0.001h310.613v-164.466c0-15.246 5.348-28.217 16.043-38.855 9.607-9.837 23.003-15.938 37.823-15.938 0.343 0 0.685 0.003 1.026 0.010l-0.051-0.001h548.181c0.307-0.006 0.668-0.010 1.031-0.010 14.821 0 28.217 6.101 37.814 15.929l0.010 0.010c9.838 9.607 15.939 23.003 15.939 37.824 0 0.362-0.004 0.724-0.011 1.085l0.001-0.054v694.329c0.006 0.307 0.010 0.668 0.010 1.031 0 14.821-6.101 28.217-15.929 37.814l-0.010 0.010z" />
<glyph unicode="&#xe943;" glyph-name="synchronization" horiz-adv-x="866" d="M837.947 956.849c-4.949 2.008-10.689 3.174-16.701 3.174-11.892 0-22.719-4.559-30.829-12.025l0.032 0.029-112.482-105.708c-180.539 122.959-434.964 108.623-597.622-44.111l-46.001-43.244c-16.327-14.959-26.527-36.378-26.527-60.18s10.199-45.22 26.466-60.125l0.061-0.055c17.644-16.542 40.881-24.891 64.039-24.891s46.395 8.35 64.039 24.891l46.080 43.323c91.687 86.095 231.345 99.801 338.708 41.748l-100.982-94.996c-7.838-7.183-12.734-17.467-12.734-28.894 0-5.676 1.208-11.069 3.381-15.938l-0.099 0.249c6.774-15.281 22.607-25.206 40.172-25.206h344.222c24.103 0 43.638 18.274 43.638 40.802v323.426c0 16.542-10.555 31.508-26.86 37.809zM703.094 262.735l-46.159-43.166c-51.332-47.837-120.427-77.202-196.382-77.202-0.744 0-1.488 0.003-2.23 0.008l0.114-0.001c-0.18 0-0.392-0.001-0.605-0.001-51.194 0-99.32 13.132-141.195 36.211l1.513-0.764 101.14 94.996c7.841 7.158 12.741 17.422 12.741 28.831 0 5.671-1.211 11.059-3.388 15.92l0.099-0.247c-7.137 15.015-22.181 25.211-39.607 25.211-0.227 0-0.453-0.002-0.678-0.005h-344.109c-24.103 0-43.559-18.274-43.559-40.881v-323.269c0-16.542 10.634-31.429 26.86-37.809 4.923-1.978 10.631-3.125 16.607-3.125 11.927 0 22.787 4.571 30.923 12.056l-0.032-0.030 112.404 105.551c75.445-51.886 168.776-82.868 269.343-82.868 0.57 0 1.141 0.001 1.711 0.003h-0.088c123.353 0 239.458 45.135 326.656 127.134l46.001 43.166c16.327 14.959 26.527 36.378 26.527 60.18s-10.199 45.22-26.466 60.125l-0.061 0.055c-16.811 15.43-39.321 24.887-64.039 24.887s-47.228-9.457-64.109-24.949l0.069 0.063z" />
<glyph unicode="&#xe944;" glyph-name="info" d="M512 29.099c-230.997 0-418.901 187.904-418.901 418.901s187.904 418.901 418.901 418.901 418.901-187.904 418.901-418.901-187.904-418.901-418.901-418.901zM512 960c-282.325 0-512-229.675-512-512s229.675-512 512-512 512 229.675 512 512-229.675 512-512 512zM512.171 742.827c-34.219 0-62.037-27.861-62.037-62.080s27.819-62.080 62.037-62.080c33.075 1.549 59.304 28.741 59.304 62.059s-26.229 60.51-59.165 62.053l-0.139 0.005zM512 525.653c-25.685 0-46.507-20.822-46.507-46.507v0-279.296c0-25.708 20.841-46.549 46.549-46.549s46.549 20.841 46.549 46.549v0 279.253c0 0.013 0 0.028 0 0.043 0 25.685-20.822 46.507-46.507 46.507-0.030 0-0.060 0-0.090 0h0.005z" />
<glyph unicode="&#xe945;" glyph-name="check" horiz-adv-x="1303" d="M504.026 225.044l-341.855 378.448c-34.463 38.152-93.329 41.142-131.481 6.68s-41.142-93.329-6.68-131.481l410.886-454.868c36.946-40.901 101.141-40.924 138.116-0.049l706.205 780.687c34.49 38.128 31.541 96.996-6.586 131.486s-96.996 31.541-131.486-6.586l-637.12-704.315z" />
<glyph unicode="&#xe946;" glyph-name="file_download" horiz-adv-x="942" d="M695.91 9.605h-491.11c-69.837 0-128.492 56.73-128.492 125.542v626.156c0 68.403 58.286 125.501 128.532 125.501h361.431v-108.421c0-88.924 73.236-160.276 164.004-160.276h94.126v-482.959c0-68.813-58.286-125.542-128.532-125.542zM640.655 830.771l132.137-139.592h-42.885c-49.275 0-89.211 38.83-89.211 87.122zM629.842 948.285c-6.783 7.117-16.292 11.582-26.845 11.714h-398.196c-111.329 0-203.162-89.702-203.162-198.779v-626.442c0-109.076 91.832-198.779 203.121-198.779h490.783c111.247 0 203.121 89.702 203.121 198.779v519.086c-0.375 9.977-4.442 18.937-10.866 25.613l0.012-0.013zM593.756 220.672h-286.884c-0.086 0.001-0.188 0.001-0.289 0.001-20.315 0-36.812-16.341-37.066-36.595v-0.024c0-20.111 16.794-36.577 37.356-36.577h287.252c0.074-0.001 0.162-0.001 0.25-0.001 20.308 0 36.806 16.313 37.106 36.55v0.028c-0.321 20.294-16.847 36.622-37.187 36.622-0.174 0-0.348-0.001-0.522-0.004h0.026zM422.994 311.194c7.127-7.373 16.794-11.756 27.279-11.756 10.708 0.051 20.36 4.531 27.225 11.701l0.013 0.014 136.888 148.357c6.204 6.452 10.025 15.236 10.025 24.911 0 10.579-4.567 20.090-11.838 26.671l-0.031 0.027c-6.676 6.094-15.599 9.826-25.393 9.826-10.722 0-20.4-4.473-27.268-11.655l-0.013-0.014-72.294-80.241v154.010c-0.277 20.26-16.766 36.578-37.066 36.578-0.088 0-0.175 0-0.262-0.001h0.013c-0.086 0.001-0.188 0.001-0.289 0.001-20.315 0-36.812-16.341-37.066-36.595v-153.993l-71.926 80.282c-6.884 7.162-16.544 11.611-27.243 11.611-9.791 0-18.711-3.726-25.421-9.836l0.030 0.027c-7.291-6.614-11.851-16.125-11.851-26.7 0-9.672 3.814-18.453 10.020-24.922l-0.012 0.012z" />
<glyph unicode="&#xe947;" glyph-name="line-decor" horiz-adv-x="89" d="M44.522-64c-26.713 0-44.522 17.809-44.522 44.522v133.565c0 26.713 17.809 44.522 44.522 44.522s44.522-17.809 44.522-44.522v-133.565c0-26.713-17.809-44.522-44.522-44.522zM44.522 203.13c-26.713 0-44.522 17.809-44.522 44.522v133.565c0 26.713 17.809 44.522 44.522 44.522s44.522-17.809 44.522-44.522v-133.565c0-26.713-17.809-44.522-44.522-44.522zM44.522 470.261c-26.713 0-44.522 17.809-44.522 44.522v133.565c0 26.713 17.809 44.522 44.522 44.522s44.522-17.809 44.522-44.522v-133.565c0-26.713-17.809-44.522-44.522-44.522zM44.522 737.391c-26.713 0-44.522 17.809-44.522 44.522v133.565c0 26.713 17.809 44.522 44.522 44.522s44.522-17.809 44.522-44.522v-133.565c0-26.713-17.809-44.522-44.522-44.522z" />
<glyph unicode="&#xe948;" glyph-name="dispute-2" horiz-adv-x="1280" d="M1175.381 239.957l-218.709-91.221c-12.16-5.12-24.96-7.68-38.016-7.68-41.735 0.063-77.453 25.757-92.261 62.181l-0.24 0.667-17.152 42.24c-3.056 7.354-4.831 15.896-4.831 24.853 0 17.692 6.925 33.767 18.213 45.662l-0.027-0.029c-1.416 2.14-2.718 4.597-3.778 7.179l-0.105 0.288-13.525 33.323c-3.494-1.034-7.509-1.628-11.663-1.628-15.871 0-29.714 8.683-37.037 21.557l-0.11 0.21-10.581-4.395c-4.804-2.064-10.395-3.265-16.266-3.265-13.955 0-26.326 6.781-33.998 17.227l-0.082 0.117-160.939-67.243c-1.253-16.497-11.605-30.302-26.002-36.501l-0.281-0.107-415.872-173.525c-4.796-2.057-10.378-3.254-16.24-3.254-5.939 0-11.591 1.228-16.716 3.444l0.273-0.105c-10.511 4.546-18.678 12.852-22.936 23.181l-0.104 0.286-33.152 81.749c-8.96 22.101 1.451 47.36 23.253 56.491l415.872 173.483c4.798 2.064 10.383 3.264 16.248 3.264 10.69 0 20.449-3.987 27.871-10.556l-0.044 0.039 161.024 67.115c-0.261 1.795-0.41 3.867-0.41 5.974 0 5.985 1.201 11.69 3.375 16.886l-0.107-0.289c4.352 10.581 12.672 18.987 23.125 23.339l10.539 4.395c-0.935 3.379-1.473 7.259-1.473 11.265 0 5.985 1.2 11.689 3.372 16.886l-0.107-0.289c3.755 9.173 10.539 16.64 19.072 21.333l-13.525 33.365c-0.956 2.285-1.782 4.986-2.342 7.783l-0.047 0.281c-26.426 0.586-48.877 16.995-58.298 40.103l-0.155 0.431-17.152 42.24c-20.949 51.712 3.456 111.104 54.443 132.352l218.709 91.307c12.075 5.077 24.875 7.637 37.973 7.637 40.747 0 77.056-24.661 92.544-62.848l17.109-42.24c3.049-7.346 4.819-15.879 4.819-24.824 0-17.665-6.904-33.717-18.16-45.606l0.029 0.031c1.536-2.389 2.859-4.864 3.925-7.509l13.568-33.365c3.472 1.022 7.461 1.61 11.587 1.61 17.811 0 33.063-10.958 39.382-26.499l0.102-0.284 67.968-167.552c4.267-10.581 4.267-22.485-0.085-33.109-3.81-9.118-10.376-16.455-18.645-21.137l-0.214-0.111 13.525-33.365c1.067-2.645 1.835-5.376 2.389-8.107 26.392-0.622 48.803-17.021 58.213-40.103l0.155-0.431 17.152-42.24c20.949-51.712-3.456-111.104-54.443-132.352zM1280 58.197v-73.771c0-26.752-19.2-48.427-42.88-48.427h-511.573c-23.68 0-42.88 21.675-42.88 48.427v73.813c0 26.752 19.2 48.427 42.88 48.427h511.573c23.68 0 42.88-21.675 42.88-48.427z" />
<glyph unicode="&#xe949;" glyph-name="all_ref" horiz-adv-x="1067" d="M642.133 588.928c-80.213 0-145.493 65.28-145.493 145.493 0 80.299 65.28 145.579 145.493 145.579 80.256 0 145.536-65.28 145.536-145.536s-65.28-145.493-145.493-145.493zM382.293 319.445c-80.41 0.024-145.604 65.142-145.749 145.522v0.014c0 80.213 65.408 145.493 145.749 145.493 80.395-0.024 145.579-65.118 145.749-145.477v-0.016c0-80.213-65.365-145.493-145.749-145.493zM785.92 560.811c50.115 41.606 81.792 103.92 81.792 173.633 0 0.007 0 0.015 0 0.022v-0.001c-0.146 124.516-101.059 225.415-225.567 225.536h-0.012c-124.567-0.179-225.478-101.201-225.478-225.792 0-16.7 1.813-32.976 5.253-48.642l-0.276 1.496c-11.815 2.192-25.409 3.446-39.296 3.446-124.608 0-225.64-100.939-225.792-225.511v-0.014c0-69.76 31.829-132.224 81.749-173.653-139.605-56.875-238.293-194.091-238.293-353.92h80c0.194 166.756 135.324 301.886 302.061 302.080h0.019c124.585 0.154 225.521 101.186 225.521 225.792 0 16.699-1.813 32.976-5.253 48.642l0.275-1.495c12.8-2.261 26.027-3.456 39.509-3.456 98.133 0 185.515-47.104 240.725-119.851l54.187 60.373c-39.955 48.28-90.678 86.239-148.588 110.421l-2.537 0.939zM972.629 307.371l-140.501-140.501-106.667 106.667-264.832-264.832 60.331-60.331 204.501 204.501 106.667-106.667 200.832 200.832z" />
<glyph unicode="&#xe94a;" glyph-name="ref" d="M642.133 588.928c-80.213 0-145.493 65.28-145.493 145.493 0 80.299 65.28 145.579 145.493 145.579 80.256 0 145.536-65.28 145.536-145.536s-65.28-145.493-145.493-145.493zM682.667 149.333c0-23.564 19.103-42.667 42.667-42.667v0h256c23.564 0 42.667 19.103 42.667 42.667s-19.103 42.667-42.667 42.667v0h-256c-23.564 0-42.667-19.103-42.667-42.667v0zM512-21.333c0-23.564 19.103-42.667 42.667-42.667v0h426.667c23.564 0 42.667 19.103 42.667 42.667s-19.103 42.667-42.667 42.667v0h-426.667c-23.564 0-42.667-19.103-42.667-42.667v0zM382.293 319.445c-80.41 0.024-145.604 65.142-145.749 145.522v0.014c0 80.213 65.408 145.493 145.749 145.493 80.395-0.024 145.579-65.118 145.749-145.477v-0.016c0-80.213-65.365-145.493-145.749-145.493zM785.92 560.811c50.115 41.606 81.792 103.92 81.792 173.633 0 0.007 0 0.015 0 0.022v-0.001c-0.146 124.516-101.059 225.415-225.567 225.536h-0.012c-124.567-0.179-225.478-101.201-225.478-225.792 0-16.7 1.813-32.976 5.253-48.642l-0.276 1.496c-11.815 2.192-25.409 3.446-39.296 3.446-124.608 0-225.64-100.939-225.792-225.511v-0.014c0-69.76 31.829-132.224 81.749-173.653-139.605-56.875-238.293-194.091-238.293-353.92h80c0.194 166.756 135.324 301.886 302.061 302.080h0.019c124.585 0.154 225.521 101.186 225.521 225.792 0 16.699-1.813 32.976-5.253 48.642l0.275-1.495c12.8-2.261 26.027-3.456 39.509-3.456 98.133 0 185.515-47.104 240.725-119.851l54.187 60.373c-39.955 48.28-90.678 86.239-148.588 110.421l-2.537 0.939z" />
<glyph unicode="&#xe94b;" glyph-name="twitter" horiz-adv-x="1229" d="M1228.8 838.758c-45.739-20.48-94.413-34.133-145.135-40.755 52.472 32.539 91.716 82.146 110.302 140.933l0.494 1.812c-48.674-29.764-102.4-50.79-159.744-62.532-45.653 50.144-111.125 81.558-183.938 81.783h-0.041c-139.469 0-251.767-116.053-251.767-258.458 0-20.48 1.707-40.141 5.803-58.914-209.442 10.513-394.718 113.459-519.236 270.268-21.656-37.548-34.444-82.574-34.475-130.585v-0.009c0-89.429 44.919-168.823 111.957-214.699-42.045 1.204-81.122 12.858-115.048 32.44l1.179-0.628v-2.867c0-125.611 87.381-229.786 201.796-253.884-20.48-5.734-42.803-8.465-66.014-8.465-16.111 0-32.427 0.956-47.718 4.369 32.631-102.332 125.269-177.493 235.383-179.951-84.701-68.713-193.82-110.32-312.657-110.32-21.127 0-41.946 1.315-62.381 3.868l2.439-0.248c108.213-72.63 241.413-115.919 384.723-115.919 0.61 0 1.219 0.001 1.829 0.002h-0.095c463.531 0 717.005 393.899 717.005 735.232 0 11.401-0.41 22.46-0.956 33.451 49.96 36.962 91.92 81.378 125.098 132.062l1.195 1.945z" />
<glyph unicode="&#xe94c;" glyph-name="whatsapp" d="M810.098 236.942c-12.402-34.816-61.44-63.716-100.523-72.249-26.738-5.689-61.724-10.24-179.314 38.571-150.471 62.35-247.41 215.211-254.919 225.166-7.225 9.899-60.871 80.953-60.871 154.396 0 73.5 37.319 109.227 52.338 124.587 12.345 12.629 32.768 18.432 52.338 18.432 6.372 0 12.060-0.341 17.18-0.569 15.019-0.683 22.585-1.593 32.484-25.316 12.402-29.753 42.439-103.253 46.080-110.763 3.641-7.566 7.282-17.806 2.162-27.705-4.836-10.24-9.045-14.791-16.612-23.495s-14.734-15.36-22.244-24.747c-6.94-8.078-14.734-16.782-6.030-31.858 8.704-14.734 38.798-63.772 83.058-103.196 57.173-50.916 103.538-67.129 120.036-74.069 12.402-5.12 27.136-3.925 36.124 5.689 11.492 12.345 25.6 32.825 39.993 53.020 10.24 14.45 23.211 16.213 36.75 11.093 13.824-4.779 86.983-40.96 102.002-48.412 15.076-7.566 25.031-11.15 28.615-17.465 3.584-6.372 3.584-36.124-8.761-71.111zM512.057 960h-0.228c-282.283 0-511.829-229.66-511.829-512 0-112.014 36.068-215.78 97.451-300.089l-63.772-190.293 196.836 62.919c78.888-52.967 175.998-84.538 280.482-84.538 0.373 0 0.746 0 1.119 0.001h-0.058c282.396 0 511.943 229.717 511.943 512s-229.547 512-511.886 512z" />
<glyph unicode="&#xe94d;" glyph-name="star-filled" horiz-adv-x="1078" d="M1046.42 460.288c57.667 53.733 25.708 147.24-54.272 158.289l-255.461 25.869c-0.862 0.162-3.072 1.671-4.204 3.88l-108.167 257.24c-15.872 31.514-47.413 53.058-84.113 54.428l-0.178 0.005c-39.343-1.617-70.979-20.211-87.148-51.469l-110.969-263.168c0.269 0.808-1.994-0.755-4.581-1.078l-252.066-25.492c-81.704-11.318-113.664-104.879-55.781-158.612l185.344-174.080c1.566-1.389 2.548-3.406 2.548-5.653 0-0.478-0.045-0.947-0.13-1.4l0.007 0.047-42.146-234.065c-13.689-75.884 70.009-133.713 141.581-97.873l220.915 110.484c0.431 0.108 221.507-110.484 221.507-110.484 71.572-35.84 155.217 21.989 141.581 97.819l-42.2 234.227c-0.072 0.385-0.113 0.828-0.113 1.28 0 2.136 0.913 4.058 2.371 5.398l0.005 0.005z" />
</font>
</defs>
</svg>
