<?xml version="1.0" encoding="UTF-8"?>
<svg width="26px" height="25px" viewBox="0 0 26 25" version="1.1" xmlns="http://www.w3.org/2000/svg" xmlns:xlink="http://www.w3.org/1999/xlink">
    <!-- Generator: Sketch 58 (84663) - https://sketch.com -->
    <title>Sberbank (1) 2</title>
    <desc>Created with Sketch.</desc>
    <g id="Symbols" stroke="none" stroke-width="1" fill="none" fill-rule="evenodd">
        <g id="Sberbank" transform="translate(-7.000000, -8.000000)" fill="#2F9A41" fill-rule="nonzero">
            <g id="Sberbank-(1)-2" transform="translate(7.000000, 8.000000)">
                <g id="Sberbank-(1)">
                    <path d="M23.7257471,4.75606641 C23.4478161,4.37760749 23.1728736,3.99914857 22.9308046,3.61770966 L8.07195402,12.1285653 L0.89954023,8.02809706 C0.734924035,8.4705537 0.634298188,8.93412064 0.600689655,9.40485313 L8.14068966,13.7586207 L23.7257471,4.75606641 Z" id="Path"></path>
                    <path d="M8.07195402,15.3320562 L0.367586207,10.9216688 C0.310573805,11.1929347 0.287486068,11.4701992 0.298850575,11.7471264 C0.298850479,16.289449 2.72907436,20.4867281 6.67408038,22.7578894 C10.6190864,25.0290507 15.4795343,25.0290507 19.4245403,22.7578894 C23.3695463,20.4867281 25.7997702,16.289449 25.7997701,11.7471264 C25.8140584,9.73530695 25.3403735,7.74986265 24.4190805,5.95998297 L8.07195402,15.3320562 Z" id="Path"></path>
                    <path d="M21.8937931,2.55087271 C21.5306705,2.20910368 21.1495972,1.88681051 20.7521839,1.58535547 L8.07195402,8.9250745 L1.95747126,5.44444444 C1.75126437,5.82290336 1.54206897,6.23712218 1.3,6.6841209 L8.00321839,10.5432099 L21.8937931,2.55087271 Z" id="Path"></path>
                    <path d="M19.5089655,0.759897829 C19.0290472,0.473415907 18.5297627,0.22050196 18.0147126,0.00297999149 L8.07195402,5.71264368 L3.61609195,3.20647084 C3.31724138,3.50446999 3.0183908,3.89484887 2.71954023,4.27330779 L8.03908046,7.30693912 L19.5089655,0.759897829 Z" id="Path"></path>
                </g>
            </g>
        </g>
    </g>
</svg>