<?xml version="1.0" encoding="UTF-8"?>
<svg width="82px" height="73px" viewBox="0 0 82 73" version="1.1" xmlns="http://www.w3.org/2000/svg" xmlns:xlink="http://www.w3.org/1999/xlink">
    <!-- Generator: Sketch 59.1 (86144) - https://sketch.com -->
    <title>tinkoff</title>
    <desc>Created with Sketch.</desc>
    <g id="Page-1" stroke="none" stroke-width="1" fill="none" fill-rule="evenodd">
        <g id="logo">
            <g id="tinkoff">
                <path d="M23.19,52.73 C24.19,51.92 25.05,51.51 25.01,49.56 C23.48,50.34 19.14,50.3 17.32,47.8 C16.81,47.09 17.32,46.73 17.86,47.29 C19.1,48.7 21.4,48.06 22.24,47.65 C22.0796698,47.1316151 21.7986409,46.6586641 21.42,46.27 C21.73,45.96 22.62,45.5 22.8,44.71 C22.0450703,44.4771228 21.2672492,44.3262523 20.48,44.26 C20.9756934,43.8333518 21.154977,43.1441058 20.93,42.53 C19.05,43.1 16.72,42.32 16.19,41.62 C15.66,40.92 16.19,40.3 16.64,40.75 C17.58,41.75 22.2,42.86 23.92,41.15 C23.3121177,40.9751375 22.789239,40.5838677 22.45,40.05 C24.04,39.89 25.31,38.95 25.45,37.78 C24.3931295,37.8482717 23.3342907,37.6809069 22.35,37.29 C23.0669634,37.1249142 23.6354007,36.5795216 23.83,35.87 C20.92,35.7 20.69,33.53 20.68,33.18 C22.57,34.27 25.91,33.79 25.05,31.09 C23.47,31.01 21.88,28.46 26.22,26.09 C30.16,23.95 34.65,21.65 34.22,17.86 C33.96,15.44 29.97,13.79 29.46,12.56 C27.8,13.35 27.46,14.27 28.21,15.82 C28.21,15.82 24.5,16.19 24.21,13.9 C24.2112077,12.8487793 24.6848466,11.8537705 25.5,11.19 C25.08,11.19 22.29,10.44 21.44,12.72 C19.87,11.65 18.54,11.72 17.44,12.81 C19.12,13.81 20.17,17.24 22.95,18.26 C20.95,19.33 17.77,18.88 15.95,15.58 C14.18,18.25 13.16,20.89 16.95,23.71 C10.05,26.85 10.1,32.86 4.09,35.71 C4.68,37.38 6,37.38 7.6,37.12 C5,40.5 7.22,44 3.11,45.47 C3.49,46.85 4.26,47.94 5.78,47.54 C5.35,48.22 5.06,48.2 4.39,48.94 C6.64,50.36 9.31,49.33 9.91,44.79 C10.02,43.98 11.13,44.49 10.75,45.28 C8.18,50.58 14.66,54.56 12.37,58.45 C14.37,58.37 15.93,58.21 16.78,57.53 C17.2070838,58.280022 17.4052342,59.1386738 17.35,60 C18.2519948,59.9347628 18.9617111,59.20354 19,58.3 C19.73,60.43 22.34,62.71 26.53,62.71 C24.31,59.55 26.38,56.34 23.24,52.71 M19.11,56.61 L18.21,58.13 C17.8593435,57.1750457 17.4347219,56.2489026 16.94,55.36 C16.22,56.84 15.09,56.87 13.94,56.87 C14.18,53.33 9.73,49.76 11.69,45.71 C12.1012907,44.911451 11.7936695,43.9306297 11,43.51 C8,41.99 9.4,48.29 6.41,48.51 C6.8229672,47.7814028 7.11668062,46.991415 7.28,46.17 C6.65,46.33 5.13,47.3 4.44,46.06 C5.85680321,45.28317 6.7995605,43.8578107 6.96,42.25 C7.10929281,41.0820006 7.40148035,39.9367597 7.83,38.84 C8.44279299,37.7179911 9.16999565,36.6623744 10,35.69 C9.7,35.69 6.34,36.44 5.59,36.09 C11.42,32.52 10.11,28 19,23.94 C16.68,22.21 14.3,20.84 16,17.54 C18.43,20.45 23,19.44 25.53,18.09 C23.07,17.6 19.9,15.43 19.14,13.01 C20.07,12.87 21.27,13.88 21.96,14.35 C22.3,13.45 22.43,12.42 23.51,12.19 C22.07,15.28 24.92,16.88 27.63,16.89 C28.05,16.89 29.81,16.72 29.81,16.72 C29.53,16.14 28.39,14.57 29.22,13.93 C29.9147944,14.5227982 30.639048,15.080173 31.39,15.6 C36.67,19.69 28.88,23.47 25.7,25.19 C20.7,27.89 22.04,31.11 24.13,31.93 C24.13,32.29 23.89,32.45 23.55,32.57 C22.09,33.05 20.71,32.01 19.55,31.34 C19.62,33.34 19.48,35.34 21.71,36.41 L20.15,37 C21.48,38 21.88,38.53 23.47,38.74 C22.680232,39.0214733 21.8484217,39.166871 21.01,39.17 C21.1657581,39.8210174 21.4330375,40.4401583 21.8,41 C18.54,41.39 17.24,39.53 16.23,39.61 C14.09,39.77 14.23,43.81 19.5,43.81 L18.95,44.72 C19.5468051,45.0559824 20.1958516,45.2892335 20.87,45.41 C20.52,45.7 20.18,46.08 19.87,46.41 L20.71,47.14 C18.55,47.53 17.94,45.23 16.54,46.34 C14.41,48.03 19.12,51.6 23.63,51.07 C23.0409899,51.6447714 22.4054945,52.1698913 21.73,52.64 C25.41,56.11 23.59,59.38 25.1,61.77 C22.2061543,61.6022263 19.7543682,59.5793004 19.04,56.77" id="Shape" fill="#D2D9DD"></path>
                <path d="M13.26,44 C14.02,44.8 14.95,44.88 16.7,44.77 C14.78,44.54 13.7,44.07 13.02,42.77 C12.9175333,42.0640356 12.8541036,41.3529545 12.83,40.64 C12.8871381,38.145678 13.5752057,35.7064782 14.83,33.55 C14.9408814,35.9295774 16.7151245,37.9004938 19.07,38.26 C16.43,37.1 14.88,34.51 15.73,31.99 C16.2766667,31.11 16.8966667,30.21 17.59,29.29 C17.94,28.84 18.27,28.41 18.59,28.01 C18.23,29.3 19.78,30.62 20.82,30.84 C20.26,30.3 19.05,28.51 21.82,25.53 C21.0099233,25.9155124 20.2424108,26.3847341 19.53,26.93 C24.6,21.45 28.76,21.3 30.67,18.55 C27.9,20.44 20.56,21.46 17.27,20.55 C19.09,21.76 23.47,21.65 24.54,21.43 C21,24.9 13.21,28.49 11.86,31.69 C13.0960788,30.2097763 14.7695597,29.1594745 16.64,28.69 C15.3611962,30.4433687 14.2654708,32.3231912 13.37,34.3 C11.29,38.81 8.52,38.87 8.37,42.59 C9.32,39.7 11.24,38.97 12.58,37.08 C12.324477,38.4308805 12.2205002,39.8060568 12.27,41.18 C12.3080278,42.7161366 12.6195669,44.2331966 13.19,45.66 C13.06,47.5 13.19,50.66 15.33,52.71 C14.1555288,50.9717945 13.5894223,48.8937264 13.72,46.8 C15.33,50 20,54.37 22.31,57.33 C20.03,53.53 14.46,49.09 13.31,43.96 M65.34,28.68 C67.2104403,29.1494745 68.8839212,30.1997763 70.12,31.68 C68.77,28.49 61,24.9 57.38,21.43 C58.46,21.65 62.84,21.76 64.66,20.55 C61.37,21.44 54.03,20.42 51.26,18.55 C53.17,21.3 57.33,21.45 62.4,26.93 C61.6875892,26.3847341 60.9200767,25.9155124 60.11,25.53 C62.89,28.53 61.69,30.29 61.11,30.84 C62.11,30.62 63.7,29.3 63.35,28.01 C63.68,28.41 64.02,28.84 64.35,29.29 C65.05,30.21 65.66,31.11 66.21,31.99 C67.05,34.51 65.5,37.1 62.87,38.26 C65.2329009,37.918434 67.0134026,35.9358896 67.1,33.55 C68.3584506,35.7049265 69.0467901,38.1450902 69.1,40.64 C69.072766,41.3531517 69.0059967,42.0642439 68.9,42.77 C68.23,44.05 67.15,44.52 65.23,44.77 C66.98,44.88 67.9,44.77 68.67,44 C67.47,49.13 61.9,53.57 59.67,57.37 C61.95,54.37 66.67,50.02 68.3,46.83 C68.4305777,48.9237264 67.8644712,51.0017945 66.69,52.74 C68.8,50.67 68.96,47.53 68.83,45.69 C69.39701,44.2625679 69.7051586,42.7455289 69.74,41.21 C69.7974339,39.8363529 69.6967732,38.4606564 69.44,37.11 C70.77,39 72.69,39.73 73.64,42.62 C73.46,38.9 70.64,38.84 68.64,34.33 C67.7445292,32.3531912 66.6488038,30.4733687 65.37,28.72" id="Shape" fill="#D2D9DD"></path>
                <path d="M74.38,37.12 C76.01,37.37 77.3,37.37 77.91,35.74 C71.91,32.88 71.91,26.87 65.04,23.74 C68.84,20.92 67.82,18.28 66.04,15.61 C64.18,18.91 60.96,19.36 59.04,18.29 C61.82,17.29 62.87,13.85 64.55,12.84 C63.5,11.71 62.15,11.68 60.55,12.75 C59.7,10.47 56.92,11.22 56.55,11.22 C57.3651534,11.8837705 57.8387923,12.8787793 57.84,13.93 C57.55,16.22 53.84,15.85 53.84,15.85 C54.58,14.3 54.25,13.38 52.59,12.59 C52.08,13.82 48.09,15.47 47.83,17.89 C47.43,21.68 51.92,23.99 55.83,26.12 C60.17,28.47 58.58,31.02 57.01,31.12 C56.13,33.82 59.48,34.3 61.37,33.21 C61.37,33.57 61.12,35.73 58.21,35.9 C58.4062947,36.6121902 58.9791953,37.158176 59.7,37.32 C58.7121751,37.7107618 57.6501206,37.8780951 56.59,37.81 C56.7,38.98 57.97,39.92 59.59,40.08 C59.250761,40.6138677 58.7278823,41.0051375 58.12,41.18 C59.84,42.89 64.46,41.76 65.4,40.78 C65.83,40.33 66.4,40.97 65.85,41.65 C65.3,42.33 62.99,43.14 61.11,42.56 C60.8885815,43.1723605 61.0629218,43.8578352 61.55,44.29 C60.7628356,44.3568636 59.9850796,44.5077215 59.23,44.74 C59.41,45.53 60.31,45.99 60.62,46.3 C60.2379009,46.686001 59.9563378,47.159851 59.8,47.68 C60.64,48.09 62.95,48.73 64.18,47.32 C64.68,46.76 65.18,47.12 64.72,47.83 C62.9,50.33 58.56,50.37 57.02,49.59 C57.02,51.54 57.83,51.95 58.84,52.76 C55.71,56.37 57.78,59.58 55.56,62.76 C59.74,62.76 62.36,60.48 63.09,58.35 C63.1406114,59.1984032 63.7870983,59.8910678 64.63,60 C64.5799359,59.1550078 64.7780671,58.3138193 65.2,57.58 C66.05,58.26 67.59,58.42 69.6,58.5 C67.32,54.62 73.8,50.63 71.23,45.33 C70.85,44.54 71.96,44.03 72.07,44.84 C72.67,49.38 75.34,50.41 77.59,48.99 C76.91,48.25 76.59,48.27 76.2,47.59 C77.71,47.99 78.49,46.9 78.87,45.52 C74.76,44.08 76.98,40.52 74.38,37.17 M74.72,46.17 C74.8786762,46.9927234 75.1726626,47.7834455 75.59,48.51 C72.59,48.32 73.99,42.02 70.99,43.51 C70.6016174,43.7103766 70.3092745,44.0574804 70.1778519,44.4742776 C70.0464294,44.8910749 70.0867985,45.3430879 70.29,45.73 C72.29,49.78 67.79,53.35 68.04,56.89 C66.94,56.89 65.8,56.89 65.04,55.38 C64.5488116,56.2692659 64.127541,57.1953927 63.78,58.15 L62.88,56.63 C62.1656318,59.4393004 59.7138457,61.4622263 56.82,61.63 C58.32,59.24 56.51,55.97 60.19,52.5 C59.5309457,52.0504623 58.9089569,51.5488584 58.33,51 C62.85,51.53 67.55,48 65.41,46.27 C64.02,45.16 63.41,47.46 61.25,47.07 L62.09,46.35 C61.8,46.05 61.45,45.67 61.09,45.35 C61.7606305,45.23332 62.4065161,45.0033712 63,44.67 L62.46,43.76 C67.74,43.76 67.87,39.76 65.73,39.56 C64.73,39.48 63.42,41.34 60.16,40.95 C60.536508,40.3963281 60.8202296,39.7849756 61,39.14 C60.1614923,39.1378447 59.3295186,38.9924184 58.54,38.71 C60.13,38.5 60.54,37.97 61.85,36.97 L60.32,36.41 C62.55,35.3 62.41,33.41 62.48,31.34 C61.32,32.01 59.94,33.05 58.48,32.57 C58.14,32.45 57.91,32.29 57.9,31.93 C59.99,31.11 61.32,27.93 56.33,25.19 C53.15,23.47 45.33,19.69 50.64,15.6 C51.36,15.05 52.14,14.6 52.81,13.93 C53.64,14.57 52.5,16.14 52.22,16.72 C52.22,16.72 53.97,16.9 54.39,16.9 C57.11,16.9 59.96,15.28 58.52,12.19 C59.6,12.42 59.73,13.46 60.06,14.35 C60.75,13.88 61.95,12.87 62.89,13.01 C62.13,15.43 58.96,17.6 56.5,18.09 C58.99,19.44 63.6,20.45 66.03,17.54 C67.73,20.84 65.36,22.21 63.03,23.94 C71.9,27.94 70.59,32.52 76.4,36.09 C75.65,36.44 72.28,35.73 71.98,35.69 C72.8266577,36.6521281 73.5737959,37.6974515 74.21,38.81 C74.6039412,39.9124018 74.8690365,41.0566737 75,42.22 C75.1925645,43.8167963 76.1415112,45.2234701 77.55,46 C76.87,47.24 75.35,46.27 74.72,46.11 M32.51,56.07 L33.78,55 L33.58,54.61 C33.45,54.34 33.52,54.32 33.67,54.21 L34.33,53.71 C34.4775782,53.6015998 34.6712935,53.5788098 34.84,53.65 L36.84,54.12 L34.73,54.12 C34.3600416,54.1083612 34.0281511,54.3460112 33.92,54.7 L33.78,55 L33.23,56.11 C32.9715086,56.5966495 33.0563341,57.1944674 33.44,57.59 L33.82,58.04 L33,59.62 L33.66,59.62 L34.2,58.52 C34.6589786,58.1121969 35.0036564,57.5917335 35.2,57.01 C34.98,56.82 34.81,56.69 34.94,56.43 L35.18,55.91 C35.26,55.73 35.29,55.66 35.52,55.71 L37.63,56.16 C37.9509824,56.3246317 38.344254,56.2263138 38.55,55.93 C38.84,55.49 38.88,55.54 39.55,55.6 L40.62,55.72 C41.8293419,55.8727266 43.0558218,55.6344391 44.12,55.04 C44.32,55.49 44.72,55.84 44.9,56.19 C44.97,56.32 44.9,56.51 44.77,56.74 L43.6,59.62 L45.46,59.62 L46.46,56.99 C46.5371645,56.7843296 46.6563682,56.5970095 46.81,56.44 L46.21,59.62 L48.01,59.62 L48.49,56.47 C48.59,55.78 48.49,55.55 48.19,55.26 C47.44,54.63 47.46,53.26 47.19,52.49 C47.3247287,52.407963 47.4840823,52.3760923 47.64,52.4 C48.03,52.4 48.33,53.4 48.79,54.08 C49.71,55.38 50.97,56.81 52.42,54.79 C52.2805474,54.5645444 52.1233853,54.3505364 51.95,54.15 L51.55,53.68 C51.31,53.42 50.19,52.15 49.73,51.68 C48.8408035,50.7998235 47.4646348,50.6427832 46.4,51.3 C44.94,50.53 43.4,51.3 43.02,51.3 L40.5,51.15 C40.3301962,51.1402471 40.1764294,51.0464868 40.09,50.9 L40.56,50.75 C40.12,48.92 39.01,47.39 37.09,47.13 C37.09,47.13 36.97,46.55 36.68,46.44 L36.1,47.12 C35.9349726,47.1420029 35.7735759,47.1857145 35.62,47.25 L33.16,46.34 L35.01,48.21 C35.01,48.21 34.01,49.56 33.78,49.84 C33.6859359,49.9321636 33.6329286,50.0583103 33.6329286,50.19 C33.6329286,50.3216897 33.6859359,50.4478364 33.78,50.54 L34.14,51.01 C34.33,51.25 34.53,51.24 34.83,51.09 L35.23,50.88 C35.41,50.73 36,51.02 36.23,50.79 C36.0900016,51.2631428 35.9962291,51.7487501 35.95,52.24 L34.3,52.04 C34.0340535,51.972144 33.7516915,52.035304 33.54,52.21 L32.13,53.3 C31.6556786,53.671457 31.5202226,54.3318048 31.81,54.86 L32.51,56.07 Z M46.21,56.38 L45.09,59.15 L44.39,59.15 L45.51,56.47 C45.63,56.12 45.4,55.96 45.13,55.58 C45.5167477,55.8127148 45.9253664,56.0069762 46.35,56.16 C46.2953488,56.2279359 46.2483955,56.3017196 46.21,56.38 M35.38,50.38 L35.06,50.55 C34.84,50.68 34.72,50.74 34.53,50.49 L34.39,50.32 C34.2883014,50.1872377 34.2883014,50.0027623 34.39,49.87 L35.77,48.26 L34.5,47.26 L36.12,47.86 L36.71,47.12 C36.88,47.27 36.82,47.7 36.82,47.7 C38.4017561,47.9938743 39.5368777,49.3915988 39.5,51 C39.7302786,51.3481194 40.0904573,51.589439 40.5,51.67 L43.3,51.84 C43.77,51.84 44.93,50.96 46.42,51.79 C46.7820414,51.5535806 47.1917752,51.3999304 47.62,51.34 C48.8503156,51.3739062 49.9796464,52.0289181 50.62,53.08 C51.14,53.75 51.87,54.77 51.87,54.77 C51.56,55.14 51.25,55.26 50.99,55.17 C50.6453799,54.9715452 50.4125758,54.6241866 50.36,54.23 C50.147205,53.7215403 49.8018619,53.2795011 49.36,52.95 C49.5698619,53.4180379 49.7145433,53.9126463 49.79,54.42 C48.7,53.33 48.49,52.01 47.73,51.83 C47.2986301,51.7643913 46.8676517,51.9507604 46.62,52.31 C47.01,53.21 46.99,54.25 47.39,54.94 C47.69,55.46 47.75,55.51 47.89,55.62 C48.21,55.85 48.03,56.27 47.98,56.57 L47.56,59.18 L46.86,59.18 L47.32,56.63 C47.46,55.85 45.32,55.85 44.17,54.37 C43.17,55.48 40.55,55.21 39.4,55.03 C38.9568425,54.8758293 38.4660897,55.050504 38.22,55.45 C38.08,55.71 37.82,55.63 37.67,55.59 L35.57,55.14 C35.4342426,55.0792436 35.2787269,55.0807776 35.1441943,55.1442001 C35.0096618,55.2076225 34.9095186,55.3266135 34.87,55.47 L34.45,56.34 C34.3442384,56.5058492 34.3785365,56.7244998 34.53,56.85 L34.73,57.07 C34.6301388,57.3557588 34.4578622,57.6107283 34.23,57.81 L33.77,57.29 C33.5568347,56.9968411 33.5334169,56.6065438 33.71,56.29 L34.4,54.87 C34.4861496,54.6657457 34.6883798,54.5348908 34.91,54.54 L37.51,54.54 L36.71,53.24 C36.12,52.24 37.1,50.53 36.96,49.71 C36.88,50.81 35.56,50.31 35.35,50.46 M32.52,53.73 L33.76,52.79 C33.9182178,52.6242949 34.141287,52.5365299 34.37,52.55 L36.11,52.78 C36.1864515,53.075271 36.3114916,53.3557665 36.48,53.61 L34.63,53.22 C34.4189266,53.1698906 34.1968384,53.2301179 34.04,53.38 L33.2,54 C33.0409742,54.1425212 33.0072411,54.3786524 33.12,54.56 L33.26,54.87 L32.65,55.33 L32.41,54.89 C32.18,54.42 32.16,53.99 32.55,53.69 M37.91,20.25 C38.5050608,20.6337017 39.1304744,20.9681475 39.78,21.25 L39.78,20.45 L37.15,19.45 C37.15,19.45 37.15,19.77 37.91,20.28 M39.78,19.29 L39.78,18.51 L36.78,17.44 C37.1183291,17.7770803 37.4902667,18.0786514 37.89,18.34 C38.4870648,18.7059157 39.1123837,19.0235911 39.76,19.29 M39.78,17.5 L39.78,16.7 L36.51,15.5 C36.51,15.5 37.15,16.02 37.91,16.5 C38.5050608,16.8837017 39.1304744,17.2181475 39.78,17.5" id="Shape" fill="#D2D9DD"></path>
                <path d="M49,28.32 L52.34,28.32 C52.0945119,27.6488375 51.419546,27.2347481 50.71,27.32 C49.9963712,27.3016423 49.3339134,27.6890445 49,28.32 M45.46,15.5 L42.2,16.7 L42.2,17.5 C42.846911,17.2193443 43.4690991,16.8848346 44.06,16.5 C44.83,15.99 45.46,15.5 45.46,15.5 M44.82,19.42 L42.2,20.42 L42.2,21.22 C42.8495256,20.9381475 43.4749392,20.6037017 44.07,20.22 C44.82,19.71 44.82,19.39 44.82,19.39 M45.18,17.44 L42.18,18.51 L42.18,19.29 C42.8285952,19.0257293 43.4540849,18.7079672 44.05,18.34 C44.4497333,18.0786514 44.8216709,17.7770803 45.16,17.44 M31.31,27.35 C30.600454,27.2647481 29.9254881,27.6788375 29.68,28.35 L33,28.35 C32.6660866,27.7190445 32.0036288,27.3316423 31.29,27.35" id="Shape" fill="#D2D9DD"></path>
                <path d="M47.62,13.36 C47.62,11.48 44.47,9.8 40.99,9.8 C37.51,9.8 34.35,11.48 34.35,13.36 L34.42,13.82 L35.81,21.82 L29.23,25.65 C28.3194844,26.2749289 27.7078445,27.2484859 27.54,28.34 L28.74,28.34 C28.9156924,26.9549507 30.1252828,25.9368062 31.52,26 C33.04,26.09 33.93,27 34.83,28.33 L35.06,28.68 L35.39,29.2 L25.71,29.2 C26.5227715,30.5979839 26.9986828,32.1660944 27.1,33.78 L27.1,53.89 C27.1,59.06 31.1,61.53 35.38,61.53 C38.71,61.53 39.16,61.38 40.99,63.21 C42.82,61.38 43.26,61.53 46.6,61.53 C50.9,61.53 54.88,59.06 54.88,53.89 L54.88,33.77 C54.9778944,32.156847 55.450391,30.5887062 56.26,29.19 L46.58,29.19 L46.92,28.67 L47.15,28.32 C48,27 48.93,26.08 50.46,26 C51.8492231,25.9367778 53.0543499,26.9504766 53.23,28.33 L54.43,28.33 C54.2621555,27.2384859 53.6505156,26.2649289 52.74,25.64 L46.17,21.8 L47.55,13.8 L47.62,13.36 Z M35.7,14.28 L40.6,16 L40.6,23.68 L37,21.73 L35.7,14.28 Z M36.9,30.58 C37.6225583,31.517518 38.6660384,32.1550025 39.83,32.37 C39.9530109,32.9141009 40.2517184,33.4025755 40.68,33.76 C40.527453,34.4059868 40.6391372,35.0861432 40.9902508,35.649427 C41.3413644,36.2127109 41.9028433,36.6124952 42.55,36.76 C42.6830489,37.4536517 43.1861929,38.0182485 43.86,38.23 L42.86,39.42 C42.5338161,39.810523 42.0367352,40.0160828 41.53,39.97 L36.94,39.45 C37.14,38.93 36.61,38.34 35.16,38.6 L36.96,33.6 L35.86,31.26 L33.76,33 L33.61,38.29 L32.72,37.85 C31.56,37.35 31.22,39.45 32.32,39.46 L32.76,39.46 C32.76,39.68 32.76,39.92 32.97,39.99 C32.8603264,40.0547534 32.7930301,40.1726371 32.7930301,40.3 C32.7930301,40.4273629 32.8603264,40.5452466 32.97,40.61 C32.8466494,40.6768909 32.7636957,40.7997602 32.7477628,40.9391729 C32.7318299,41.0785856 32.7849223,41.217003 32.89,41.31 C32.7423388,41.5668073 32.7161367,41.8758659 32.8184564,42.1538667 C32.9207762,42.4318676 33.1410861,42.650196 33.42,42.75 C34.08,42.93 34.49,42.22 34.63,41.81 L41.75,44 C42.6502478,44.3205129 43.6547363,44.086002 44.32,43.4 L46.18,41.77 C45.8837544,42.6902076 46.3102044,43.6881006 47.18,44.11 C47.1191734,44.567382 47.092433,45.0286531 47.1,45.49 L28.49,45.49 L28.49,33.77 C28.4515313,32.6740949 28.2178711,31.59384 27.8,30.58 L36.9,30.58 Z M44.57,35 C44.1809666,35.7634425 44.2227621,36.6753449 44.68,37.4 L44.38,37.7 C43.04,37.53 42.51,35.54 42.51,35.54 C42.4947715,35.7163385 42.4947715,35.8936615 42.51,36.07 C41.7027096,35.7816677 41.192696,34.9837432 41.27,34.13 C41.5799295,34.3050689 41.9185422,34.4235834 42.27,34.48 L42.36,33.89 C41.5601631,33.7970031 40.8941009,33.233412 40.67,32.46 L40.54,32.46 L41.04,32.46 C41.5718354,32.4615017 42.1009435,32.383989 42.61,32.23 C43.0405919,32.7939055 43.6844058,33.1555987 44.39,33.23 C44.2544904,33.8237883 44.3177303,34.4456469 44.57,35 M46.57,40.28 C46.426363,40.4653887 46.3179059,40.6755243 46.25,40.9 L45.51,41.58 C45.5553069,40.4686896 45.0914328,39.3973613 44.25,38.67 L45.05,37.9 L45.2,38.05 C45.0829792,38.5275721 45.1619721,39.0321142 45.4193563,39.4510681 C45.6767406,39.870022 46.0911017,40.1685307 46.57,40.28 M43,40 L43.61,39.4 C44.4722977,40.112035 44.9224423,41.2073869 44.81,42.32 L44.14,42.93 C44.0092068,43.0554415 43.8650054,43.1661077 43.71,43.26 C44.0180619,42.1225444 43.75318,40.9063262 43,40 M41.68,40.51 C41.911498,40.5358917 42.1457569,40.5014418 42.36,40.41 C42.9623953,41.351757 43.0633418,42.5294655 42.63,43.56 C42.3180359,43.5598906 42.0078754,43.5126923 41.71,43.42 L41.47,43.35 C41.8794017,42.4586495 41.9470194,41.447942 41.66,40.51 M40.11,40.31 L40.97,40.42 C41.131076,41.3341213 40.9870061,42.2758465 40.56,43.1 L39.56,42.8 C40.0055195,42.0501967 40.2015971,41.1783516 40.12,40.31 M38.31,40.09 L39.31,40.22 C39.3898185,41.0477671 39.2191067,41.8804226 38.82,42.61 L37.75,42.3 C38.1656882,41.6424791 38.3455252,40.8631855 38.26,40.09 M34,39.78 C33.8427411,39.8611864 33.6532084,39.8471506 33.5096239,39.7436853 C33.3660393,39.64022 33.2927488,39.4648684 33.32,39.29 C33.8414952,39.0045579 34.4766299,39.0236885 34.98,39.34 C35.24,39.51 35.45,39.97 35.8,40.26 C35.7325082,40.7151233 35.6254355,41.1634901 35.48,41.6 C35.1299261,41.546438 34.8342924,41.3117118 34.7027652,40.9828939 C34.5712381,40.654076 34.6234375,40.2802165 34.84,40 C34.6428013,39.7549631 34.3016999,39.6800872 34.02,39.82 M33.34,41.74 C33.5519254,41.8205436 33.7740798,41.8710333 34,41.89 C34,42.09 33.8,42.29 33.55,42.23 C33.4519772,42.1996607 33.3722055,42.1278347 33.3317852,42.0335206 C33.2913648,41.9392065 33.2943679,41.8319057 33.34,41.74 M32.34,38.93 C32.2327943,38.8656088 32.1812864,38.7379335 32.2137979,38.6171764 C32.2463095,38.4964193 32.3549568,38.4118626 32.48,38.41 C32.77,38.41 33.16,38.75 33.55,38.92 C33.1494295,38.9867631 32.7405705,38.9867631 32.34,38.92 M33.34,40.92 C33.55,41.12 34.18,41.05 34.18,41.05 L34.18,41.17 C33.9,41.54 33.13,41.38 33.31,40.92 M34.16,40.49 C33.71,40.68 33.24,40.43 33.39,40.14 C33.6,40.33 34.19,40.23 34.19,40.23 L34.16,40.49 Z M34.83,35.21 L34,38.39 L34.3,33.28 L35.64,32.13 L36.33,33.63 L34.6,38.63 L35.05,35.28 C35.05,35.05 34.91,35.03 34.87,35.28 M35,39.06 C35.4142883,39.0353468 35.8300273,39.0554632 36.24,39.12 C36.45,39.2 36.31,39.54 36.05,39.51 C35.7030695,39.3922572 35.3682084,39.2415697 35.05,39.06 M36.57,39.84 L37.63,39.97 C37.6958822,40.699404 37.5389752,41.4316369 37.18,42.07 L36.18,41.77 C36.4156085,41.1517276 36.5539184,40.500659 36.59,39.84 M53.59,53.84 C53.685637,56.0453746 52.5232389,58.1144433 50.59,59.18 L51.26,57.8 L50.5,57.8 L49.63,59.56 C48.6695622,59.9129084 47.6531826,60.0890808 46.63,60.08 C43.2,60.08 42.29,60.23 41.02,61.49 C39.75,60.23 38.84,60.08 35.41,60.08 C34.387787,60.0877748 33.3722195,59.9151283 32.41,59.57 L33.28,57.8 L32.6,57.8 L31.84,59.35 C31.66,59.26 31.48,59.17 31.31,59.07 L31.94,57.8 L31.29,57.8 L30.82,58.75 C29.2868162,57.5930938 28.4166026,55.7592961 28.49,53.84 L28.49,46.14 L53.49,46.14 L53.59,53.84 Z M54.28,30.53 C53.8589037,31.543271 53.6218604,32.6235111 53.58,33.72 L53.58,45.5 L52.12,45.5 C51.5935462,44.7076316 51.2141532,43.8268979 51,42.9 C50.7638976,43.7857058 50.9127947,44.7299312 51.41,45.5 L49.63,45.5 C49.240954,44.6505528 48.9684884,43.7524253 48.82,42.83 C48.29,43.43 48.63,45.05 48.95,45.5 L47.79,45.5 C47.7709908,44.9126905 47.8418075,44.3259231 48,43.76 C47.39,43.65 46.74,43.33 46.74,42.65 C46.959977,42.8841727 47.2843198,42.9897727 47.6,42.93 L48.1,42.53 C46.45,42.59 46.38,40.78 47.68,39.93 C46.38,39.93 45.4,39.2 45.88,37.81 C45.4237532,37.539504 45.1021654,37.0897422 44.9937593,36.5705338 C44.8853531,36.0513254 45.0001066,35.5104594 45.31,35.08 C44.7975525,34.418444 44.6792244,33.5328918 45,32.76 C44.3277428,32.7652735 43.679377,32.5109422 43.19,32.05 L43.09,32.05 C43.8852282,31.749423 44.5787822,31.2292575 45.09,30.55 L54.28,30.53 Z M49.28,24.88 C47.92,25.12 46.76,26.78 45.8,28.27 L45.7,28.44 L44.7,28.44 L44.7,28.62 C44.59,29.77 43.49,31.34 41.08,31.34 C40.1656184,31.3684002 39.26913,31.0825121 38.54,30.53 C38.0787067,30.1736559 37.7312162,29.6906441 37.54,29.14 C37.4853198,28.9709716 37.4484529,28.7966918 37.43,28.62 L37.43,28.44 L36.43,28.44 L36.32,28.27 C35.32,26.78 34.2,25.12 32.85,24.88 L36.54,22.74 L41,25.25 L45.52,22.79 L49.28,24.88 Z M45,21.73 L41.38,23.63 L41.38,16 L46.3,14.33 L45,21.73 Z M41,15.11 L35.62,13 C36.08,11.92 38.18,11 40.99,11 C43.8,11 45.89,11.92 46.35,13 L41,15.11 Z" id="Shape" fill="#D2D9DD"></path>
                <path d="M52.92,38.16 L52.92,37.57 C51.11,37.57 50.7,35.4 50.7,35.4 C50.5030927,36.0757145 50.6477492,36.8049912 51.0876648,37.354388 C51.5275803,37.9037848 52.2075817,38.2043976 52.91,38.16 M50.64,41.77 L50.45,41.21 C48.92,41.6 48.12,39.16 48.12,39.16 C47.9036884,39.8805044 48.0932758,40.6616592 48.6158016,41.2028467 C49.1383275,41.7440342 49.9123515,41.9609054 50.64,41.77 M51.71,39.51 C49.87,39.8 49.11,37.66 49.11,37.66 C48.9971562,38.2247443 49.1235107,38.810998 49.4589671,39.2791207 C49.7944235,39.7472435 50.3089532,40.0553311 50.88,40.13 C50.7386788,40.7510656 50.976785,41.39706 51.4873746,41.7778386 C51.9979642,42.1586173 52.6850376,42.2025874 53.24,41.89 L53.06,41.36 C52.5606593,41.5450065 51.999195,41.3757528 51.6852959,40.9455949 C51.3713969,40.5154369 51.3814866,39.9291032 51.71,39.51 M50.61,33.4 L50.61,32.81 C48.18,32.31 48.39,30.64 48.39,30.64 C48.1979903,31.3153051 48.3445591,32.041778 48.783382,32.5898101 C49.2222048,33.1378422 49.8990521,33.439708 50.6,33.4 M35.23,57.85 L34.35,59.62 L35.01,59.62 L35.88,57.85 L35.23,57.85 L35.23,57.85 Z M36.54,57.85 L35.67,59.62 L36.33,59.62 L37.19,57.85 L36.54,57.85 Z M41.79,57.85 L40.93,59.62 L41.58,59.62 L42.45,57.85 L41.79,57.85 Z M43.11,57.85 L42.24,59.62 L42.89,59.62 L43.76,57.85 L43.11,57.85 Z M40.48,57.85 L39.61,59.62 L40.27,59.62 L41.13,57.85 L40.48,57.85 Z M48.16,59.62 L48.81,59.62 L49.68,57.85 L49.02,57.85 L48.16,59.62 Z M37.85,57.85 L36.99,59.62 L37.64,59.62 L38.51,57.85 L37.85,57.85 Z M39.16,57.85 L38.3,59.62 L38.95,59.62 L39.82,57.85 L39.16,57.85 Z M36.19,48.38 C36.0557266,48.3957128 35.9582686,48.5153203 35.97,48.65 C35.9505631,48.7416894 35.9887076,48.8360017 36.0664203,48.888399 C36.144133,48.9407963 36.245867,48.9407963 36.3235797,48.888399 C36.4012924,48.8360017 36.4394369,48.7416894 36.42,48.65 C36.4255219,48.583648 36.4043479,48.5178344 36.3611721,48.4671497 C36.3179963,48.4164651 36.256386,48.3850971 36.19,48.38 M41,8.61 C43.149089,8.56076173 45.2556027,9.21378097 47,10.47 C47.2802843,9.05361463 47.8120146,7.69888771 48.57,6.47 L46.4,6.71 L45.29,4.28 L43.11,5.41 L41,3.31 L38.89,5.41 L36.69,4.28 L35.55,6.69 L33.38,6.45 C34.1374205,7.67812058 34.6659637,9.03335957 34.94,10.45 C36.703706,9.18899702 38.8329209,8.54250272 41,8.61 M35.94,7.61 L36.94,5.42 L38.86,6.42 L41,4.39 L43.12,6.48 L45.03,5.48 L46.03,7.67 L47.3,7.48 C46.9664943,8.07956965 46.6982922,8.71319716 46.5,9.37 C43.0597379,7.46378757 38.8802621,7.46378757 35.44,9.37 C35.2417078,8.71319716 34.9735057,8.07956965 34.64,7.48 L35.94,7.61 Z" id="Shape" fill="#D2D9DD"></path>
                <path d="M43.2,4.29 C43.5171494,4.31902834 43.79838,4.08690148 43.83,3.77 C43.7550688,3.36130978 43.6095633,2.96878348 43.4,2.61 C43.4,2.61 42.71,3.35 42.69,3.67 C42.6609461,3.98163681 42.8886105,4.25840529 43.2,4.29 M46.76,5.58 C47.0418268,5.72738383 47.3897753,5.62032275 47.54,5.34 C47.6279652,4.93601414 47.6448848,4.51979277 47.59,4.11 C47.59,4.11 46.67,4.52 46.52,4.8 C46.3782884,5.08232445 46.4840885,5.42617497 46.76,5.58 M38.77,4.29 C38.9214022,4.27730589 39.0614711,4.20469211 39.1591054,4.08828197 C39.2567397,3.97187183 39.3038587,3.82130008 39.29,3.67 C39.29,3.35 38.58,2.61 38.58,2.61 C38.3704367,2.96878348 38.2249312,3.36130978 38.15,3.77 C38.181649,4.08268359 38.4565816,4.3132722 38.77,4.29 M35.22,5.58 C35.3549423,5.50805744 35.4553174,5.38490998 35.4985687,5.2382318 C35.54182,5.09155362 35.5243195,4.93364796 35.45,4.8 C35.31,4.52 34.39,4.11 34.39,4.11 C34.3345118,4.52021496 34.3548493,4.93713328 34.45,5.34 C34.5181742,5.47599919 34.6387449,5.57840946 34.7839833,5.62367858 C34.9292217,5.66894771 35.0866273,5.65317938 35.22,5.58 M77.86,25.13 C78.6020083,24.8113888 79.1904059,24.2158156 79.5,23.47 C77.57,23.19 72.5,21.04 68.24,22.79 C69.82,21.29 71.24,21.1 71.37,18.95 C71.7145084,19.2734277 72.1898419,19.4182357 72.6561599,19.3418223 C73.122478,19.2654088 73.5267347,18.9764663 73.75,18.56 C73.32,17.28 72.22,18.32 72.07,17.96 C71.92,17.6 73.45,18.12 73.79,16.45 C72.55,16 72.18,17 72,16.8 C71.82,16.6 72.8,16.15 72.06,14.8 C70.77,15.55 71.44,16.41 71.17,16.5 C70.9,16.59 71.1,15.59 69.67,15.64 C69.53,17.17 71.01,17.22 70.77,17.47 C70.53,17.72 70,16.59 69,17.19 C68.974095,17.6988919 69.1921305,18.1896924 69.5871162,18.5116059 C69.982102,18.8335193 70.5068002,18.9480466 71,18.82 C70.83,21.18 68.67,20.74 67.06,23.39 C70.47,25.14 72.06,28.19 74.06,30.29 C74.8254822,29.4927023 75.4782091,28.5943617 76,27.62 C77.0717222,28.6812791 78.7982778,28.6812791 79.87,27.62 C79.09,26.83 79.06,26.22 77.87,25.13 M74.57,25.56 C75.0820313,26.7846564 74.9270882,28.1867018 74.16,29.27 C73.1448632,27.0777316 71.6353532,25.1506246 69.75,23.64 C69.44,23.44 69.91,23.09 70.75,22.97 C73.37,22.48 76.45,23.59 77.91,23.97 C77.3624912,24.418222 76.7012499,24.7055678 76,24.8 C76.9110959,25.5120417 77.7158804,26.3504992 78.39,27.29 C77.39,27.54 76.78,26.89 74.56,25.56 M40.36,66.93 L38.88,66.87 L38.71,67.47 L38.9,67.47 C38.96,67.47 38.96,67.36 39.01,67.3 C39.178133,67.264369 39.351867,67.264369 39.52,67.3 L40.14,67.3 C39.77,68.06 38.82,68.77 38.83,69.3 C38.83,69.57 39.12,69.63 39.28,69.62 C39.44,69.61 39.67,69.4 39.75,69.07 C39.93,68.33 40.29,67.76 40.55,66.9 L40.37,66.9 L40.36,66.93 Z M41.36,67.81 L41.36,67.35 L42.64,67.35 L42.57,66.85 C42.22,66.85 41.71,66.97 41.23,66.98 L41.15,67.98 C41.74,67.98 42.15,68.21 42.15,68.84 C42.15,69.07 42,69.5 41.73,69.53 C41.6719138,69.5514317 41.6080862,69.5514317 41.55,69.53 C41.42,69.43 41.55,69.33 41.55,69.17 C41.5432278,69.0867796 41.5009149,69.0105161 41.4338894,68.9607258 C41.366864,68.9109354 41.2816302,68.89245 41.2,68.91 C41.1132306,68.9066638 41.0292722,68.9410874 40.9698195,69.0043759 C40.9103667,69.0676643 40.8812525,69.1536082 40.89,69.24 C40.89,69.61 41.43,69.71 41.67,69.71 C42.2,69.71 42.81,69.42 42.81,68.82 C42.81,68.04 41.93,67.88 41.31,67.82 M44.15,66.79 C43.9300253,66.7818471 43.7162062,66.8635733 43.55775,67.0163704 C43.3992938,67.1691675 43.309849,67.3798743 43.3099998,67.6 C43.3099998,68.34 44.11,68.6 44.7,68.3 C44.77,68.87 44.65,69.3 44.43,69.3 C44.21,69.3 44.27,69.16 44.25,69.04 C44.2365487,68.9493318 44.1810245,68.8703601 44.1002568,68.8270214 C44.0194892,68.7836826 43.9229869,68.7810791 43.84,68.82 C43.7665152,68.8383029 43.7040949,68.8866255 43.6679648,68.9531809 C43.6318347,69.0197363 43.6253165,69.0984058 43.65,69.17 C43.74,69.46 44.1,69.47 44.27,69.45 C44.5807467,69.4245834 44.868496,69.2761885 45.0693853,69.0377498 C45.2702746,68.7993111 45.3676859,68.4905528 45.34,68.18 C45.379168,67.8351869 45.2732283,67.4896099 45.04754,67.2259909 C44.8218518,66.9623719 44.49673,66.80444 44.15,66.79 M44.44,68.21 C43.98,68.21 43.92,67.5 43.92,67.21 C43.92,67.11 44.01,66.97 44.11,66.97 C44.53,66.97 44.64,67.97 44.67,68.21 C44.5942944,68.2271677 44.5157056,68.2271677 44.44,68.21 M37.84,66.64 C37.5313977,67.0177698 37.175091,67.3539083 36.78,67.64 L36.78,67.74 C36.9210435,67.675133 37.0579681,67.6016613 37.19,67.52 L36.78,68.92 C36.756408,68.9849551 36.6861193,69.0200994 36.62,69 L36.38,69 L36.38,69.17 L37.68,69.4 L37.68,69.24 L37.46,69.19 C37.427966,69.1851173 37.3992682,69.1674869 37.3804338,69.1411187 C37.3615994,69.1147505 37.3542294,69.081886 37.36,69.05 L37.96,66.72 L37.84,66.64 Z" id="Shape" fill="#D2D9DD"></path>
                <path d="M52.67,64.85 L52.67,62 C49.9233573,63.2046803 46.9912677,63.9317844 44,64.15 L43.83,65.15 C44.2376947,65.2108736 44.6482274,65.2509255 45.06,65.27 C43.7329427,65.437968 42.3975164,65.5314478 41.06,65.55 C39.705808,65.5329203 38.3536586,65.4394384 37.01,65.27 C37.4217726,65.2509255 37.8323053,65.2108736 38.24,65.15 L38.07,64.15 C35.0479443,63.9433452 32.0843344,63.2159752 29.31,62 L29.31,64.88 L26.31,66.12 C28.7792001,67.3708976 31.3825745,68.3370985 34.07,69 L33.72,70.21 C38.4749907,71.5431508 43.5050093,71.5431508 48.26,70.21 L47.91,69 C50.6038627,68.3417382 53.2140092,67.3788692 55.69,66.13 L52.67,64.85 Z M27.9,66.16 L29.9,65.34 L29.9,63 C31.6800111,63.6668258 33.513204,64.1819932 35.38,64.54 L34.23,68.3 C32.042096,67.8001077 29.9085359,67.0866881 27.86,66.17 M41,70.49 C38.8218218,70.4730082 36.6533447,70.1977526 34.54,69.67 L35.76,65.73 C37.4884558,66.0448121 39.2432487,66.1921611 41,66.17 C42.7567712,66.1927229 44.5116182,66.0453693 46.24,65.73 L47.46,69.67 C45.3464133,70.1964621 43.17809,70.4716982 41,70.49 M47.72,68.29 L46.57,64.53 C48.4192586,64.1713016 50.235509,63.6595404 52,63 L52,65.35 L54,66.17 C51.9567659,67.0914146 49.8260445,67.8050052 47.64,68.3 M6,27.62 C6.50449784,28.5900364 7.13679935,29.488039 7.88,30.29 C9.98,28.19 11.52,25.14 14.93,23.39 C13.32,20.74 11.15,21.18 11,18.82 C11.4936697,18.9527229 12.0210454,18.8399911 12.4173093,18.517036 C12.8135733,18.1940809 13.0303904,17.7002956 13,17.19 C11.92,16.6 11.53,17.78 11.24,17.48 C10.95,17.18 12.48,17.18 12.34,15.65 C10.91,15.65 11.17,16.65 10.84,16.51 C10.51,16.37 11.24,15.51 9.94,14.81 C9.21,16.16 10.21,16.57 10,16.81 C9.79,17.05 9.41,16.03 8.17,16.46 C8.5,18.13 10.11,17.46 9.89,17.97 C9.67,18.48 8.64,17.29 8.21,18.57 C8.43326529,18.9864663 8.83752198,19.2754088 9.30384005,19.3518223 C9.77015812,19.4282357 10.2454916,19.2834277 10.59,18.96 C10.72,21.12 12.14,21.29 13.72,22.8 C9.51,21.05 4.39,23.19 2.45,23.48 C2.75994578,24.2232448 3.34865313,24.8155418 4.09,25.13 C2.9,26.23 2.87,26.84 2.09,27.63 C3.15830471,28.6901114 4.88169529,28.6901114 5.95,27.63 M3.57,27.29 C4.25307836,26.3449628 5.07190186,25.5059215 6,24.8 C5.28646741,24.7269033 4.60928163,24.4490835 4.05,24 C5.51,23.62 8.59,22.51 11.21,23 C12.07,23.12 12.56,23.47 12.21,23.67 C10.318846,25.1748778 8.80816792,27.1034759 7.8,29.3 C7.03298104,28.2129114 6.87814307,26.80804 7.39,25.58 C5.17,26.92 4.6,27.58 3.56,27.31 M39.14,26 L39.14,27.27 C39.481114,26.9434959 39.9517578,26.7890659 40.42,26.85 L40.42,28.67 C40.4240583,29.1353331 40.3068808,29.5937039 40.08,30 L41.91,30 C41.6882431,29.6056449 41.5679717,29.1623588 41.56,28.71 L41.56,26.86 C42.0282422,26.7990659 42.498886,26.9534959 42.84,27.28 L42.84,26 L39.14,26 L39.14,26 Z" id="Shape" fill="#D2D9DD"></path>
                <path d="M81,26.56 C80.7989076,26.3389759 80.62129,26.0976841 80.47,25.84 C80.37,25.69 80.27,25.53 80.15,25.36 C80.4773249,24.9836899 80.7438701,24.5585673 80.94,24.1 L81.76,22.24 L79.76,21.95 C79.42,21.9 78.87,21.76 78.24,21.59 C76.7525272,21.1672446 75.2347063,20.8596686 73.7,20.67 C74.3185358,20.3953112 74.8260183,19.9195465 75.14,19.32 L75.47,18.73 C75.47,18.73 75.38,17.89 75.06,17.63 C75.1874731,17.3590759 75.2814978,17.0736439 75.34,16.78 L75.61,15.45 L74.28,15 C74.0881987,14.93251 73.8907454,14.88231 73.69,14.85 C73.6064348,14.5795917 73.4958781,14.318276 73.36,14.07 L72.6,12.68 L71.22,13.48 C70.8988675,13.6633962 70.6086412,13.8962522 70.36,14.17 C70.1423765,14.1292884 69.9213974,14.1091994 69.7,14.11 C69.1399533,14.0700133 68.577762,14.1483794 68.05,14.34 L66.94,13.2 L65.63,11.8 C64.493941,10.4921747 62.6451318,10.0642844 61.05,10.74 C60.1816657,9.92535708 59.0191031,9.49932483 57.83,9.56 C57.4050353,9.56764718 56.9809245,9.60104173 56.56,9.66 C55.3262671,9.89158584 54.1687284,10.4239849 53.19,11.21 L51.72,10.51 C51.0716461,11.4497352 50.1341149,12.1520058 49.05,12.51 C48.938366,12.0551958 48.7378491,11.6269733 48.46,11.25 L48.55,10.7 C48.7938893,9.49687375 49.247464,8.34601257 49.89,7.3 L51.65,4.57 L49.16,4.85 C49.1826373,4.55710341 49.1826373,4.26289659 49.16,3.97 L48.9,1.84 L47,2.72 L46.39,3 L46,2.19 L45.11,2.65 C45.0053394,2.38968092 44.8851225,2.13588973 44.75,1.89 L43.72,0 L42.26,1.58 C42.11,1.75 41.99,1.89 41.88,2.04 L41,1.16 L40.1,2 C39.99,1.86 39.87,1.71 39.72,1.55 L38.26,0 L37.26,1.89 C37.1248775,2.13588973 37.0046606,2.38968092 36.9,2.65 L36,2.19 L35.59,3 L35,2.72 L33,1.84 L32.86,4 C32.837194,4.28955163 32.837194,4.58044837 32.86,4.87 L30.37,4.59 L32.09,7.3 C32.7338279,8.35512023 33.1842198,9.51665723 33.42,10.73 L33.52,11.28 C33.2407443,11.6611397 33.0370751,12.0922395 32.92,12.55 C31.8933868,12.0752327 30.9874518,11.3744151 30.27,10.5 L28.77,11.22 C27.4564072,10.1701613 25.8313676,9.58627261 24.15,9.56 C22.9576614,9.47725366 21.7865425,9.90642142 20.93,10.74 C19.3348682,10.0642844 17.486059,10.4921747 16.35,11.8 C16.35,11.8 15.55,12.67 15.04,13.2 C14.6606703,13.5815932 14.2377635,13.9172335 13.78,14.2 C13.0671305,14.0566969 12.3328695,14.0566969 11.62,14.2 C11.369771,13.9238786 11.0758522,13.6907705 10.75,13.51 L9.37,12.71 L8.61,14.11 C8.47725284,14.3550342 8.37002356,14.6130547 8.29,14.88 C8.09017985,14.9025258 7.89274381,14.9426823 7.7,15 L6.42,15.44 L6.69,16.76 C6.74701462,17.0572447 6.84108195,17.3461657 6.97,17.62 C6.89453998,17.764586 6.83099607,17.9150848 6.78,18.07 L6.56,18.72 L6.89,19.31 C7.20144505,19.9078889 7.7051905,20.3834527 8.32,20.66 C6.78561996,20.8516675 5.26795052,21.1592129 3.78,21.58 C3.15,21.75 2.6,21.89 2.26,21.94 L0.26,22.24 L0.72,23.24 L1.08,24.07 C1.28300089,24.5241426 1.55263701,24.9454491 1.88,25.32 C1.76,25.49 1.25,26.32 1.03,26.52 L0.03,27.52 L1.03,28.59 C1.78656187,29.4449967 2.85924923,29.9542523 4,30 C4.49142195,29.9972391 4.97864198,29.9092688 5.44,29.74 C5.85631135,30.4283733 6.38339638,31.0433058 7,31.56 C6.03851035,32.7405237 4.83022263,33.6962315 3.46,34.36 L2.14,35 L2.69,36.45 C3.08567234,37.5334079 3.97909142,38.3598205 5.09,38.67 C4.8448816,39.4307726 4.66096265,40.2099202 4.54,41 C4.25,42.73 4.13,43.45 2.61,44 L1.24,44.48 L1.63,45.87 C1.84199989,46.765582 2.29102344,47.5876405 2.93,48.25 L2.02,49.25 C3.28475337,50.1744667 4.74615722,50.7939376 6.29,51.06 C7.2586066,51.1397599 8.21626813,50.8096569 8.93,50.15 C9.26915826,51.2589935 9.70413068,52.3363867 10.23,53.37 C11.18,55.37 11.69,56.57 11.05,57.65 L9.61,60.12 L12.45,60 C13.5858809,59.9846216 14.7176926,59.860725 15.83,59.63 C15.8349463,59.6798777 15.8349463,59.7301223 15.83,59.78 L15.6,61.88 L18.08,61.36 C18.3358612,61.2843756 18.5837087,61.1838969 18.82,61.06 C20.78029,63.2046729 23.5867246,64.3755452 26.49,64.26 L26.7,64.26 L22.65,65.92 L25.6,67.46 C27.6953026,68.5181854 29.8890789,69.3689017 32.15,70 L31.81,71.17 L33.29,71.61 C38.3242034,73.0366986 43.6557966,73.0366986 48.69,71.61 L50.17,71.17 L49.83,70 C52.0983678,69.3547467 54.2986986,68.4906899 56.4,67.42 L59.4,65.88 L55.34,64.22 L55.55,64.22 C58.4532754,64.3355452 61.25971,63.1646729 63.22,61.02 C63.4547607,61.1397061 63.6989055,61.2400395 63.95,61.32 L66.44,61.84 L66.21,59.74 C66.2050537,59.6901223 66.2050537,59.6398777 66.21,59.59 C67.3223928,59.8201846 68.4541527,59.9440755 69.59,59.96 L72.42,60.08 L70.99,57.63 C70.35,56.55 70.86,55.36 71.81,53.35 C72.3374614,52.3171122 72.7724912,51.2395768 73.11,50.13 C73.6177148,50.517526 74.205213,50.7873653 74.83,50.92 C75.1195458,51.0056488 75.4183763,51.0560135 75.72,51.07 C76.7057875,51.1124763 77.675294,50.8081787 78.46,50.21 L80.02,49.21 L79.11,48.21 C79.7427697,47.547012 80.1909593,46.7299279 80.41,45.84 L80.8,44.44 L79.38,44 C77.85,43.47 77.73,42.75 77.44,41 C77.3286565,40.1819171 77.1445945,39.3753907 76.89,38.59 C78.0009086,38.2798205 78.8943277,37.4534079 79.29,36.37 L79.84,35 L78.56,34.4 C77.1770196,33.7296657 75.9608601,32.759471 75,31.56 C75.6137395,31.0277901 76.1371892,30.3996505 76.55,29.7 C78.0938587,30.2813403 79.8355805,29.8881751 80.98,28.7 L81.98,27.62 L81,26.56 Z" id="Path" fill="#FFFFFF" fill-rule="nonzero"></path>
                <path d="M28.49,45.51 L28.49,33.78 C28.4515313,32.6840949 28.2178711,31.60384 27.8,30.59 L36.9,30.59 C37.9107464,31.8051171 39.4094565,32.5078977 40.99,32.5078977 C42.5705435,32.5078977 44.0692536,31.8051171 45.08,30.59 L54.18,30.59 C53.7540748,31.601745 53.5168362,32.682875 53.48,33.78 L53.48,45.51 L28.49,45.51 Z M40.99,61.51 C39.72,60.25 38.81,60.11 35.38,60.11 C31.28,60.11 28.49,57.71 28.49,53.86 L28.49,46.2 L53.49,46.2 L53.49,53.89 C53.49,57.74 50.72,60.14 46.61,60.14 C43.18,60.14 42.27,60.28 41,61.54" id="Shape" fill="#FFE60D"></path>
                <path d="M29.94,63 L29.94,65.34 L27.94,66.16 C29.9826871,67.0828102 32.1135516,67.7964489 34.3,68.29 L35.45,64.53 C33.5749786,64.1698509 31.7322672,63.6581724 29.94,63 M41,66.17 C39.2465145,66.193525 37.4949076,66.0461622 35.77,65.73 L34.55,69.67 C36.6599568,70.1977101 38.8251194,70.472971 41,70.49 C43.17809,70.4716982 45.3464133,70.1964621 47.46,69.67 L46.23,65.73 C44.5050924,66.0461622 42.7534855,66.193525 41,66.17 M52,63 C50.2174762,63.6566181 48.3848584,64.1682797 46.52,64.53 L47.67,68.29 C49.8564484,67.7964489 51.9873129,67.0828102 54.03,66.16 L52.03,65.34 L52,63 Z M25.68,25.2 C28.87,23.48 36.68,19.7 31.38,15.62 C30.66,15.06 29.87,14.62 29.2,13.94 C28.38,14.58 29.51,16.16 29.79,16.73 C29.79,16.73 28.04,16.91 27.61,16.91 C24.9,16.91 22.05,15.29 23.5,12.21 C22.42,12.43 22.28,13.47 21.95,14.36 C21.26,13.89 20.06,12.89 19.13,13.03 C19.88,15.44 23.06,17.61 25.52,18.1 C23,19.46 18.41,20.47 16,17.55 C14.29,20.85 16.67,22.23 19,23.95 C10.14,27.95 11.45,32.53 5.64,36.1 C6.39,36.45 9.75,35.74 10.05,35.7 C9.20682149,36.6625874 8.4630452,37.7078946 7.83,38.82 C7.4221365,39.9172248 7.14358938,41.0582612 7,42.22 C6.81949531,43.8268619 5.85788036,45.2412216 4.43,46 C5.12,47.24 6.64,46.27 7.27,46.1 C7.1081912,46.9218422 6.81439,47.7120662 6.4,48.44 C9.4,48.25 8.01,41.96 10.99,43.44 C11.7995135,43.8617123 12.1166807,44.8578851 11.7,45.67 C9.7,49.67 14.19,53.28 13.95,56.83 C15.05,56.83 16.18,56.83 16.9,55.31 C17.3928153,56.1998672 17.8173684,57.1258609 18.17,58.08 L19.06,56.57 C19.7754914,59.3826567 22.2323773,61.4064507 25.13,61.57 C23.62,59.18 25.43,55.91 21.76,52.44 C22.4277993,52.0117497 23.0598607,51.5301791 23.65,51 C19.14,51.53 14.44,48 16.57,46.27 C17.97,45.17 18.57,47.46 20.73,47.08 L19.89,46.35 C20.19,46.06 20.53,45.68 20.89,45.35 C20.2141541,45.2301276 19.5644093,44.9932414 18.97,44.65 L19.52,43.75 C14.24,43.75 14.1,39.7 16.25,39.54 C17.25,39.47 18.56,41.33 21.81,40.94 C21.4396537,40.3904003 21.1657286,39.7816777 21,39.14 C21.8350966,39.1462145 22.6646552,39.0040044 23.45,38.72 C21.86,38.51 21.45,37.98 20.14,36.98 L21.68,36.42 C19.45,35.31 19.59,33.37 19.52,31.35 C20.68,32.02 22.05,33.06 23.52,32.58 C23.87,32.46 24.09,32.3 24.1,31.94 C22.01,31.12 20.68,27.94 25.67,25.2 M21.87,25.52 C19.08,28.52 20.28,30.28 20.87,30.84 C19.87,30.61 18.28,29.29 18.63,28.01 C18.3,28.4 17.97,28.83 17.63,29.28 C16.93,30.2 16.31,31.1 15.76,31.98 C14.92,34.5 16.47,37.09 19.11,38.24 C16.7467369,37.9035264 14.9621395,35.925317 14.87,33.54 C13.6139921,35.6959636 12.9258344,38.1354825 12.87,40.63 C12.874183,41.338524 12.9175827,42.0462734 13,42.75 C13.67,44.03 14.76,44.5 16.68,44.75 C14.93,44.87 14,44.75 13.24,43.99 C14.44,49.11 20.01,53.55 22.24,57.35 C20,54.38 15.33,50 13.69,46.8 C13.5548401,48.8941922 14.1213435,50.9737172 15.3,52.71 C13.19,50.63 13.02,47.49 13.16,45.66 C12.5898387,44.2296306 12.2783317,42.7093412 12.24,41.17 C12.1909124,39.7993806 12.2948888,38.4275628 12.55,37.08 C11.21,38.97 9.29,39.7 8.35,42.58 C8.53,38.87 11.35,38.81 13.35,34.3 C14.2415832,32.3211868 15.3375363,30.4409738 16.62,28.69 C14.7495597,29.1594745 13.0760788,30.2097763 11.84,31.69 C13.22,28.5 21,24.91 24.6,21.44 C23.53,21.67 19.14,21.78 17.33,20.56 C20.62,21.46 27.95,20.44 30.72,18.56 C28.81,21.31 24.65,21.47 19.58,26.94 C20.2973715,26.3967863 21.0679802,25.9277201 21.88,25.54 M75,42.22 C74.8486188,41.0577011 74.5633926,39.9167961 74.15,38.82 C73.5137959,37.7074515 72.7666577,36.6621281 71.92,35.7 C72.22,35.7 75.59,36.45 76.34,36.1 C70.55,32.53 71.86,28 63,24 C65.32,22.28 67.7,20.9 66,17.6 C63.58,20.52 59,19.51 56.47,18.15 C58.94,17.66 62.11,15.49 62.86,13.08 C61.93,12.94 60.73,13.94 60.04,14.41 C59.71,13.52 59.58,12.48 58.5,12.26 C59.94,15.34 57.09,16.95 54.37,16.96 C53.95,16.96 52.2,16.78 52.2,16.78 C52.48,16.21 53.61,14.63 52.78,13.99 C52.0853101,14.5860514 51.3610606,15.1467607 50.61,15.67 C45.33,19.75 53.12,23.54 56.31,25.25 C61.31,27.95 59.97,31.17 57.88,31.99 C57.88,32.35 58.11,32.51 58.46,32.63 C59.91,33.11 61.29,32.07 62.46,31.4 C62.39,33.4 62.53,35.4 60.31,36.47 L61.84,37.03 C60.51,38.03 60.12,38.56 58.53,38.77 C59.3163053,39.0514876 60.1448344,39.1969029 60.98,39.2 C60.812107,39.8392017 60.5419534,40.4470474 60.18,41 C63.43,41.39 64.74,39.53 65.74,39.6 C67.88,39.77 67.74,43.8 62.47,43.81 L63.02,44.71 C62.4255907,45.0532414 61.7758459,45.2901276 61.1,45.41 C61.45,45.7 61.79,46.08 62.1,46.41 L61.25,47.14 C63.41,47.52 64.02,45.23 65.42,46.33 C67.55,48.03 62.85,51.59 58.34,51.06 C58.9229782,51.6374834 59.5553924,52.1628221 60.23,52.63 C56.56,56.1 58.36,59.37 56.86,61.77 C59.7514005,61.5960039 62.1999871,59.5757179 62.92,56.77 L63.82,58.29 C64.1707768,57.3318737 64.5953851,56.4024162 65.09,55.51 C65.8,56.99 66.94,57.02 68.09,57.03 C67.85,53.48 72.3,49.91 70.34,45.87 C70.0933522,45.4744686 70.0243683,44.9934603 70.1499107,44.5445513 C70.275453,44.0956423 70.5839524,43.7202013 71,43.51 C74,42 72.6,48.29 75.59,48.51 C75.17561,47.7820662 74.8818088,46.9918422 74.72,46.17 C75.35,46.34 76.87,47.31 77.55,46.07 C76.1227832,45.2795542 75.1709712,43.8425046 75,42.22 M69.41,37.08 C69.6700616,38.4269041 69.7740808,39.7992856 69.72,41.17 C69.6760754,42.7086985 69.3647664,44.2280219 68.8,45.66 C68.93,47.49 68.8,50.66 66.66,52.71 C67.8337791,50.9714771 68.3998202,48.893649 68.27,46.8 C66.62,49.98 61.92,54.38 59.65,57.33 C61.92,53.53 67.5,49.09 68.65,43.97 C67.88,44.76 66.96,44.85 65.21,44.74 C67.13,44.5 68.21,44.03 68.89,42.74 C68.9920275,42.0339843 69.0554551,41.3229273 69.08,40.61 C69.0228619,38.115678 68.3347943,35.6764782 67.08,33.52 C66.9691186,35.8995774 65.1948755,37.8704938 62.84,38.23 C65.47,37.07 67.03,34.48 66.18,31.96 C65.63,31.08 65.02,30.18 64.32,29.26 C63.98,28.81 63.64,28.39 63.32,27.99 C63.67,29.27 62.12,30.59 61.08,30.82 C61.64,30.27 62.85,28.48 60.08,25.5 C60.8932653,25.8854151 61.6641039,26.3546212 62.38,26.9 C57.31,21.43 53.15,21.27 51.23,18.52 C54.01,20.42 61.34,21.44 64.63,20.52 C62.81,21.74 58.43,21.63 57.36,21.4 C61,24.91 68.76,28.5 70.11,31.69 C68.8742738,30.2141488 67.2054573,29.1645787 65.34,28.69 C66.6100191,30.4472632 67.7020636,32.3265176 68.6,34.3 C70.68,38.81 73.45,38.86 73.6,42.58 C72.6,39.7 70.73,38.97 69.39,37.08" id="Shape" fill="#FFFFFF" fill-rule="nonzero"></path>
                <path d="M45.07,30.59 C44.0942868,31.8388536 42.5842838,32.5511892 41,32.51 C40.6104384,32.5062404 40.2220816,32.4660656 39.84,32.39 C39.9578163,32.9334138 40.2577028,33.4202883 40.69,33.77 C40.5343606,34.4147671 40.6434884,35.0950114 40.9930001,35.6587399 C41.3425118,36.2224685 41.9032773,36.6226973 42.55,36.77 C42.7003743,37.4582916 43.2017986,38.016696 43.87,38.24 L42.87,39.43 C42.5480157,39.8203254 42.0538768,40.0262166 41.55,39.98 L36.96,39.45 C37.16,38.94 36.63,38.36 35.18,38.61 L36.98,33.61 L35.88,31.27 L33.76,33 L33.61,38.28 L32.71,37.85 C31.56,37.35 31.22,39.45 32.32,39.46 L32.76,39.46 C32.7169437,39.6727313 32.8132442,39.8894074 33,40 C32.8949977,40.0658402 32.8312459,40.1810628 32.8312459,40.305 C32.8312459,40.4289372 32.8949977,40.5441598 33,40.61 C32.8766494,40.6768909 32.7936957,40.7997602 32.7777628,40.9391729 C32.7618299,41.0785856 32.8149223,41.217003 32.92,41.31 C32.7723388,41.5668073 32.7461367,41.8758659 32.8484564,42.1538667 C32.9507762,42.4318676 33.1710861,42.650196 33.45,42.75 C34.11,42.92 34.52,42.21 34.66,41.8 L41.75,44 C42.6520349,44.3206644 43.6582841,44.081827 44.32,43.39 L46.18,41.77 C45.8837544,42.6902076 46.3102044,43.6881006 47.18,44.11 C47.1147282,44.5669473 47.0879674,45.0285712 47.1,45.49 L53.52,45.49 L53.52,33.78 C53.5568362,32.682875 53.7940748,31.601745 54.22,30.59 L45.07,30.59 L45.07,30.59 Z M34.39,50.33 L34.53,50.5 C34.72,50.74 34.84,50.69 35.06,50.56 L35.38,50.39 C35.58,50.23 36.91,50.74 36.99,49.64 C37.13,50.46 36.16,52.19 36.74,53.16 L37.54,54.47 L34.94,54.47 C34.7183798,54.4648908 34.5161496,54.5957457 34.43,54.8 L33.75,56.21 C33.5682089,56.5253354 33.5918086,56.9186635 33.81,57.21 L34.27,57.73 C34.4931949,57.528663 34.6617682,57.2740829 34.76,56.99 L34.56,56.78 C34.4070554,56.6510574 34.3728853,56.4289518 34.48,56.26 L34.9,55.39 C34.9417843,55.2484292 35.0428564,55.131906 35.1771024,55.0705364 C35.3113483,55.0091668 35.4655988,55.0089712 35.6,55.07 L37.7,55.52 C37.86,55.52 38.11,55.63 38.25,55.37 C38.5107836,54.9890899 38.998414,54.8361888 39.43,55 C40.58,55.17 43.25,55.45 44.2,54.34 C45.32,55.82 47.5,55.82 47.35,56.59 L46.89,59.14 L47.59,59.14 L48.01,56.54 C48.06,56.23 48.24,55.82 47.91,55.54 C47.78,55.44 47.72,55.39 47.42,54.87 C47.02,54.17 47.04,53.13 46.66,52.24 C46.8992376,51.8802574 47.3212759,51.6866619 47.75,51.74 C48.52,51.93 48.75,53.26 49.82,54.34 C49.7457911,53.8355879 49.6010414,53.3441122 49.39,52.88 C49.8332524,53.2038658 50.1791425,53.6431462 50.39,54.15 C50.4490522,54.547017 50.6842445,54.8961305 51.03,55.1 C51.29,55.19 51.59,55.1 51.9,54.7 C51.9,54.7 51.18,53.7 50.66,53 C50.0199211,51.950015 48.8893826,51.2980711 47.66,51.27 C47.2305891,51.3252087 46.8198304,51.4792433 46.46,51.72 C44.97,50.88 43.81,51.72 43.35,51.72 L40.55,51.55 C40.1404573,51.469439 39.7802786,51.2281194 39.55,50.88 C39.5969606,49.2811449 38.4871695,47.8801918 36.92,47.56 C36.92,47.56 36.98,47.14 36.81,46.99 L36.22,47.72 L34.6,47.13 L35.87,48.13 L34.49,49.74 C34.3883014,49.8727623 34.3883014,50.0572377 34.49,50.19" id="Shape" fill="#FFFFFF" fill-rule="nonzero"></path>
                <path d="M32.55,53.66 C32.16,53.96 32.18,54.38 32.42,54.85 L32.65,55.29 L33.26,54.83 L33.12,54.53 C33.0303518,54.3544411 33.0625276,54.1412765 33.2,54 L34.08,53.34 C34.2295716,53.1846897 34.4519546,53.1233427 34.66,53.18 L36.51,53.57 C36.3428089,53.3186539 36.2178277,53.0416685 36.14,52.75 L34.4,52.52 C34.1726412,52.5025625 33.949247,52.5867931 33.79,52.75 L32.55,53.66 Z M44.39,59.15 L45.09,59.15 L46.21,56.38 C46.2488054,56.3072963 46.2922276,56.2371527 46.34,56.17 C45.9185297,56.0055407 45.5106115,55.8082688 45.12,55.58 C45.41,55.96 45.63,56.12 45.51,56.47 L44.39,59.15 Z M45,21.74 L46.29,14.29 L41.37,16 L41.37,23.68 L45,21.74 Z M42.22,16.74 L45.48,15.54 C45.48,15.54 44.84,16.05 44.09,16.54 C43.4959953,16.9254934 42.8704293,17.2600206 42.22,17.54 L42.22,16.74 Z M42.22,18.54 L45.22,17.48 C44.876484,17.8082655 44.5050864,18.1060527 44.11,18.37 C43.5134599,18.7511819 42.8882513,19.085518 42.24,19.37 L42.22,18.54 Z M42.22,20.46 L44.84,19.46 C44.84,19.46 44.84,19.78 44.09,20.29 C43.4949392,20.6737017 42.8695256,21.0081475 42.22,21.29 L42.22,20.46 Z" id="Shape" fill="#FFFFFF" fill-rule="nonzero"></path>
                <path d="M36.24,28.33 L36.35,28.5 L37.35,28.5 L37.35,28.68 C37.3732795,28.8558974 37.4100546,29.0297435 37.46,29.2 C37.6537634,29.7493175 38.0007742,30.2316626 38.46,30.59 C39.18913,31.1425121 40.0856184,31.4284002 41,31.4 C43.41,31.4 44.51,29.83 44.61,28.68 L44.61,28.5 L45.61,28.5 L45.72,28.33 C46.72,26.84 47.84,25.18 49.2,24.94 L45.52,22.8 L41,25.26 L36.46,22.8 L32.77,24.94 C34.12,25.18 35.29,26.84 36.24,28.33" id="Path" fill="#FFFFFF" fill-rule="nonzero"></path>
                <path d="M40.61,23.64 L40.61,16 L35.7,14.29 L37,21.74 L40.61,23.64 Z M39.78,21.23 C39.1343071,20.9468374 38.5123202,20.6124358 37.92,20.23 C37.15,19.71 37.15,19.39 37.15,19.39 L39.78,20.39 L39.78,21.23 Z M39.78,16.72 L39.78,17.51 C39.13213,17.2313269 38.509776,16.896728 37.92,16.51 C37.15,15.99 36.51,15.51 36.51,15.51 L39.78,16.72 Z M39.78,18.52 L39.78,19.31 C39.1343071,19.0268374 38.5123202,18.6924358 37.92,18.31 C37.5183152,18.0508756 37.1431661,17.752766 36.8,17.42 L39.78,18.52 Z M41,11 C38.19,11 36.09,11.92 35.64,13 L41,15.12 L46.35,13 C45.89,11.93 43.79,11 40.99,11 M41,7.93 C42.9349063,7.93879829 44.8365403,8.43397966 46.53,9.37 C46.7282922,8.71319716 46.9964943,8.07956965 47.33,7.48 L46.06,7.67 L45,5.48 L43.08,6.48 L41,4.41 L38.88,6.5 L37,5.48 L36,7.67 L34.73,7.48 C35.0635057,8.07956965 35.3317078,8.71319716 35.53,9.37 C37.2061123,8.44483062 39.08561,7.95004514 41,7.93 M76,24.81 C76.703956,24.7278905 77.3699501,24.4469242 77.92,24 C76.45,23.61 73.38,22.5 70.76,23 C69.89,23.11 69.42,23.46 69.76,23.66 C71.6487612,25.1672506 73.1589552,27.0952308 74.17,29.29 C74.9441223,28.2099319 75.1030818,26.8057893 74.59,25.58 C76.8,26.91 77.38,27.58 78.41,27.31 C77.7371242,26.3600762 76.9246264,25.5172362 76,24.81 M7.84,29.28 C8.85104475,27.0852308 10.3612388,25.1572506 12.25,23.65 C12.57,23.45 12.08,23.1 11.25,22.99 C8.63,22.49 5.55,23.6 4.09,23.99 C4.63523365,24.4402249 5.29805899,24.7247886 6,24.81 C5.08047533,25.5158634 4.27154925,26.3551242 3.6,27.3 C4.6,27.55 5.22,26.9 7.43,25.57 C6.91796873,26.7946564 7.07291175,28.1967018 7.84,29.28" id="Shape" fill="#FFFFFF" fill-rule="nonzero"></path>
                <path d="M23.2,52.73 C24.2,51.92 25.06,51.52 25.02,49.56 C23.49,50.34 19.14,50.3 17.33,47.8 C16.82,47.09 17.33,46.74 17.86,47.29 C19.1,48.7 21.4,48.07 22.24,47.66 C22.0899102,47.1342194 21.8075989,46.6556674 21.42,46.27 C21.74,45.96 22.63,45.5 22.81,44.71 C22.0536305,44.4848661 21.2762775,44.337437 20.49,44.27 C20.9812854,43.8361303 21.1559908,43.1452499 20.93,42.53 C19.05,43.11 16.73,42.33 16.2,41.63 C15.67,40.93 16.2,40.3 16.65,40.76 C17.58,41.76 22.21,42.87 23.92,41.16 C23.3116326,40.9856277 22.7907078,40.5895822 22.46,40.05 C24.05,39.9 25.32,38.96 25.46,37.79 C24.3998794,37.8580951 23.3378249,37.6907618 22.35,37.3 C23.0708047,37.138176 23.6437053,36.5921902 23.84,35.88 C20.93,35.71 20.7,33.54 20.68,33.19 C22.58,34.28 25.91,33.79 25.05,31.1 C23.47,31.02 21.88,28.47 26.22,26.1 C30.17,23.97 34.65,21.67 34.22,17.88 C34,15.48 30,13.82 29.46,12.6 C27.79,13.39 27.46,14.31 28.21,15.85 C28.21,15.85 24.5,16.22 24.21,13.94 C24.2138642,12.8865549 24.6867036,11.88956 25.5,11.22 C25.09,11.22 22.29,10.47 21.5,12.75 C19.93,11.68 18.59,11.75 17.5,12.85 C19.18,13.85 20.22,17.28 23.01,18.29 C21.01,19.37 17.82,18.92 15.95,15.62 C14.19,18.28 13.17,20.92 16.95,23.74 C10.05,26.88 10.1,32.89 4.09,35.74 C4.7,37.37 5.98,37.37 7.62,37.12 C5,40.5 7.23,44 3.12,45.48 C3.5,46.85 4.27,48 5.79,47.55 C5.36,48.22 5.07,48.21 4.4,48.95 C6.65,50.36 9.32,49.34 9.92,44.8 C10.03,43.98 11.14,44.49 10.76,45.29 C8.2,50.58 14.67,54.57 12.38,58.45 C14.38,58.37 15.94,58.21 16.78,57.53 C17.2162359,58.2764192 17.4150396,59.1379019 17.35,60 C18.2561462,59.9437266 18.9707948,59.207422 19,58.3 C19.74,60.44 22.35,62.72 26.53,62.72 C24.31,59.55 26.38,56.34 23.25,52.72 M19.11,56.63 L18.22,58.15 C17.8692232,57.1918737 17.4446149,56.2624162 16.95,55.37 C16.23,56.85 15.1,56.88 14,56.89 C14.24,53.34 9.79,49.77 11.75,45.73 C12.1541101,44.9097361 11.8187698,43.9171288 11,43.51 C8,42 9.4,48.29 6.41,48.51 C6.82439,47.7820662 7.1181912,46.9918422 7.28,46.17 C6.65,46.34 5.13,47.31 4.44,46.07 C5.88320067,45.2952261 6.84381341,43.8505546 7,42.22 C7.15327629,41.0570418 7.44189949,39.9159733 7.86,38.82 C8.46775359,37.7113919 9.18464011,36.6662115 10,35.7 C9.7,35.7 6.34,36.45 5.59,36.1 C11.43,32.53 10.12,28 19,24 C16.68,22.28 14.3,20.9 16,17.6 C18.42,20.52 23,19.51 25.53,18.15 C23.06,17.66 19.89,15.49 19.14,13.08 C20.07,12.94 21.27,13.94 21.96,14.41 C22.29,13.52 22.42,12.48 23.5,12.26 C22.06,15.34 24.91,16.95 27.62,16.96 C28.05,16.96 29.8,16.78 29.8,16.78 C29.52,16.21 28.39,14.63 29.21,13.99 C29.88,14.62 30.67,15.11 31.39,15.67 C36.66,19.75 28.88,23.54 25.69,25.25 C20.69,27.95 22.03,31.17 24.12,31.99 C24.12,32.35 23.89,32.51 23.54,32.63 C22.08,33.11 20.71,32.07 19.54,31.4 C19.61,33.4 19.47,35.4 21.7,36.47 L20.16,37 C21.48,38 21.88,38.53 23.47,38.74 C22.6846552,39.0240044 21.8550966,39.1662145 21.02,39.16 C21.1721542,39.8136571 21.4360304,40.4361342 21.8,41 C18.55,41.39 17.25,39.53 16.24,39.6 C14.09,39.76 14.24,43.8 19.51,43.81 L18.96,44.71 C19.5544093,45.0532414 20.2041541,45.2901276 20.88,45.41 C20.53,45.69 20.19,46.08 19.88,46.41 L20.73,47.14 C18.57,47.52 17.96,45.23 16.56,46.33 C14.44,48 19.14,51.51 23.65,51 C23.0648854,51.5751245 22.4326806,52.1002893 21.76,52.57 C25.43,56.04 23.62,59.31 25.13,61.71 C22.2360392,61.5371075 19.7839603,59.5172732 19.06,56.71" id="Shape" fill="#231F20"></path>
                <path d="M13.27,44 C14.03,44.79 14.96,44.88 16.71,44.77 C14.79,44.53 13.71,44.06 13.03,42.77 C12.9279725,42.0639843 12.8645449,41.3529273 12.84,40.64 C12.895776,38.1486264 13.5839964,35.7123263 14.84,33.56 C14.9555053,35.9357454 16.7286562,37.9012664 19.08,38.26 C16.45,37.09 14.9,34.5 15.74,32 C16.29,31.13 16.91,30.22 17.61,29.3 C17.95,28.85 18.29,28.43 18.61,28.03 C18.26,29.31 19.81,30.63 20.85,30.85 C20.28,30.31 19.08,28.52 21.85,25.54 C21.0379802,25.9277201 20.2673715,26.3967863 19.55,26.94 C24.62,21.47 28.78,21.31 30.7,18.56 C27.92,20.46 20.59,21.48 17.29,20.56 C19.11,21.78 23.5,21.67 24.57,21.44 C21,24.91 13.22,28.5 11.87,31.7 C13.1042367,30.2176679 14.7784621,29.1668988 16.65,28.7 C15.3696534,30.4523598 14.2738326,32.332346 13.38,34.31 C11.3,38.82 8.53,38.88 8.38,42.59 C9.33,39.71 11.25,38.98 12.58,37.09 C12.333504,38.4386157 12.2329244,39.809851 12.28,41.18 C12.3183317,42.7193412 12.6298387,44.2396306 13.2,45.67 C13.06,47.5 13.2,50.67 15.34,52.72 C14.1640758,50.9820751 13.594623,48.9046268 13.72,46.81 C15.33,50 20,54.38 22.31,57.33 C20.04,53.53 14.46,49.09 13.31,43.97 M65.34,28.69 C67.2062712,29.1626802 68.8756325,30.212593 70.11,31.69 C68.76,28.5 61,24.91 57.38,21.44 C58.45,21.66 62.83,21.78 64.65,20.56 C61.36,21.46 54.02,20.44 51.25,18.56 C53.17,21.31 57.33,21.47 62.39,26.94 C61.6775892,26.3947341 60.9100767,25.9255124 60.1,25.54 C62.89,28.54 61.68,30.31 61.1,30.86 C62.1,30.63 63.69,29.31 63.33,28.03 C63.67,28.43 64.01,28.85 64.33,29.3 C64.9966667,30.22 65.6166667,31.12 66.19,32 C67.04,34.52 65.48,37.11 62.85,38.27 C65.2048755,37.9104938 66.9791186,35.9395774 67.09,33.56 C68.3460079,35.7159636 69.0341656,38.1554825 69.09,40.65 C69.0979224,41.3544394 69.0678788,42.0587939 69,42.76 C68.32,44.03 67.24,44.5 65.32,44.76 C67.07,44.87 67.99,44.76 68.76,43.99 C67.57,49.11 61.99,53.55 59.76,57.35 C62.03,54.4 66.76,50 68.39,46.82 C68.510144,48.914078 67.9411428,50.9898788 66.77,52.73 C68.88,50.65 69.04,47.51 68.91,45.67 C69.47701,44.2425679 69.7851586,42.7255289 69.82,41.19 C69.877108,39.8196743 69.7764468,38.4473266 69.52,37.1 C70.86,38.99 72.78,39.72 73.73,42.6 C73.54,38.89 70.73,38.83 68.73,34.32 C67.8362135,32.3443773 66.7439334,30.4647174 65.47,28.71" id="Shape" fill="#231F20"></path>
                <path d="M74.37,37.13 C76,37.38 77.29,37.38 77.9,35.75 C71.9,32.89 71.9,26.88 65.04,23.75 C68.83,20.93 67.81,18.29 66.04,15.63 C64.18,18.92 61,19.37 59,18.29 C61.78,17.29 62.83,13.85 64.51,12.85 C63.51,11.72 62.12,11.68 60.51,12.75 C59.66,10.47 56.87,11.22 56.45,11.22 C57.2678709,11.8859819 57.7418011,12.8852766 57.74,13.94 C57.45,16.22 53.74,15.85 53.74,15.85 C54.49,14.31 54.16,13.39 52.49,12.6 C52,13.82 48,15.48 47.77,17.9 C47.37,21.69 51.86,23.99 55.77,26.12 C60.1,28.47 58.51,31.02 56.94,31.12 C56.07,33.81 59.41,34.3 61.31,33.21 C61.31,33.56 61.06,35.73 58.15,35.9 C58.3462947,36.6121902 58.9191953,37.158176 59.64,37.32 C58.6521751,37.7107618 57.5901206,37.8780951 56.53,37.81 C56.63,38.98 57.9,39.92 59.53,40.07 C59.1908452,40.6102331 58.6635871,41.0056767 58.05,41.18 C59.77,42.89 64.4,41.76 65.34,40.78 C65.77,40.32 66.34,40.96 65.78,41.65 C65.22,42.34 62.93,43.13 61.04,42.55 C60.8193084,43.167416 60.997647,43.856992 61.49,44.29 C60.7030357,44.3523764 59.9251556,44.4999054 59.17,44.73 C59.35,45.52 60.24,45.98 60.55,46.29 C60.1690713,46.680808 59.8878153,47.1575711 59.73,47.68 C60.58,48.09 62.88,48.68 64.11,47.31 C64.61,46.76 65.11,47.11 64.65,47.82 C62.83,50.32 58.49,50.36 56.96,49.58 C56.91,51.58 57.76,51.94 58.78,52.75 C55.64,56.36 57.72,59.57 55.5,62.75 C59.68,62.75 62.29,60.47 63.02,58.33 C63.0738549,59.2027411 63.750363,59.9088465 64.62,60 C64.5745408,59.1554114 64.7723681,58.3155134 65.19,57.58 C66.04,58.26 67.58,58.42 69.6,58.5 C67.31,54.62 73.79,50.63 71.22,45.34 C70.84,44.54 71.95,44.04 72.06,44.85 C72.66,49.39 75.33,50.41 77.58,49 C76.9,48.26 76.58,48.27 76.19,47.6 C77.7,48 78.47,46.9 78.86,45.53 C74.75,44.08 76.97,40.53 74.37,37.18 M74.71,46.18 C74.8718088,47.0018422 75.16561,47.7920662 75.58,48.52 C72.58,48.33 73.97,42.04 70.99,43.52 C70.1804865,43.9417123 69.8633193,44.9378851 70.28,45.75 C72.28,49.75 67.78,53.36 68.03,56.91 C66.93,56.91 65.79,56.91 65.03,55.39 C64.5371847,56.2798672 64.1126316,57.2058609 63.76,58.16 L62.86,56.65 C62.1399871,59.4557179 59.6914005,61.4760039 56.8,61.65 C58.3,59.25 56.5,55.98 60.17,52.51 C59.515087,52.0595817 58.8995485,51.5544386 58.33,51 C62.84,51.53 67.54,48 65.4,46.27 C64.01,45.17 63.4,47.46 61.24,47.08 L62.09,46.35 C61.79,46.06 61.45,45.68 61.09,45.35 C61.7658459,45.2301276 62.4155907,44.9932414 63.01,44.65 L62.46,43.75 C67.74,43.75 67.87,39.7 65.73,39.54 C64.73,39.47 63.42,41.33 60.17,40.94 C60.5434239,40.3895305 60.8238283,39.7814246 61,39.14 C60.1649723,39.1453703 59.335561,39.0031855 58.55,38.72 C60.14,38.51 60.55,37.98 61.86,36.98 L60.33,36.42 C62.55,35.31 62.41,33.37 62.48,31.35 C61.32,32.02 59.94,33.06 58.48,32.58 C58.13,32.46 57.91,32.3 57.9,31.94 C59.99,31.12 61.32,27.94 56.33,25.2 C53.14,23.49 45.33,19.7 50.63,15.62 C51.3810606,15.0967607 52.1053101,14.5360514 52.8,13.94 C53.63,14.58 52.5,16.16 52.22,16.73 C52.22,16.73 53.97,16.91 54.39,16.91 C57.11,16.91 59.96,15.29 58.52,12.21 C59.6,12.43 59.73,13.47 60.06,14.36 C60.75,13.89 61.95,12.89 62.88,13.03 C62.13,15.44 58.96,17.61 56.49,18.1 C58.98,19.46 63.6,20.47 66.02,17.55 C67.73,20.85 65.35,22.23 63.02,23.95 C71.88,27.95 70.57,32.53 76.38,36.1 C75.63,36.45 72.26,35.74 71.96,35.7 C72.8087377,36.6604748 73.5560336,37.7060188 74.19,38.82 C74.6033926,39.9167961 74.8886188,41.0577011 75.04,42.22 C75.2216847,43.8070051 76.1507028,45.2116805 77.54,46 C76.86,47.24 75.34,46.27 74.71,46.1 M32.52,56.07 L33.78,55 L33.59,54.61 C33.45,54.34 33.52,54.32 33.67,54.21 L34.34,53.72 C34.4833981,53.6118943 34.6724274,53.5854303 34.84,53.65 L36.84,54.12 L34.73,54.12 C34.3615333,54.1058605 34.0311317,54.3454016 33.93,54.7 L33.78,55 L33.24,56.11 C32.9789086,56.5945493 33.0596628,57.1921302 33.44,57.59 L33.82,58.05 L33.05,59.62 L33.7,59.62 L34.24,58.53 C34.6956335,58.1153021 35.039535,57.5925719 35.24,57.01 C35.01,56.82 34.84,56.69 34.97,56.43 L35.21,55.91 C35.29,55.74 35.32,55.66 35.55,55.71 L37.66,56.16 C37.9804202,56.3293913 38.3769898,56.2302489 38.58,55.93 C38.87,55.49 38.91,55.54 39.58,55.6 L40.65,55.72 C41.8595037,55.8777651 43.0875583,55.6391717 44.15,55.04 C44.35,55.49 44.75,55.84 44.93,56.2 C45,56.33 44.93,56.51 44.8,56.74 L43.6,59.62 L45.46,59.62 L46.46,56.99 C46.5371645,56.7843296 46.6563682,56.5970095 46.81,56.44 L46.2,59.62 L48.01,59.62 L48.48,56.48 C48.59,55.78 48.48,55.55 48.19,55.27 C47.44,54.63 47.46,53.27 47.19,52.49 C47.3261682,52.4117201 47.4841986,52.380114 47.64,52.4 C48.03,52.4 48.33,53.4 48.79,54.09 C49.71,55.38 50.97,56.81 52.41,54.8 C52.2737459,54.574895 52.1199348,54.360897 51.95,54.16 L51.54,53.69 C51.31,53.43 50.19,52.15 49.73,51.69 C48.8432673,50.8065682 47.4668663,50.6453681 46.4,51.3 C44.94,50.54 43.4,51.3 43.02,51.3 L40.5,51.15 C40.3326403,51.1407545 40.179999,51.0514034 40.09,50.91 L40.56,50.75 C40.12,48.93 39.02,47.4 37.09,47.14 C37.09,47.14 36.98,46.56 36.68,46.45 L36.11,47.12 C35.942371,47.150056 35.7782051,47.1969606 35.62,47.26 L33.16,46.35 L35.01,48.21 C35.01,48.21 34.01,49.57 33.78,49.85 C33.6865136,49.9404322 33.6337289,50.0649319 33.6337289,50.195 C33.6337289,50.3250681 33.6865136,50.4495678 33.78,50.54 L34.14,51.01 C34.32,51.25 34.52,51.24 34.82,51.09 L35.22,50.88 C35.4,50.74 35.99,51.03 36.22,50.79 C36.0721372,51.2611905 35.9782033,51.7476338 35.94,52.24 L34.28,52.04 C34.0172168,51.9721816 33.7378584,52.0355029 33.53,52.21 L32.11,53.3 C31.6394025,53.6737538 31.50455,54.3311595 31.79,54.86 L32.52,56.07 Z M46.21,56.38 L45.08,59.15 L44.39,59.15 L45.51,56.47 C45.63,56.12 45.41,55.96 45.12,55.58 C45.5087926,55.8088842 45.9170463,56.002972 46.34,56.16 C46.34,56.24 46.25,56.29 46.21,56.38 M35.38,50.38 L35.06,50.55 C34.84,50.67 34.72,50.73 34.53,50.49 L34.39,50.31 C34.2899415,50.1803987 34.2899415,49.9996013 34.39,49.87 L35.77,48.26 L34.5,47.26 L36.12,47.86 L36.71,47.12 C36.88,47.27 36.82,47.69 36.82,47.69 C38.4032973,47.9882839 39.5376467,49.3892901 39.5,51 C39.733415,51.3449851 40.092163,51.5853462 40.5,51.67 L43.3,51.84 C43.77,51.84 44.93,50.95 46.42,51.84 C46.7836109,51.6047916 47.1923361,51.4481136 47.62,51.38 C48.8513589,51.4102199 49.982328,52.066182 50.62,53.12 C51.15,53.79 51.87,54.82 51.87,54.82 C51.56,55.18 51.26,55.31 51,55.22 C50.6542445,55.0161305 50.4190522,54.667017 50.36,54.27 C50.1463592,53.7620362 49.8011762,53.3202018 49.36,52.99 C49.5685836,53.458508 49.7132132,53.9529392 49.79,54.46 C48.7,53.38 48.49,52.05 47.73,51.87 C47.2965886,51.8065142 46.8651326,51.9969768 46.62,52.36 C47.01,53.25 46.99,54.29 47.39,54.98 C47.69,55.5 47.75,55.55 47.88,55.66 C48.21,55.9 48.03,56.31 47.98,56.66 L47.56,59.26 L46.86,59.26 L47.32,56.71 C47.46,55.94 45.32,55.94 44.17,54.46 C43.17,55.57 40.55,55.29 39.4,55.12 C38.9568425,54.9658293 38.4660897,55.140504 38.22,55.54 C38.08,55.79 37.82,55.71 37.67,55.68 L35.57,55.22 C35.4339418,55.1626858 35.2799345,55.1659082 35.1463928,55.2288636 C35.0128512,55.2918189 34.9123653,55.4085718 34.87,55.55 L34.45,56.42 C34.3472768,56.5898462 34.3809749,56.8088843 34.53,56.94 L34.73,57.15 C34.6301388,57.4357588 34.4578622,57.6907283 34.23,57.89 L33.78,57.37 C33.5591859,57.0796304 33.5354894,56.6846891 33.72,56.37 L34.4,54.95 C34.4883269,54.7475829 34.6891636,54.6176297 34.91,54.62 L37.51,54.62 L36.71,53.33 C36.12,52.33 37.1,50.62 36.96,49.8 C36.88,50.9 35.56,50.4 35.35,50.55 M32.52,53.82 L33.76,52.88 C33.9166081,52.7119153 34.1408437,52.6236914 34.37,52.64 L36.11,52.87 C36.1878277,53.1616685 36.3128089,53.4386539 36.48,53.69 L34.63,53.3 C34.4220099,53.2496654 34.2027658,53.3101466 34.05,53.46 L33.2,54 C33.0394207,54.1458758 33.0057813,54.385556 33.12,54.57 L33.26,54.87 L32.65,55.33 L32.42,54.89 C32.18,54.42 32.16,54 32.55,53.7 M37.92,20.27 C38.5123202,20.6524358 39.1343071,20.9868374 39.78,21.27 L39.78,20.48 L37.15,19.48 C37.15,19.48 37.15,19.8 37.92,20.32 M39.78,19.31 L39.78,18.52 L36.78,17.46 C37.1231661,17.792766 37.4983152,18.0908756 37.9,18.35 C38.4923202,18.7324358 39.1143071,19.0668374 39.76,19.35 M39.78,17.51 L39.78,16.72 L36.51,15.52 C36.51,15.52 37.15,16.03 37.92,16.52 C38.509776,16.906728 39.13213,17.2413269 39.78,17.52" id="Shape" fill="#231F20"></path>
                <path d="M49,28.33 L52.34,28.33 C52.091532,27.6612812 51.4187177,27.2485117 50.71,27.33 C49.9963712,27.3116423 49.3339134,27.6990445 49,28.33 M45.46,15.52 L42.2,16.72 L42.2,17.51 C42.8504293,17.2300206 43.4759953,16.8954934 44.07,16.51 C44.83,15.99 45.46,15.51 45.46,15.51 M44.82,19.43 L42.2,20.43 L42.2,21.22 C42.8482513,20.935518 43.4734599,20.6011819 44.07,20.22 C44.82,19.7 44.82,19.38 44.82,19.38 M45.18,17.46 L42.18,18.52 L42.18,19.31 C42.8314871,19.032222 43.4572388,18.6975954 44.05,18.31 C44.4450864,18.0460527 44.816484,17.7482655 45.16,17.42 M31.31,27.36 C30.600454,27.2747481 29.9254881,27.6888375 29.68,28.36 L33,28.36 C32.6678673,27.7273406 32.0042406,27.3392548 31.29,27.36" id="Shape" fill="#231F20"></path>
                <path d="M47.62,13.38 C47.62,11.5 44.47,9.82 40.99,9.82 C37.51,9.82 34.35,11.5 34.35,13.38 L34.42,13.84 L35.81,21.84 L29.23,25.68 C28.3175313,26.2968416 27.7075416,27.2699205 27.55,28.36 L28.74,28.36 C28.8968053,26.9619732 30.1150624,25.9277693 31.52,26 C33.04,26.08 33.94,27 34.83,28.32 L35.06,28.67 L35.39,29.19 L25.72,29.19 C26.531422,30.5885711 27.0072345,32.1563563 27.11,33.77 L27.11,53.89 C27.11,59.07 31.11,61.53 35.39,61.53 C38.71,61.53 39.16,61.38 40.99,63.21 C42.82,61.38 43.27,61.53 46.6,61.53 C50.9,61.53 54.87,59.07 54.87,53.89 L54.87,33.78 C54.9727655,32.1663563 55.448578,30.5985711 56.26,29.2 L46.58,29.2 L46.91,28.68 L47.14,28.33 C48,27 48.94,26.09 50.45,26 C51.8412375,25.925973 53.0538892,26.93797 53.23,28.32 L54.43,28.32 C54.2688659,27.2286631 53.6553411,26.2557363 52.74,25.64 L46.16,21.8 L47.55,13.8 L47.62,13.38 Z M35.7,14.29 L40.6,16 L40.6,23.68 L37,21.74 L35.7,14.29 Z M36.9,30.59 C37.626929,31.5274629 38.6734348,32.1646212 39.84,32.38 C39.9553124,32.9247732 40.2513221,33.4145987 40.68,33.77 C40.5217633,34.4163546 40.6310199,35.0992139 40.9830264,35.6639302 C41.3350329,36.2286466 41.9000075,36.6274416 42.55,36.77 C42.681763,37.4664601 43.18469,38.0346524 43.86,38.25 L42.86,39.44 C42.5390983,39.8317832 42.0441496,40.0380118 41.54,39.99 L36.95,39.46 C37.15,38.95 36.62,38.37 35.17,38.62 L36.98,33.62 L35.88,31.28 L33.76,33 L33.61,38.28 L32.72,37.85 C31.56,37.35 31.22,39.45 32.33,39.46 L32.77,39.46 C32.77,39.68 32.77,39.92 32.97,39.99 C32.8603264,40.0547534 32.7930301,40.1726371 32.7930301,40.3 C32.7930301,40.4273629 32.8603264,40.5452466 32.97,40.61 C32.8452309,40.6750153 32.7601591,40.7969558 32.7422178,40.9364994 C32.7242765,41.076043 32.7757352,41.2155375 32.88,41.31 C32.732737,41.5681317 32.7079145,41.8783894 32.8122628,42.1566515 C32.9166111,42.4349135 33.139318,42.6523477 33.42,42.75 C34.07,42.92 34.48,42.21 34.62,41.8 L41.75,44 C42.6520349,44.3206644 43.6582841,44.081827 44.32,43.39 L46.18,41.77 C45.8790983,42.6904176 46.3068346,43.6913205 47.18,44.11 C47.1191734,44.567382 47.092433,45.0286531 47.1,45.49 L28.49,45.49 L28.49,33.78 C28.4515313,32.6840949 28.2178711,31.60384 27.8,30.59 L36.9,30.59 Z M44.57,35 C44.1807128,35.7599059 44.222557,36.669065 44.68,37.39 L44.37,37.7 C43.04,37.53 42.51,35.54 42.51,35.54 C42.4947715,35.7163385 42.4947715,35.8936615 42.51,36.07 C41.7058889,35.7848957 41.1988447,34.9892897 41.28,34.14 C41.5911879,34.3102538 41.9295275,34.4252893 42.28,34.48 L42.37,33.89 C41.5701631,33.7970031 40.9041009,33.233412 40.68,32.46 L40.55,32.46 L41.05,32.46 C41.5847513,32.4565383 42.1164548,32.3791384 42.63,32.23 C43.0543686,32.7909733 43.6908635,33.1526182 44.39,33.23 C44.2696475,33.8246281 44.332408,34.441773 44.57,35 M46.57,40.28 C46.4353436,40.4658347 46.3307337,40.67168 46.26,40.89 L45.51,41.58 C45.5637847,40.4692461 45.1026365,39.3956932 44.26,38.67 L45.05,37.89 L45.21,38.05 C45.0926918,38.5261773 45.1703291,39.029482 45.4256757,39.4481754 C45.6810223,39.8668687 46.0929477,40.1663027 46.57,40.28 M43,40 L43.62,39.39 C44.474381,40.1115334 44.9193237,41.2070644 44.81,42.32 L44.14,42.93 C44.0110678,43.0547656 43.8665347,43.1623251 43.71,43.25 C44.0163298,42.1156765 43.7514585,40.9032375 43,40 M41.68,40.51 C41.911498,40.5358917 42.1457569,40.5014418 42.36,40.41 C42.9640208,41.3475127 43.0651094,42.5231354 42.63,43.55 C42.3185439,43.5531311 42.0083944,43.5093057 41.71,43.42 L41.47,43.35 C41.8794017,42.4586495 41.9470194,41.447942 41.66,40.51 M40.11,40.31 L40.97,40.42 C41.1318398,41.3308573 40.9876779,42.2696679 40.56,43.09 L39.56,42.8 C40.0013953,42.0487943 40.1939081,41.1772365 40.11,40.31 M38.3,40.09 L39.3,40.22 C39.3874151,41.0449505 39.2161784,41.8766717 38.81,42.6 L37.74,42.29 C38.1572054,41.6368282 38.3372613,40.8601164 38.25,40.09 M34,39.79 C33.8427411,39.8711864 33.6532084,39.8571506 33.5096239,39.7536853 C33.3660393,39.65022 33.2927488,39.4748684 33.32,39.3 C33.8450975,39.0149014 34.4828995,39.0339972 34.99,39.35 C35.24,39.51 35.46,39.98 35.8,40.26 C35.7415525,40.7191421 35.6377109,41.1713554 35.49,41.61 C35.1345208,41.5614781 34.8322768,41.3262408 34.6979628,40.9935554 C34.5636488,40.66087 34.6178507,40.281726 34.84,40 C34.6472631,39.7478604 34.3006232,39.6717687 34.02,39.82 M33.34,41.74 C33.5519254,41.8205436 33.7740798,41.8710333 34,41.89 C33.9906027,41.9970792 33.9362949,42.0951692 33.8505315,42.1599682 C33.7647682,42.2247672 33.6555733,42.2502125 33.55,42.23 C33.4519772,42.1996607 33.3722055,42.1278347 33.3317852,42.0335206 C33.2913648,41.9392065 33.2943679,41.8319057 33.34,41.74 M32.34,38.93 C32.2327943,38.8656088 32.1812864,38.7379335 32.2137979,38.6171764 C32.2463095,38.4964193 32.3549568,38.4118626 32.48,38.41 C32.77,38.41 33.17,38.75 33.56,38.92 C33.1560745,38.9867751 32.7439255,38.9867751 32.34,38.92 M33.34,40.92 C33.55,41.12 34.19,41.04 34.19,41.04 L34.19,41.17 C33.91,41.54 33.14,41.37 33.32,40.92 M34.17,40.5 C33.72,40.68 33.25,40.43 33.4,40.14 C33.61,40.33 34.2,40.23 34.2,40.23 L34.17,40.5 Z M34.84,35.21 L34,38.4 L34.3,33.29 L35.65,32.14 L36.33,33.64 L34.6,38.64 L35.06,35.3 C35.06,35.06 34.91,35.04 34.87,35.3 M35,39.07 C35.4142892,39.0455021 35.8300115,39.0656177 36.24,39.13 C36.44,39.21 36.3,39.55 36.04,39.51 C35.6924754,39.3979733 35.3573822,39.2505323 35.04,39.07 M36.55,39.84 L37.61,39.98 C37.6810831,40.7097099 37.5238447,41.4434889 37.16,42.08 L36.16,41.78 C36.3966204,41.1585598 36.5349468,40.5040395 36.57,39.84 M53.57,53.84 C53.6680261,56.0459441 52.5049681,58.1161875 50.57,59.18 L51.25,57.81 L50.5,57.81 L49.63,59.56 C48.6701933,59.9163169 47.6537949,60.0958806 46.63,60.09 C43.19,60.09 42.29,60.23 41.02,61.49 C39.75,60.23 38.84,60.09 35.42,60.09 C34.3968174,60.0990808 33.3804378,59.9229084 32.42,59.57 L33.28,57.81 L32.6,57.81 L31.84,59.35 C31.66,59.26 31.48,59.17 31.32,59.07 L31.94,57.81 L31.29,57.81 L30.83,58.75 C29.2916839,57.5963659 28.4172049,55.7614549 28.49,53.84 L28.49,46.2 L53.49,46.2 L53.57,53.84 Z M54.27,30.54 C53.8440748,31.551745 53.6068362,32.632875 53.57,33.73 L53.57,45.51 L52.12,45.51 C51.5950716,44.7168059 51.2158012,43.8363566 51,42.91 C50.7681059,43.7971653 50.920567,44.7409722 51.42,45.51 L49.63,45.51 C49.2375331,44.6618522 48.9649222,43.7632457 48.82,42.84 C48.29,43.44 48.63,45.06 48.95,45.51 L47.78,45.51 C47.7677103,44.922355 47.8418354,44.3360933 48,43.77 C47.39,43.66 46.74,43.34 46.74,42.66 C46.9588263,42.8956277 47.2857637,42.9982708 47.6,42.93 L48.1,42.54 C46.45,42.6 46.38,40.79 47.68,39.94 C46.38,39.99 45.4,39.21 45.88,37.83 C45.4255557,37.5554204 45.1059154,37.1040664 44.9977763,36.58424 C44.8896372,36.0644135 45.0027597,35.5230323 45.31,35.09 C44.7975525,34.428444 44.6792244,33.5428918 45,32.77 C44.3267739,32.7805675 43.6764881,32.525483 43.19,32.06 L43.08,32.06 C43.8746049,31.7533273 44.5674375,31.2302387 45.08,30.55 L54.27,30.54 Z M49.27,24.89 C47.91,25.13 46.75,26.79 45.79,28.28 L45.69,28.45 L44.69,28.45 L44.69,28.63 C44.59,29.78 43.49,31.35 41.08,31.35 C40.1656184,31.3784002 39.26913,31.0925121 38.54,30.54 C38.0807742,30.1816626 37.7337634,29.6993175 37.54,29.15 C37.4900546,28.9797435 37.4532795,28.8058974 37.43,28.63 L37.43,28.5 L36.43,28.5 L36.32,28.33 C35.32,26.84 34.2,25.18 32.85,24.94 L36.54,22.8 L41,25.27 L45.52,22.8 L49.27,24.89 Z M45,21.74 L41.39,23.64 L41.39,16 L46.3,14.33 L45,21.74 Z M41,15.12 L35.63,13 C36.08,11.93 38.18,11 40.99,11 C43.8,11 45.89,11.92 46.35,13 L41,15.12 Z" id="Shape" fill="#231F20"></path>
                <path d="M52.91,38.17 L52.91,37.58 C51.11,37.58 50.7,35.41 50.7,35.41 C50.5038298,36.0839346 50.6473576,36.8111655 51.0848634,37.3600364 C51.5223692,37.9089073 52.1992917,38.2109686 52.9,38.17 M50.64,41.77 L50.45,41.22 C48.92,41.61 48.12,39.22 48.12,39.22 C47.9083495,39.9391572 48.1000591,40.7165685 48.6217991,41.2548717 C49.1435391,41.7931748 49.9145814,42.009079 50.64,41.82 M51.71,39.51 C49.87,39.81 49.11,37.67 49.11,37.67 C48.9971562,38.2347443 49.1235107,38.820998 49.4589671,39.2891207 C49.7944235,39.7572435 50.3089532,40.0653311 50.88,40.14 C50.7340386,40.7616589 50.9716956,41.4105819 51.484626,41.7909329 C51.9975565,42.1712839 52.6875316,42.2102236 53.24,41.89 L53.06,41.36 C52.5606593,41.5450065 51.999195,41.3757528 51.6852959,40.9455949 C51.3713969,40.5154369 51.3814866,39.9291032 51.71,39.51 M50.6,33.41 L50.6,32.82 C48.17,32.32 48.38,30.65 48.38,30.65 C48.1838298,31.3239346 48.3273576,32.0511655 48.7648634,32.6000364 C49.2023692,33.1489073 49.8792917,33.4509686 50.58,33.41 M35.23,57.86 L34.36,59.62 L35.01,59.62 L35.88,57.86 L35.23,57.86 Z M36.54,57.86 L35.67,59.62 L36.33,59.62 L37.19,57.86 L36.54,57.86 Z M41.79,57.86 L40.93,59.62 L41.58,59.62 L42.45,57.86 L41.79,57.86 Z M43.11,57.86 L42.24,59.62 L42.89,59.62 L43.76,57.86 L43.11,57.86 Z M40.48,57.86 L39.61,59.62 L40.27,59.62 L41.13,57.86 L40.48,57.86 Z M48.16,59.62 L48.81,59.62 L49.68,57.86 L49.02,57.86 L48.16,59.62 Z M37.85,57.86 L36.99,59.62 L37.64,59.62 L38.51,57.86 L37.85,57.86 Z M39.16,57.86 L38.3,59.62 L38.95,59.62 L39.82,57.86 L39.16,57.86 Z M36.19,48.39 C36.0557266,48.4057128 35.9582686,48.5253203 35.97,48.66 C35.9638268,48.7909416 36.0598427,48.904415 36.19,48.92 C36.3241474,48.9093597 36.4258041,48.7944434 36.42,48.66 C36.4261492,48.5235598 36.3256825,48.4056206 36.19,48.39 M41,8.63 C43.1479542,8.57785714 45.2543622,9.22733296 47,10.48 C47.2773981,9.06433383 47.8057133,7.70967961 48.56,6.48 L46.39,6.72 L45.29,4.3 L43.11,5.43 L41,3.33 L38.89,5.43 L36.69,4.3 L35.55,6.71 L33.39,6.47 C34.1442867,7.69967961 34.6726019,9.05433383 34.95,10.47 C36.6949795,9.21600733 38.8018433,8.56639096 40.95,8.62 M35.89,7.62 L36.89,5.43 L38.81,6.43 L41,4.41 L43.11,6.5 L45.02,5.5 L46.02,7.69 L47.3,7.5 C46.9621388,8.09743453 46.6937274,8.73155646 46.5,9.39 C43.0632328,7.47031649 38.8767672,7.47031649 35.44,9.39 C35.2417078,8.73319716 34.9735057,8.09956965 34.64,7.5 L35.89,7.62 Z" id="Shape" fill="#231F20"></path>
                <path d="M43.2,4.31 C43.5171494,4.33902834 43.79838,4.10690148 43.83,3.79 C43.7550688,3.38130978 43.6095633,2.98878348 43.4,2.63 C43.4,2.63 42.71,3.37 42.69,3.69 C42.6609461,4.00163681 42.8886105,4.27840529 43.2,4.31 M46.76,5.6 C46.8939186,5.67036612 47.0503166,5.68460988 47.1947435,5.63959371 C47.3391704,5.59457754 47.4597782,5.4939943 47.53,5.36 C47.6251507,4.95713328 47.6454882,4.54021496 47.59,4.13 C47.59,4.13 46.67,4.54 46.52,4.83 C46.3792458,5.10938905 46.4854298,5.45006273 46.76,5.6 M38.77,4.31 C38.9214022,4.29730589 39.0614711,4.22469211 39.1591054,4.10828197 C39.2567397,3.99187183 39.3038587,3.84130008 39.29,3.69 C39.29,3.37 38.58,2.63 38.58,2.63 C38.3704367,2.98878348 38.2249312,3.38130978 38.15,3.79 C38.181649,4.10268359 38.4565816,4.3332722 38.77,4.31 M35.22,5.6 C35.3539943,5.52977818 35.4545775,5.40917036 35.4995937,5.26474349 C35.5446099,5.12031663 35.5303661,4.96391857 35.46,4.83 C35.31,4.54 34.39,4.13 34.39,4.13 C34.3345118,4.54021496 34.3548493,4.95713328 34.45,5.36 C34.5181742,5.49599919 34.6387449,5.59840946 34.7839833,5.64367858 C34.9292217,5.68894771 35.0866273,5.67317938 35.22,5.6 M77.85,25.14 C78.5944698,24.8250086 79.1840553,24.2282331 79.49,23.48 C77.56,23.2 72.49,21.05 68.23,22.8 C69.81,21.31 71.23,21.11 71.36,18.96 C71.7045084,19.2834277 72.1798419,19.4282357 72.6461599,19.3518223 C73.112478,19.2754088 73.5167347,18.9864663 73.74,18.57 C73.31,17.29 72.21,18.33 72.06,17.98 C71.91,17.63 73.44,18.13 73.78,16.46 C72.54,16.04 72.17,17.05 71.95,16.82 C71.73,16.59 72.73,16.16 71.95,14.82 C70.66,15.58 71.33,16.43 71.06,16.53 C70.79,16.63 70.99,15.62 69.56,15.66 C69.42,17.2 70.9,17.25 70.66,17.49 C70.42,17.73 70,16.61 69,17.21 C68.974095,17.7188919 69.1921305,18.2096924 69.5871162,18.5316059 C69.982102,18.8535193 70.5068002,18.9680466 71,18.84 C70.83,21.19 68.67,20.75 67.06,23.4 C70.47,25.15 72.06,28.2 74.11,30.31 C74.8563336,29.5046553 75.4919358,28.603378 76,27.63 C77.073937,28.6858811 78.796063,28.6858811 79.87,27.63 C79.09,26.83 79.06,26.22 77.87,25.13 M74.57,25.56 C75.0820313,26.7846564 74.9270882,28.1867018 74.16,29.27 C73.1420733,27.0794398 71.6330265,25.1529243 69.75,23.64 C69.44,23.44 69.92,23.09 70.75,22.98 C73.37,22.48 76.44,23.59 77.91,23.98 C77.3583169,24.4322685 76.6885105,24.7168495 75.98,24.8 C76.8932314,25.506486 77.6954682,26.345801 78.36,27.29 C77.36,27.54 76.76,26.89 74.54,25.56 M40.36,66.93 L38.88,66.87 L38.71,67.46 L38.9,67.46 C38.96,67.46 38.96,67.35 39.01,67.29 C39.178133,67.254369 39.351867,67.254369 39.52,67.29 L40.14,67.29 C39.78,68.05 38.82,68.76 38.83,69.29 C38.83,69.56 39.12,69.61 39.28,69.61 C39.44,69.61 39.67,69.39 39.75,69.06 C39.93,68.32 40.29,67.75 40.55,66.89 L40.37,66.89 L40.36,66.93 Z M41.37,67.81 L41.37,67.35 L42.65,67.35 L42.58,66.85 C42.23,66.85 41.72,66.97 41.25,66.98 L41.16,67.98 C41.75,67.98 42.16,68.21 42.16,68.83 C42.16,69.07 42.01,69.5 41.74,69.53 C41.6817662,69.5505887 41.6182338,69.5505887 41.56,69.53 C41.43,69.43 41.56,69.33 41.56,69.17 C41.5537291,69.0845715 41.5100119,69.0062854 41.4405704,68.9561333 C41.3711289,68.9059811 41.283068,68.889094 41.2,68.91 C41.1149537,68.9095736 41.0337229,68.9452644 40.9765138,69.0081944 C40.9193048,69.0711244 40.8914942,69.155379 40.9,69.24 C40.9,69.61 41.45,69.71 41.68,69.71 C42.21,69.71 42.82,69.42 42.82,68.82 C42.82,68.04 41.94,67.88 41.33,67.82 M44.15,66.79 C43.9300253,66.7818471 43.7162062,66.8635733 43.55775,67.0163704 C43.3992938,67.1691675 43.309849,67.3798743 43.3099998,67.6 C43.3311826,67.9167845 43.5177082,68.1989721 43.8008561,68.3425979 C44.0840041,68.4862237 44.4218792,68.4700365 44.69,68.3 C44.77,68.87 44.69,69.3 44.43,69.3 C44.17,69.3 44.27,69.16 44.25,69.04 C44.2365487,68.9493318 44.1810245,68.8703601 44.1002568,68.8270214 C44.0194892,68.7836826 43.9229869,68.7810791 43.84,68.82 C43.7665152,68.8383029 43.7040949,68.8866255 43.6679648,68.9531809 C43.6318347,69.0197363 43.6253165,69.0984058 43.65,69.17 C43.74,69.46 44.1,69.47 44.27,69.45 C44.9146066,69.3917563 45.3919912,68.825141 45.34,68.18 C45.379168,67.8351869 45.2732283,67.4896099 45.04754,67.2259909 C44.8218518,66.9623719 44.49673,66.80444 44.15,66.79 M44.44,68.21 C43.98,68.21 43.92,67.5 43.92,67.21 C43.92,67.11 44.01,66.97 44.11,66.97 C44.53,66.97 44.64,67.97 44.67,68.21 C44.5942944,68.2271677 44.5157056,68.2271677 44.44,68.21 M37.84,66.64 C37.5313977,67.0177698 37.175091,67.3539083 36.78,67.64 L36.84,67.74 C36.91,67.74 37.03,67.65 37.24,67.52 L36.84,68.92 C36.8128785,68.9817058 36.7456375,69.0153263 36.68,69 L36.44,69 L36.44,69.16 L37.75,69.39 L37.75,69.23 L37.52,69.18 C37.487966,69.1751173 37.4592682,69.1574869 37.4404338,69.1311187 C37.4215994,69.1047505 37.4142294,69.071886 37.42,69.04 L38.02,66.71 L37.84,66.64 Z" id="Shape" fill="#231F20"></path>
                <path d="M52.67,64.85 L52.67,62 C49.9228528,63.2031981 46.9910212,63.9302382 44,64.15 L43.83,65.15 C44.14,65.15 44.53,65.23 45.05,65.26 C43.7234919,65.4335011 42.3877434,65.5270035 41.05,65.54 C39.7122815,65.5263801 38.3765703,65.4328803 37.05,65.26 C37.57,65.26 37.96,65.19 38.26,65.15 L38.1,64.15 C35.0678185,63.9463688 32.0938397,63.2189451 29.31,62 L29.31,64.87 L26.31,66.11 C28.7777502,67.3666609 31.3814093,68.3363226 34.07,69 L33.72,70.21 C38.4731239,71.5566563 43.5068761,71.5566563 48.26,70.21 L47.91,69 C50.600664,68.3417635 53.2075008,67.3788778 55.68,66.13 L52.67,64.85 Z M27.91,66.16 L29.91,65.34 L29.91,63 C31.6925238,63.6566181 33.5251416,64.1682797 35.39,64.53 L34.24,68.29 C32.0535516,67.7964489 29.9226871,67.0828102 27.88,66.16 M41,70.49 C38.8250749,70.473633 36.6598343,70.1983621 34.55,69.67 L35.77,65.73 C37.4949076,66.0461622 39.2465145,66.193525 41,66.17 C42.7534855,66.193525 44.5050924,66.0461622 46.23,65.73 L47.46,69.67 C45.3464133,70.1964621 43.17809,70.4716982 41,70.49 M47.72,68.29 L46.56,64.53 C48.4114472,64.1667854 50.2306549,63.6551332 52,63 L52,65.34 L54,66.16 C51.9573129,67.0828102 49.8264484,67.7964489 47.64,68.29 M6,27.63 C6.49705915,28.5996245 7.12270585,29.4977302 7.86,30.3 C9.96,28.2 11.5,25.15 14.91,23.4 C13.3,20.75 11.13,21.2 10.97,18.84 C11.467331,18.979636 12.001482,18.8705747 12.4042678,18.5471556 C12.8070536,18.2237364 13.0289166,17.725752 13,17.21 C11.92,16.61 11.53,17.8 11.24,17.49 C10.95,17.18 12.48,17.2 12.34,15.67 C10.91,15.62 11.17,16.67 10.84,16.53 C10.51,16.39 11.24,15.53 9.94,14.82 C9.21,16.17 10.21,16.59 10,16.82 C9.79,17.05 9.44,16 8.2,16.46 C8.54,18.13 10.14,17.46 9.92,17.98 C9.7,18.5 8.67,17.29 8.24,18.57 C8.46326529,18.9864663 8.86752198,19.2754088 9.33384005,19.3518223 C9.80015812,19.4282357 10.2754916,19.2834277 10.62,18.96 C10.75,21.12 12.17,21.3 13.75,22.8 C9.54,21.05 4.42,23.2 2.49,23.48 C2.79015614,24.2262822 3.37743364,24.8207655 4.12,25.13 C2.93,26.23 2.9,26.84 2.12,27.64 C2.12,27.64 3.71,29.39 5.99,27.64 M3.6,27.3 C4.27154925,26.3551242 5.08047533,25.5158634 6,24.81 C5.28861685,24.7332593 4.61474439,24.4519002 4.06,24 C5.52,23.61 8.6,22.5 11.22,23 C12.08,23.11 12.57,23.46 12.22,23.66 C10.3312388,25.1672506 8.82104475,27.0952308 7.81,29.29 C7.04291175,28.2067018 6.88796873,26.8046564 7.4,25.58 C5.19,26.91 4.61,27.58 3.57,27.31 M39.15,26 L39.15,27.26 C39.493347,26.9372376 39.9621758,26.7834032 40.43,26.84 L40.43,28.66 C40.4304555,29.1293261 40.3099098,29.5908439 40.08,30 L41.9,30 C41.6847582,29.6035269 41.5681386,29.1610584 41.56,28.71 L41.56,26.87 C42.024781,26.813635 42.4904663,26.9676411 42.83,27.29 L42.83,26 L39.15,26 L39.15,26 Z" id="Shape" fill="#231F20"></path>
            </g>
        </g>
    </g>
</svg>