<svg xmlns="http://www.w3.org/2000/svg" width="30" height="10" viewBox="0 0 30 10"><g><g clip-path="url(#clip-C56B1A05-4CCE-E684-AAB0-8CA110E33003)"><g><g><path fill="#5d7eda" d="M11.97.5l-1.52 8.916h2.43L14.4.5z"/></g><g><path fill="#5d7eda" d="M8.41.512l-2.38 6.08-.254-.918C5.306 4.568 3.974 2.98 2.41 1.978l2.176 7.436 2.571-.005L10.985.51z"/></g><g><path fill="#ff9139" d="M4.857 1.144C4.718.601 4.308.44 3.8.42H.03L0 .597c2.932.712 4.872 2.425 5.677 4.486z"/></g><g><path fill="#5d7eda" d="M19.325 2.212a4.486 4.486 0 0 1 1.819.342l.22.103.328-1.933A6.272 6.272 0 0 0 19.515.35c-2.401 0-4.094 1.21-4.107 2.942-.015 1.281 1.206 1.996 2.128 2.423.947.438 1.265.716 1.26 1.106-.007.597-.755.87-1.453.87-.973 0-1.49-.133-2.288-.466l-.313-.142-.342 1.995c.569.25 1.618.464 2.708.475 2.554 0 4.214-1.195 4.231-3.047.011-1.013-.637-1.786-2.041-2.42-.85-.414-1.37-.69-1.365-1.107 0-.37.44-.767 1.392-.767z"/></g><g><path fill="#5d7eda" d="M24.932 6.267l.968-2.5c-.013.025.198-.517.324-.853l.164.77.563 2.583zM27.929.51H26.05c-.583 0-1.017.159-1.273.74L21.17 9.421h2.552s.416-1.098.51-1.34l3.112.005c.073.31.297 1.335.297 1.335h2.254z"/></g></g></g></g></svg>